<svg width="24" height="20" viewBox="0 0 24 20" fill="none" xmlns="http://www.w3.org/2000/svg">
<path d="M13.8 0C14.7938 0 15.6 0.839453 15.6 1.875V3.75H17.5013C18.1388 3.75 18.7163 4.01172 19.2 4.48047L22.0988 7.5C22.5487 7.96875 22.8 8.60547 22.8 9.26953V13.75C23.4638 13.75 24 14.3086 24 15C24 15.6914 23.4638 16.25 22.8 16.25H21.6C21.6 18.3203 19.9875 20 18 20C15.9788 20 14.4 18.3203 14.4 16.25H9.6C9.6 18.3203 7.9875 20 6 20C3.97875 20 2.4 18.3203 2.4 16.25H1.8C0.805875 16.25 0 15.4102 0 14.375V1.875C0 0.839453 0.805875 0 1.8 0H13.8ZM15.6 6.25V10H20.4V9.26953L17.5013 6.25H15.6ZM6 14.375C5.00625 14.375 4.2 15.2148 4.2 16.25C4.2 17.2852 5.00625 18.125 6 18.125C6.99375 18.125 7.8 17.2852 7.8 16.25C7.8 15.2148 6.99375 14.375 6 14.375ZM18 18.125C18.9938 18.125 19.8 17.2852 19.8 16.25C19.8 15.2148 18.9938 14.375 18 14.375C17.0063 14.375 16.2 15.2148 16.2 16.25C16.2 17.2852 17.0063 18.125 18 18.125ZM4.2 6.875C4.2 7.21875 4.47 7.5 4.8 7.5H6.6V9.375C6.6 9.71875 6.87 10 7.2 10H8.4C8.73 10 9 9.71875 9 9.375V7.5H10.8C11.13 7.5 11.4 7.21875 11.4 6.875V5.625C11.4 5.28125 11.13 5 10.8 5H9V3.125C9 2.77969 8.73 2.5 8.4 2.5H7.2C6.87 2.5 6.6 2.77969 6.6 3.125V5H4.8C4.47 5 4.2 5.28125 4.2 5.625V6.875Z" fill="#272727"/>
</svg>
