<svg width="51" height="58" viewBox="0 0 51 58" fill="none" xmlns="http://www.w3.org/2000/svg">
<rect x="0.954605" width="49.0908" height="57.9879" rx="4" fill="#E1E1FF"/>
<path d="M22.6022 15.1384C22.9927 14.7479 23.6259 14.7479 24.0164 15.1384L26.5163 17.6383C26.7038 17.8258 26.8092 18.0802 26.8092 18.3454C26.8092 18.6106 26.7038 18.865 26.5163 19.0525L24.0164 21.5524C23.6259 21.9429 22.9927 21.9429 22.6022 21.5524C22.2117 21.1618 22.2117 20.5287 22.6022 20.1382L23.3604 19.38C19.8226 19.7307 17.0593 22.7154 17.0593 26.3455C17.0593 30.2115 20.1933 33.3455 24.0593 33.3455C27.6282 33.3455 30.5746 30.6738 31.0051 27.2218C31.0734 26.6737 31.5731 26.2848 32.1211 26.3532C32.6692 26.4215 33.0581 26.9212 32.9897 27.4692C32.436 31.9099 28.6496 35.3455 24.0593 35.3455C19.0888 35.3455 15.0593 31.3161 15.0593 26.3455C15.0593 21.5907 18.7466 17.6971 23.4176 17.368L22.6022 16.5526C22.2117 16.1621 22.2117 15.5289 22.6022 15.1384ZM28.2664 23.1384C28.6569 23.5289 28.6569 24.1621 28.2664 24.5526L23.7664 29.0526C23.3759 29.4431 22.7427 29.4431 22.3522 29.0526L20.3522 27.0526C19.9617 26.6621 19.9617 26.0289 20.3522 25.6384C20.7428 25.2479 21.3759 25.2479 21.7664 25.6384L23.0593 26.9313L26.8522 23.1384C27.2427 22.7479 27.8759 22.7479 28.2664 23.1384Z" fill="#000080"/>
</svg>
