<svg width="25" height="24" viewBox="0 0 25 24" fill="none" xmlns="http://www.w3.org/2000/svg">
<path d="M15.2211 20H6.87708C5.49808 20 4.37708 18.879 4.37708 17.5C4.37708 16.121 5.49808 15 6.87708 15H13.8771C15.8071 15 17.3771 13.43 17.3771 11.5C17.3771 9.57 15.8071 8 13.8771 8H9.01608C8.64883 8.71988 8.19405 9.39164 7.66208 10H13.8771C14.7041 10 15.3771 10.673 15.3771 11.5C15.3771 12.327 14.7041 13 13.8771 13H6.87708C4.39608 13 2.37708 15.019 2.37708 17.5C2.37708 19.981 4.39608 22 6.87708 22H16.4701C15.9794 21.3828 15.5604 20.7118 15.2211 20ZM5.37708 2C3.72308 2 2.37708 3.346 2.37708 5C2.37708 8.188 5.37708 10 5.37708 10C5.37708 10 8.37708 8.187 8.37708 5C8.37708 3.346 7.03108 2 5.37708 2ZM5.37708 6.5C5.18003 6.49993 4.98492 6.46106 4.8029 6.38559C4.62087 6.31012 4.4555 6.19954 4.31621 6.06016C4.17692 5.92078 4.06645 5.75533 3.9911 5.57325C3.91576 5.39118 3.87701 5.19605 3.87708 4.999C3.87714 4.80195 3.91602 4.60685 3.99149 4.42482C4.06695 4.2428 4.17753 4.07742 4.31692 3.93813C4.4563 3.79884 4.62175 3.68837 4.80382 3.61303C4.98589 3.53768 5.18103 3.49893 5.37808 3.499C5.77603 3.49913 6.15764 3.65735 6.43894 3.93884C6.72025 4.22033 6.87821 4.60204 6.87808 5C6.87794 5.39796 6.71973 5.77956 6.43824 6.06087C6.15674 6.34217 5.77503 6.50013 5.37708 6.5Z" fill="#272727"/>
<path d="M19.3771 14C17.7231 14 16.3771 15.346 16.3771 17C16.3771 20.188 19.3771 22 19.3771 22C19.3771 22 22.3771 20.187 22.3771 17C22.3771 15.346 21.0311 14 19.3771 14ZM19.3771 18.5C19.18 18.4999 18.9849 18.4611 18.8029 18.3856C18.6209 18.3101 18.4555 18.1995 18.3162 18.0602C18.1769 17.9208 18.0664 17.7553 17.9911 17.5733C17.9158 17.3912 17.877 17.196 17.8771 16.999C17.8771 16.802 17.916 16.6068 17.9915 16.4248C18.067 16.2428 18.1775 16.0774 18.3169 15.9381C18.4563 15.7988 18.6217 15.6884 18.8038 15.613C18.9859 15.5377 19.181 15.4989 19.3781 15.499C19.776 15.4991 20.1576 15.6573 20.4389 15.9388C20.7202 16.2203 20.8782 16.602 20.8781 17C20.8779 17.398 20.7197 17.7796 20.4382 18.0609C20.1567 18.3422 19.775 18.5001 19.3771 18.5Z" fill="#272727"/>
</svg>
