<svg width="50" height="58" viewBox="0 0 50 58" fill="none" xmlns="http://www.w3.org/2000/svg">
<rect x="0.339447" width="49.0908" height="57.9879" rx="4" fill="#E1E1FF"/>
<path d="M20.2035 24.0334C19.7203 24.0334 19.3285 24.4251 19.3285 24.9084C19.3285 25.3916 19.7203 25.7834 20.2035 25.7834C20.6868 25.7834 21.0785 25.3916 21.0785 24.9084C21.0785 24.4251 20.6868 24.0334 20.2035 24.0334ZM19.3285 31.325C19.3285 30.8418 19.7203 30.45 20.2035 30.45C20.6868 30.45 21.0785 30.8418 21.0785 31.325C21.0785 31.8083 20.6868 32.2 20.2035 32.2C19.7203 32.2 19.3285 31.8083 19.3285 31.325ZM14.0785 19.6584C14.0785 17.5643 15.7761 15.8667 17.8702 15.8667H31.2869C33.3809 15.8667 35.0785 17.5643 35.0785 19.6584V33.075C35.0785 35.1691 33.3809 36.8667 31.2869 36.8667H17.8702C15.7761 36.8667 14.0785 35.1691 14.0785 33.075V19.6584ZM17.5785 24.9084C17.5785 26.3581 18.7538 27.5334 20.2035 27.5334C21.6533 27.5334 22.8285 26.3581 22.8285 24.9084C22.8285 23.4586 21.6533 22.2834 20.2035 22.2834C18.7538 22.2834 17.5785 23.4586 17.5785 24.9084ZM20.2035 28.7C18.7538 28.7 17.5785 29.8753 17.5785 31.325C17.5785 32.7747 18.7538 33.95 20.2035 33.95C21.6533 33.95 22.8285 32.7747 22.8285 31.325C22.8285 29.8753 21.6533 28.7 20.2035 28.7ZM24.5785 24.9084C24.5785 25.3916 24.9703 25.7834 25.4535 25.7834H30.7035C31.1868 25.7834 31.5785 25.3916 31.5785 24.9084C31.5785 24.4251 31.1868 24.0334 30.7035 24.0334H25.4535C24.9703 24.0334 24.5785 24.4251 24.5785 24.9084ZM25.4535 30.45C24.9703 30.45 24.5785 30.8418 24.5785 31.325C24.5785 31.8083 24.9703 32.2 25.4535 32.2H30.7035C31.1868 32.2 31.5785 31.8083 31.5785 31.325C31.5785 30.8418 31.1868 30.45 30.7035 30.45H25.4535ZM17.5785 19.6584C17.5785 20.1416 17.9703 20.5334 18.4535 20.5334H30.7035C31.1868 20.5334 31.5785 20.1416 31.5785 19.6584C31.5785 19.1751 31.1868 18.7834 30.7035 18.7834H18.4535C17.9703 18.7834 17.5785 19.1751 17.5785 19.6584Z" fill="#000080"/>
</svg>
