<svg width="47" height="46" viewBox="0 0 47 46" fill="none" xmlns="http://www.w3.org/2000/svg">
<rect x="0.377075" width="46" height="46" rx="4" fill="#EDFFF7"/>
<path d="M23.3771 12.5C21.1898 12.5026 19.0929 13.3726 17.5463 14.9192C15.9997 16.4658 15.1296 18.5628 15.1271 20.75C15.1244 22.5374 15.7083 24.2763 16.7891 25.7C16.7891 25.7 17.0141 25.9963 17.0508 26.039L23.3771 33.5L29.7063 26.0353C29.7393 25.9955 29.9651 25.7 29.9651 25.7L29.9658 25.6978C31.046 24.2747 31.6296 22.5366 31.6271 20.75C31.6245 18.5628 30.7545 16.4658 29.2078 14.9192C27.6612 13.3726 25.5643 12.5026 23.3771 12.5ZM23.3771 23.75C22.7837 23.75 22.2037 23.5741 21.7104 23.2444C21.217 22.9148 20.8325 22.4462 20.6054 21.8981C20.3784 21.3499 20.319 20.7467 20.4347 20.1647C20.5505 19.5828 20.8362 19.0482 21.2557 18.6287C21.6753 18.2091 22.2099 17.9234 22.7918 17.8076C23.3737 17.6919 23.9769 17.7513 24.5251 17.9784C25.0733 18.2054 25.5418 18.5899 25.8715 19.0833C26.2011 19.5766 26.3771 20.1567 26.3771 20.75C26.3761 21.5453 26.0597 22.3078 25.4973 22.8702C24.9349 23.4326 24.1724 23.749 23.3771 23.75Z" fill="#138808"/>
</svg>
