<svg width="21" height="21" viewBox="0 0 21 21" fill="none" xmlns="http://www.w3.org/2000/svg">
<path d="M14.4995 0.500006C13.5954 0.499806 12.703 0.703917 11.8889 1.09709C11.0747 1.49026 10.36 2.06233 9.79805 2.77054C9.23609 3.47876 8.84144 4.30482 8.6436 5.18699C8.44575 6.06915 8.44982 6.98463 8.6555 7.86501L1.079 15.7175C0.543155 16.2859 0.251992 17.042 0.268222 17.8229C0.284451 18.6039 0.606774 19.3472 1.16577 19.8929C1.72476 20.4385 2.47569 20.7427 3.25682 20.74C4.03795 20.7373 4.78677 20.428 5.342 19.8785L12.8525 12.2705C13.8109 12.5433 14.822 12.5732 15.7949 12.3576C16.7677 12.142 17.6715 11.6877 18.4249 11.0355C19.1783 10.3833 19.7574 9.55391 20.1102 8.62201C20.4629 7.69011 20.5782 6.68506 20.4455 5.69751C20.4271 5.55866 20.3701 5.42775 20.2811 5.31959C20.1921 5.21144 20.0746 5.13037 19.9419 5.08556C19.8092 5.04075 19.6666 5.034 19.5303 5.06607C19.394 5.09814 19.2693 5.16775 19.1705 5.26701L15.9995 8.43951L12.56 5.00001L15.7325 1.82751C15.8318 1.72869 15.9014 1.60405 15.9334 1.46771C15.9655 1.33136 15.9587 1.18877 15.9139 1.05606C15.8691 0.92336 15.7881 0.805856 15.6799 0.716859C15.5718 0.627862 15.4408 0.570928 15.302 0.552506C15.0355 0.517155 14.7669 0.499616 14.498 0.500006H14.4995Z" fill="#272727"/>
</svg>
