<svg width="50" height="58" viewBox="0 0 50 58" fill="none" xmlns="http://www.w3.org/2000/svg">
<rect x="0.569763" width="49.0908" height="57.9879" rx="4" fill="#E1E1FF"/>
<g clip-path="url(#clip0_740_1904)">
<path d="M14.4529 19.158C14.4529 18.0189 15.4322 17.0955 16.6404 17.0955H26.3626C27.5707 17.0955 28.5501 18.0189 28.5501 19.158V19.8455H30.0578C30.9031 19.8455 31.6728 20.3048 32.0347 21.0251L33.6867 24.3134C33.8253 24.5895 33.8973 24.891 33.8973 25.1964V30.158C33.8973 31.2971 32.9179 32.2205 31.7098 32.2205H29.9681C29.7367 33.5212 28.5369 34.5122 27.0917 34.5122C25.6465 34.5122 24.4468 33.5212 24.2154 32.2205H22.1903C21.9589 33.5212 20.7592 34.5122 19.314 34.5122C17.8655 34.5122 16.6636 33.5166 16.4361 32.2116C15.3237 32.1146 14.4529 31.2322 14.4529 30.158V19.158ZM32.439 28.5539H31.2237C30.821 28.5539 30.4945 28.8617 30.4945 29.2414C30.4945 29.6211 30.821 29.9289 31.2237 29.9289H32.439V28.5539ZM32.1311 24.4289L30.7168 21.6137C30.5961 21.3736 30.3395 21.2205 30.0578 21.2205H28.5501V24.4289H32.1311ZM19.314 33.1372C20.1194 33.1372 20.7723 32.5216 20.7723 31.7622C20.7723 31.0028 20.1194 30.3872 19.314 30.3872C18.5085 30.3872 17.8556 31.0028 17.8556 31.7622C17.8556 32.5216 18.5085 33.1372 19.314 33.1372ZM28.5501 31.7622C28.5501 31.0028 27.8971 30.3872 27.0917 30.3872C26.2864 30.3872 25.6334 31.0028 25.6334 31.7622C25.6334 32.5216 26.2864 33.1372 27.0917 33.1372C27.8971 33.1372 28.5501 32.5216 28.5501 31.7622Z" fill="#000080"/>
</g>
<defs>
<clipPath id="clip0_740_1904">
<rect width="20" height="24" fill="white" transform="translate(14.1745 13.3455)"/>
</clipPath>
</defs>
</svg>
