<svg width="20" height="15" viewBox="0 0 20 15" fill="none" xmlns="http://www.w3.org/2000/svg">
<path d="M0 0.75C0 0.33579 0.33579 0 0.75 0H19.25C19.6642 0 20 0.33579 20 0.75C20 1.16421 19.6642 1.5 19.25 1.5H0.75C0.33579 1.5 0 1.16421 0 0.75ZM0 13.75C0 13.3358 0.33579 13 0.75 13H19.25C19.6642 13 20 13.3358 20 13.75C20 14.1642 19.6642 14.5 19.25 14.5H0.75C0.33579 14.5 0 14.1642 0 13.75ZM0.75 6.5C0.33579 6.5 0 6.8358 0 7.25C0 7.6642 0.33579 8 0.75 8H19.25C19.6642 8 20 7.6642 20 7.25C20 6.8358 19.6642 6.5 19.25 6.5H0.75Z" fill="#000080"/>
</svg>
