<svg width="46" height="46" viewBox="0 0 46 46" fill="none" xmlns="http://www.w3.org/2000/svg">
<rect width="46" height="46" rx="4" fill="#FFF5EB"/>
<path fill-rule="evenodd" clip-rule="evenodd" d="M12.533 32.3339C12.4968 32.9773 13.023 33.5005 13.667 33.5005H21.8337C22.4783 33.5005 22.9939 32.9761 23.0651 32.3356C23.3295 29.9678 24.3912 27.7603 26.0759 26.0756C27.7607 24.3908 29.9682 23.3291 32.336 23.0647C32.9765 22.9941 33.5003 22.4779 33.5003 21.8339V13.6666C33.5003 13.022 32.9777 12.4959 32.3343 12.532C27.176 12.819 22.3045 14.9973 18.6514 18.6504C14.9983 22.3035 12.8199 27.175 12.533 32.3333V32.3339ZM30.5913 18.1221C31.0182 18.0276 31.4489 17.9509 31.8822 17.8923L31.8425 17.603L31.7643 17.0255L31.7253 16.7361C31.2598 16.7991 30.7972 16.8814 30.3387 16.9829L30.4017 17.2675L30.5283 17.8374L30.5913 18.1221ZM25.7502 20.0804C26.4957 19.6223 27.2782 19.2272 28.0893 18.8991L27.9797 18.629L27.7609 18.0883L27.6513 17.8176C26.7802 18.17 25.94 18.5944 25.1394 19.0864L25.2923 19.3349L25.5973 19.8319L25.7502 20.0804ZM22.6888 22.5356C22.9931 22.2218 23.3104 21.9207 23.6397 21.6332L23.4478 21.4133L23.0645 20.974L22.8726 20.7541C22.1647 21.372 21.5095 22.0476 20.9138 22.7742L21.1395 22.9591L21.5904 23.3289L21.8162 23.5139C22.0934 23.1758 22.3845 22.8495 22.6888 22.5356ZM19.2203 28.0452C19.5232 27.2244 19.8939 26.4303 20.3287 25.671L20.0761 25.5264L19.5698 25.2365L19.3166 25.0918C18.8496 25.907 18.4514 26.7596 18.126 27.641L18.3996 27.7425L18.9468 27.9443L19.2209 28.0452H19.2203ZM18.3308 31.8678C18.3763 31.4315 18.4398 30.9986 18.5203 30.5705L18.2345 30.5162L17.6611 30.4077L17.3741 30.3535C17.2869 30.8148 17.2188 31.2795 17.1699 31.7465L17.4604 31.7768L18.0403 31.8375L18.3308 31.8678Z" fill="#FF9933"/>
</svg>
