<svg width="242" height="178" viewBox="0 0 242 178" fill="none" xmlns="http://www.w3.org/2000/svg">
<path d="M217.803 165.652H201.806V165.773H217.803V165.652Z" fill="#EBEBEB"/>
<path d="M160.48 166.964H156.283V167.084H160.48V166.964Z" fill="#EBEBEB"/>
<path d="M201.321 161.177H192.053V161.297H201.321V161.177Z" fill="#EBEBEB"/>
<path d="M46.6986 161.987H25.8379V162.108H46.6986V161.987Z" fill="#EBEBEB"/>
<path d="M54.0607 161.987H51.0033V162.108H54.0607V161.987Z" fill="#EBEBEB"/>
<path d="M109.247 164.022H63.9997V164.143H109.247V164.022Z" fill="#EBEBEB"/>
<path d="M114.97 136.384H21.7122C20.9808 136.384 20.2793 136.094 19.7621 135.577C19.2449 135.061 18.9543 134.36 18.9543 133.63V2.7296C18.9607 2.00346 19.2541 1.30922 19.7706 0.798001C20.2871 0.286783 20.985 -2.7839e-05 21.7122 2.02673e-09H114.97C115.701 2.02674e-09 116.403 0.290123 116.92 0.806544C117.437 1.32297 117.728 2.02338 117.728 2.75371V133.63C117.728 134.36 117.437 135.061 116.92 135.577C116.403 136.094 115.701 136.384 114.97 136.384ZM21.7122 0.0964527C21.0132 0.0977275 20.3432 0.375557 19.8489 0.869092C19.3546 1.36263 19.0763 2.03164 19.0751 2.7296V133.63C19.0763 134.328 19.3546 134.997 19.8489 135.49C20.3432 135.984 21.0132 136.262 21.7122 136.263H114.97C115.669 136.262 116.339 135.984 116.833 135.49C117.327 134.997 117.606 134.328 117.607 133.63V2.7296C117.606 2.03164 117.327 1.36263 116.833 0.869092C116.339 0.375557 115.669 0.0977275 114.97 0.0964527H21.7122Z" fill="#EBEBEB"/>
<path d="M219.449 136.384H126.182C125.451 136.382 124.751 136.092 124.234 135.576C123.717 135.06 123.426 134.36 123.424 133.63V2.7296C123.432 2.00385 123.726 1.31034 124.242 0.799394C124.758 0.288445 125.455 0.00122894 126.182 0H219.449C220.175 0.00250993 220.87 0.290442 221.385 0.801388C221.899 1.31233 222.191 2.00513 222.198 2.7296V133.63C222.198 134.359 221.909 135.058 221.393 135.574C220.878 136.09 220.179 136.381 219.449 136.384ZM126.182 0.0964527C125.483 0.0977275 124.813 0.375557 124.319 0.869092C123.825 1.36263 123.546 2.03164 123.545 2.7296V133.63C123.546 134.328 123.825 134.997 124.319 135.49C124.813 135.984 125.483 136.262 126.182 136.263H219.449C220.149 136.262 220.819 135.984 221.313 135.49C221.807 134.997 222.085 134.328 222.087 133.63V2.7296C222.085 2.03164 221.807 1.36263 221.313 0.869092C220.819 0.375557 220.149 0.0977275 219.449 0.0964527H126.182Z" fill="#EBEBEB"/>
<path d="M242 157.893H0.500366V158.013H242V157.893Z" fill="#EBEBEB"/>
<path d="M52.7072 158.013H20.6457L20.3027 156.084C20.2266 155.653 20.2459 155.21 20.3593 154.787C20.4727 154.364 20.6774 153.971 20.9591 153.636C21.2408 153.301 21.5926 153.031 21.9899 152.845C22.3872 152.66 22.8202 152.564 23.2587 152.563H50.0893C50.5279 152.564 50.9611 152.66 51.3585 152.845C51.756 153.031 52.1081 153.3 52.3901 153.636C52.6722 153.971 52.8774 154.364 52.9914 154.787C53.1054 155.21 53.1254 155.653 53.0501 156.084L52.7072 158.013Z" fill="#F0F0F0"/>
<path d="M118.122 158.013H86.0601L85.6689 155.804C85.5983 155.406 85.616 154.997 85.7206 154.607C85.8251 154.216 86.0141 153.853 86.2742 153.544C86.5343 153.234 86.8592 152.985 87.2261 152.814C87.593 152.643 87.9929 152.554 88.3978 152.554H115.784C116.189 152.554 116.589 152.643 116.956 152.814C117.322 152.985 117.647 153.234 117.907 153.544C118.168 153.853 118.357 154.216 118.461 154.607C118.566 154.997 118.583 155.406 118.513 155.804L118.122 158.013Z" fill="#EBEBEB"/>
<path d="M144.134 158.013H116.796L116.434 155.988C116.377 155.665 116.392 155.335 116.477 155.019C116.562 154.703 116.716 154.41 116.927 154.159C117.137 153.909 117.4 153.707 117.697 153.569C117.994 153.431 118.318 153.359 118.646 153.359H142.284C142.611 153.359 142.935 153.431 143.231 153.569C143.528 153.707 143.791 153.909 144.002 154.159C144.212 154.41 144.365 154.703 144.449 155.019C144.534 155.335 144.548 155.666 144.491 155.988L144.134 158.013Z" fill="#F5F5F5"/>
<path d="M174.646 158.013H142.584L142.193 155.804C142.122 155.406 142.14 154.997 142.245 154.607C142.349 154.216 142.538 153.853 142.798 153.544C143.058 153.234 143.383 152.985 143.75 152.814C144.117 152.643 144.517 152.554 144.922 152.554H172.308C172.713 152.554 173.113 152.643 173.48 152.814C173.846 152.985 174.171 153.234 174.432 153.544C174.692 153.853 174.881 154.216 174.985 154.607C175.09 154.997 175.107 155.406 175.037 155.804L174.646 158.013Z" fill="#E6E6E6"/>
<path d="M200.661 158.013H173.319L172.961 155.988C172.905 155.666 172.92 155.336 173.005 155.02C173.09 154.705 173.242 154.411 173.453 154.161C173.663 153.911 173.925 153.709 174.222 153.571C174.518 153.432 174.841 153.36 175.169 153.359H198.811C199.139 153.36 199.462 153.432 199.758 153.571C200.054 153.709 200.317 153.911 200.527 154.161C200.737 154.411 200.89 154.705 200.975 155.02C201.06 155.336 201.075 155.666 201.019 155.988L200.661 158.013Z" fill="#F5F5F5"/>
<path d="M221.848 158.013H194.51L194.153 155.988C194.096 155.666 194.11 155.335 194.194 155.019C194.279 154.703 194.432 154.41 194.642 154.159C194.853 153.909 195.115 153.707 195.412 153.569C195.709 153.431 196.033 153.359 196.36 153.359H219.998C220.326 153.359 220.649 153.431 220.946 153.569C221.243 153.707 221.506 153.909 221.717 154.159C221.928 154.41 222.081 154.703 222.166 155.019C222.252 155.335 222.266 155.665 222.21 155.988L221.848 158.013Z" fill="#EBEBEB"/>
<path d="M86.0931 158.013H51.3172L50.8342 155.235C50.7665 154.85 50.7841 154.455 50.8856 154.077C50.9872 153.7 51.1702 153.349 51.422 153.049C51.6737 152.749 51.988 152.508 52.3428 152.343C52.6977 152.178 53.0845 152.092 53.4762 152.091H83.9534C84.3453 152.091 84.7326 152.176 85.0878 152.341C85.4431 152.507 85.7578 152.748 86.0097 153.047C86.2616 153.347 86.4446 153.698 86.5458 154.076C86.647 154.455 86.6639 154.85 86.5954 155.235L86.0931 158.013Z" fill="#F5F5F5"/>
<path d="M131.499 132.169H35.0101V154.435H131.499V132.169Z" fill="#F0F0F0"/>
<path d="M131.876 153.532H34.643C34.2403 153.534 33.8545 153.694 33.5703 153.979C33.286 154.264 33.1263 154.649 33.1263 155.051C33.1263 155.453 33.286 155.839 33.5703 156.124C33.8545 156.409 34.2403 156.569 34.643 156.57H131.876C132.278 156.569 132.664 156.409 132.948 156.124C133.233 155.839 133.392 155.453 133.392 155.051C133.392 154.649 133.233 154.264 132.948 153.979C132.664 153.694 132.278 153.534 131.876 153.532Z" fill="#E0E0E0"/>
<path d="M44.251 140.16H49.477C49.405 138.763 48.8411 137.437 47.8849 136.415C46.9287 135.393 45.6416 134.741 44.251 134.575V140.16Z" fill="#FAFAFA"/>
<path d="M49.4961 141.573H44.2508V146.497H49.4961V141.573Z" fill="#FAFAFA"/>
<path d="M42.8356 141.573H37.5902V146.497H42.8356V141.573Z" fill="#FAFAFA"/>
<path d="M49.4961 147.904H44.2508V153.532H49.4961V147.904Z" fill="#FAFAFA"/>
<path d="M42.8358 140.16V134.575C41.4452 134.742 40.1581 135.393 39.2019 136.415C38.2457 137.437 37.6818 138.763 37.6098 140.16H42.8358Z" fill="#FAFAFA"/>
<path d="M42.8356 147.904H37.5902V153.532H42.8356V147.904Z" fill="#FAFAFA"/>
<path d="M70.7228 140.16H75.9537C75.8796 138.763 75.3144 137.437 74.3576 136.416C73.4007 135.394 72.1136 134.742 70.7228 134.575V140.16Z" fill="#FAFAFA"/>
<path d="M75.9682 141.573H70.7228V146.497H75.9682V141.573Z" fill="#FAFAFA"/>
<path d="M69.3135 141.573H64.0681V146.497H69.3135V141.573Z" fill="#FAFAFA"/>
<path d="M75.9682 147.904H70.7228V153.532H75.9682V147.904Z" fill="#FAFAFA"/>
<path d="M69.308 140.16V134.575C67.9174 134.741 66.6303 135.393 65.6741 136.415C64.7179 137.437 64.154 138.763 64.082 140.16H69.308Z" fill="#FAFAFA"/>
<path d="M69.3135 147.904H64.0681V153.532H69.3135V147.904Z" fill="#FAFAFA"/>
<path d="M97.2016 140.16H102.413C102.341 138.763 101.777 137.437 100.821 136.415C99.8648 135.393 98.5777 134.742 97.1871 134.575L97.2016 140.16Z" fill="#FAFAFA"/>
<path d="M102.446 141.573H97.2008V146.497H102.446V141.573Z" fill="#FAFAFA"/>
<path d="M95.7856 141.573H90.5402V146.497H95.7856V141.573Z" fill="#FAFAFA"/>
<path d="M102.446 147.904H97.2008V153.532H102.446V147.904Z" fill="#FAFAFA"/>
<path d="M95.7868 140.16V134.575C94.3961 134.742 93.1089 135.394 92.1521 136.416C91.1953 137.437 90.63 138.763 90.5559 140.16H95.7868Z" fill="#FAFAFA"/>
<path d="M95.7856 147.904H90.5402V153.532H95.7856V147.904Z" fill="#FAFAFA"/>
<path d="M123.665 140.16H128.891C128.819 138.763 128.255 137.437 127.299 136.415C126.343 135.393 125.055 134.741 123.665 134.575V140.16Z" fill="#FAFAFA"/>
<path d="M128.92 141.573H123.675V146.497H128.92V141.573Z" fill="#FAFAFA"/>
<path d="M122.26 141.573H117.014V146.497H122.26V141.573Z" fill="#FAFAFA"/>
<path d="M128.92 147.904H123.675V153.532H128.92V147.904Z" fill="#FAFAFA"/>
<path d="M122.259 140.16V134.575C120.868 134.742 119.581 135.394 118.624 136.416C117.667 137.437 117.102 138.763 117.028 140.16H122.259Z" fill="#FAFAFA"/>
<path d="M122.26 147.904H117.014V153.532H122.26V147.904Z" fill="#FAFAFA"/>
<path d="M60.7685 132.169H53.3448V135.689H60.7685V132.169Z" fill="#EBEBEB"/>
<path d="M60.7685 136.63H53.3448V140.15H60.7685V136.63Z" fill="#EBEBEB"/>
<path d="M60.7684 141.09H53.3447V144.61H60.7684V141.09Z" fill="#EBEBEB"/>
<path d="M60.7684 145.552H53.3447V149.072H60.7684V145.552Z" fill="#EBEBEB"/>
<path d="M60.7684 150.013H53.3447V153.533H60.7684V150.013Z" fill="#EBEBEB"/>
<path d="M86.9666 132.169H79.5429V135.689H86.9666V132.169Z" fill="#EBEBEB"/>
<path d="M86.9666 136.63H79.5429V140.15H86.9666V136.63Z" fill="#EBEBEB"/>
<path d="M86.9666 141.09H79.5429V144.61H86.9666V141.09Z" fill="#EBEBEB"/>
<path d="M86.9666 145.552H79.5429V149.072H86.9666V145.552Z" fill="#EBEBEB"/>
<path d="M86.9666 150.013H79.5429V153.533H86.9666V150.013Z" fill="#EBEBEB"/>
<path d="M113.599 132.169H106.176V135.689H113.599V132.169Z" fill="#EBEBEB"/>
<path d="M113.599 136.63H106.176V140.15H113.599V136.63Z" fill="#EBEBEB"/>
<path d="M113.599 141.09H106.175V144.61H113.599V141.09Z" fill="#EBEBEB"/>
<path d="M113.599 145.552H106.175V149.072H113.599V145.552Z" fill="#EBEBEB"/>
<path d="M113.599 150.013H106.175V153.533H113.599V150.013Z" fill="#EBEBEB"/>
<path d="M131.499 108.822H35.0101V131.088H131.499V108.822Z" fill="#F0F0F0"/>
<path d="M131.876 130.211H34.643C34.2403 130.212 33.8545 130.373 33.5703 130.658C33.286 130.942 33.1263 131.328 33.1263 131.73C33.1263 132.132 33.2861 132.517 33.5706 132.801C33.855 133.085 34.2407 133.244 34.643 133.244H131.876C132.278 133.244 132.664 133.085 132.948 132.801C133.232 132.517 133.392 132.132 133.392 131.73C133.392 131.328 133.233 130.942 132.948 130.658C132.664 130.373 132.278 130.212 131.876 130.211Z" fill="#E0E0E0"/>
<path d="M44.2508 116.814H49.4768C49.4048 115.417 48.8409 114.091 47.8847 113.069C46.9284 112.048 45.6414 111.396 44.2508 111.229V116.814Z" fill="#FAFAFA"/>
<path d="M49.4963 118.222H44.251V123.146H49.4963V118.222Z" fill="#FAFAFA"/>
<path d="M42.8356 118.222H37.5902V123.146H42.8356V118.222Z" fill="#FAFAFA"/>
<path d="M49.4963 124.559H44.251V130.187H49.4963V124.559Z" fill="#FAFAFA"/>
<path d="M42.8358 116.814V111.229C41.4452 111.396 40.1581 112.048 39.2019 113.069C38.2457 114.091 37.6818 115.417 37.6098 116.814H42.8358Z" fill="#FAFAFA"/>
<path d="M42.8356 124.559H37.5902V130.187H42.8356V124.559Z" fill="#FAFAFA"/>
<path d="M70.7228 116.814H75.9537C75.8806 115.417 75.3157 114.091 74.3586 113.069C73.4016 112.047 72.114 111.396 70.7228 111.229V116.814Z" fill="#FAFAFA"/>
<path d="M75.9682 118.222H70.7228V123.146H75.9682V118.222Z" fill="#FAFAFA"/>
<path d="M69.3137 118.222H64.0683V123.146H69.3137V118.222Z" fill="#FAFAFA"/>
<path d="M75.9682 124.559H70.7228V130.187H75.9682V124.559Z" fill="#FAFAFA"/>
<path d="M69.3079 116.814V111.229C67.9173 111.396 66.6302 112.048 65.674 113.069C64.7178 114.091 64.1539 115.417 64.0818 116.814H69.3079Z" fill="#FAFAFA"/>
<path d="M69.3137 124.559H64.0683V130.187H69.3137V124.559Z" fill="#FAFAFA"/>
<path d="M97.2016 116.814H102.413C102.341 115.417 101.777 114.091 100.821 113.069C99.8648 112.048 98.5777 111.396 97.1871 111.229L97.2016 116.814Z" fill="#FAFAFA"/>
<path d="M102.446 118.222H97.2008V123.146H102.446V118.222Z" fill="#FAFAFA"/>
<path d="M95.7856 118.222H90.5402V123.146H95.7856V118.222Z" fill="#FAFAFA"/>
<path d="M102.446 124.559H97.2008V130.187H102.446V124.559Z" fill="#FAFAFA"/>
<path d="M95.7867 116.814V111.229C94.3956 111.396 93.1079 112.047 92.1509 113.069C91.1939 114.091 90.629 115.417 90.5558 116.814H95.7867Z" fill="#FAFAFA"/>
<path d="M95.7856 124.559H90.5402V130.187H95.7856V124.559Z" fill="#FAFAFA"/>
<path d="M123.665 116.814H128.891C128.819 115.417 128.255 114.091 127.299 113.069C126.343 112.048 125.056 111.396 123.665 111.229V116.814Z" fill="#FAFAFA"/>
<path d="M128.92 118.222H123.675V123.146H128.92V118.222Z" fill="#FAFAFA"/>
<path d="M122.26 118.222H117.014V123.146H122.26V118.222Z" fill="#FAFAFA"/>
<path d="M128.92 124.559H123.675V130.187H128.92V124.559Z" fill="#FAFAFA"/>
<path d="M122.259 116.814V111.229C120.868 111.396 119.58 112.047 118.623 113.069C117.666 114.091 117.101 115.417 117.028 116.814H122.259Z" fill="#FAFAFA"/>
<path d="M122.26 124.559H117.014V130.187H122.26V124.559Z" fill="#FAFAFA"/>
<path d="M60.7685 108.822H53.3448V112.343H60.7685V108.822Z" fill="#EBEBEB"/>
<path d="M60.7685 113.283H53.3448V116.804H60.7685V113.283Z" fill="#EBEBEB"/>
<path d="M60.7685 117.744H53.3448V121.265H60.7685V117.744Z" fill="#EBEBEB"/>
<path d="M60.7684 122.205H53.3447V125.726H60.7684V122.205Z" fill="#EBEBEB"/>
<path d="M60.7685 126.666H53.3448V130.186H60.7685V126.666Z" fill="#EBEBEB"/>
<path d="M86.9666 108.822H79.5429V112.343H86.9666V108.822Z" fill="#EBEBEB"/>
<path d="M86.9666 113.283H79.5429V116.804H86.9666V113.283Z" fill="#EBEBEB"/>
<path d="M86.9666 117.744H79.5429V121.265H86.9666V117.744Z" fill="#EBEBEB"/>
<path d="M86.9666 122.205H79.5429V125.726H86.9666V122.205Z" fill="#EBEBEB"/>
<path d="M86.9666 126.666H79.5429V130.187H86.9666V126.666Z" fill="#EBEBEB"/>
<path d="M113.599 108.822H106.176V112.343H113.599V108.822Z" fill="#EBEBEB"/>
<path d="M113.599 113.283H106.176V116.804H113.599V113.283Z" fill="#EBEBEB"/>
<path d="M113.599 117.744H106.176V121.265H113.599V117.744Z" fill="#EBEBEB"/>
<path d="M113.599 122.205H106.175V125.726H113.599V122.205Z" fill="#EBEBEB"/>
<path d="M113.599 126.666H106.176V130.186H113.599V126.666Z" fill="#EBEBEB"/>
<path d="M131.499 85.4766H35.0101V107.743H131.499V85.4766Z" fill="#F0F0F0"/>
<path d="M131.876 106.84H34.643C34.2411 106.841 33.8561 107.001 33.572 107.285C33.2878 107.568 33.1276 107.953 33.1263 108.354C33.1263 108.756 33.286 109.142 33.5703 109.427C33.8545 109.711 34.2403 109.872 34.643 109.873H131.876C132.278 109.872 132.664 109.711 132.948 109.427C133.233 109.142 133.392 108.756 133.392 108.354C133.391 107.953 133.231 107.568 132.947 107.285C132.662 107.001 132.277 106.841 131.876 106.84Z" fill="#E0E0E0"/>
<path d="M44.2508 93.4626H49.4768C49.4046 92.0665 48.8405 90.7409 47.8842 89.7198C46.928 88.6988 45.641 88.0482 44.2508 87.8828V93.4626Z" fill="#FAFAFA"/>
<path d="M49.4961 94.875H44.2508V99.7989H49.4961V94.875Z" fill="#FAFAFA"/>
<path d="M42.8356 94.875H37.5902V99.7989H42.8356V94.875Z" fill="#FAFAFA"/>
<path d="M49.4961 101.212H44.2508V106.84H49.4961V101.212Z" fill="#FAFAFA"/>
<path d="M42.8358 93.4626V87.8828C41.4456 88.0482 40.1586 88.6988 39.2023 89.7198C38.246 90.7409 37.682 92.0665 37.6098 93.4626H42.8358Z" fill="#FAFAFA"/>
<path d="M42.8356 101.212H37.5902V106.84H42.8356V101.212Z" fill="#FAFAFA"/>
<path d="M70.7228 93.4626H75.9537C75.8795 92.0664 75.3141 90.7412 74.3571 89.7204C73.4002 88.6997 72.1132 88.0489 70.7228 87.8828V93.4626Z" fill="#FAFAFA"/>
<path d="M75.9682 94.875H70.7228V99.7989H75.9682V94.875Z" fill="#FAFAFA"/>
<path d="M69.3135 94.875H64.0681V99.7989H69.3135V94.875Z" fill="#FAFAFA"/>
<path d="M75.9682 101.212H70.7228V106.84H75.9682V101.212Z" fill="#FAFAFA"/>
<path d="M69.3079 93.4626V87.8828C67.9177 88.0482 66.6307 88.6988 65.6744 89.7198C64.7181 90.7409 64.154 92.0665 64.0818 93.4626H69.3079Z" fill="#FAFAFA"/>
<path d="M69.3135 101.212H64.0681V106.84H69.3135V101.212Z" fill="#FAFAFA"/>
<path d="M97.2016 93.4626H102.413C102.341 92.0665 101.777 90.7409 100.821 89.7198C99.8643 88.6988 98.5773 88.0482 97.1871 87.8828L97.2016 93.4626Z" fill="#FAFAFA"/>
<path d="M102.446 94.875H97.2008V99.7989H102.446V94.875Z" fill="#FAFAFA"/>
<path d="M95.7856 94.875H90.5402V99.7989H95.7856V94.875Z" fill="#FAFAFA"/>
<path d="M102.446 101.212H97.2008V106.84H102.446V101.212Z" fill="#FAFAFA"/>
<path d="M95.7867 93.4626V87.8828C94.3964 88.0489 93.1093 88.6997 92.1524 89.7204C91.1955 90.7412 90.6301 92.0664 90.5558 93.4626H95.7867Z" fill="#FAFAFA"/>
<path d="M95.7856 101.212H90.5402V106.84H95.7856V101.212Z" fill="#FAFAFA"/>
<path d="M123.665 93.4626H128.891C128.819 92.0665 128.255 90.7409 127.298 89.7198C126.342 88.6988 125.055 88.0482 123.665 87.8828V93.4626Z" fill="#FAFAFA"/>
<path d="M128.92 94.875H123.675V99.7989H128.92V94.875Z" fill="#FAFAFA"/>
<path d="M122.26 94.875H117.014V99.7989H122.26V94.875Z" fill="#FAFAFA"/>
<path d="M128.92 101.212H123.675V106.84H128.92V101.212Z" fill="#FAFAFA"/>
<path d="M122.259 93.4626V87.8828C120.868 88.0489 119.581 88.6997 118.624 89.7204C117.668 90.7412 117.102 92.0664 117.028 93.4626H122.259Z" fill="#FAFAFA"/>
<path d="M122.26 101.212H117.014V106.84H122.26V101.212Z" fill="#FAFAFA"/>
<path d="M60.7684 85.4766H53.3447V88.9971H60.7684V85.4766Z" fill="#EBEBEB"/>
<path d="M60.7684 89.9365H53.3447V93.457H60.7684V89.9365Z" fill="#EBEBEB"/>
<path d="M60.7684 94.3975H53.3447V97.918H60.7684V94.3975Z" fill="#EBEBEB"/>
<path d="M60.7684 98.8584H53.3447V102.379H60.7684V98.8584Z" fill="#EBEBEB"/>
<path d="M60.7684 103.32H53.3447V106.841H60.7684V103.32Z" fill="#EBEBEB"/>
<path d="M86.9666 85.4766H79.5429V88.9971H86.9666V85.4766Z" fill="#EBEBEB"/>
<path d="M86.9666 89.9365H79.5429V93.457H86.9666V89.9365Z" fill="#EBEBEB"/>
<path d="M86.9666 94.3975H79.5429V97.918H86.9666V94.3975Z" fill="#EBEBEB"/>
<path d="M86.9666 98.8584H79.5429V102.379H86.9666V98.8584Z" fill="#EBEBEB"/>
<path d="M86.9666 103.32H79.5429V106.841H86.9666V103.32Z" fill="#EBEBEB"/>
<path d="M113.599 85.4766H106.175V88.9971H113.599V85.4766Z" fill="#EBEBEB"/>
<path d="M113.599 89.9365H106.175V93.457H113.599V89.9365Z" fill="#EBEBEB"/>
<path d="M113.599 94.3975H106.175V97.918H113.599V94.3975Z" fill="#EBEBEB"/>
<path d="M113.599 98.8584H106.175V102.379H113.599V98.8584Z" fill="#EBEBEB"/>
<path d="M113.599 103.32H106.175V106.841H113.599V103.32Z" fill="#EBEBEB"/>
<path d="M131.499 62.1299H35.0101V84.3959H131.499V62.1299Z" fill="#F0F0F0"/>
<path d="M131.876 83.4941H34.643C34.2407 83.4941 33.855 83.6537 33.5706 83.9377C33.2861 84.2217 33.1263 84.6068 33.1263 85.0084C33.1263 85.4105 33.286 85.7962 33.5703 86.0809C33.8545 86.3657 34.2403 86.5263 34.643 86.5276H131.876C132.278 86.5263 132.664 86.3657 132.948 86.0809C133.233 85.7962 133.392 85.4105 133.392 85.0084C133.392 84.6068 133.232 84.2217 132.948 83.9377C132.664 83.6537 132.278 83.4941 131.876 83.4941Z" fill="#E0E0E0"/>
<path d="M44.2508 70.1158H49.4768C49.4048 68.7192 48.8409 67.393 47.8847 66.3711C46.9284 65.3493 45.6414 64.6977 44.2508 64.5312V70.1158Z" fill="#FAFAFA"/>
<path d="M49.4961 71.5293H44.2508V76.4532H49.4961V71.5293Z" fill="#FAFAFA"/>
<path d="M42.8356 71.5293H37.5902V76.4532H42.8356V71.5293Z" fill="#FAFAFA"/>
<path d="M49.4963 77.8612H44.251V83.4892H49.4963V77.8612Z" fill="#FAFAFA"/>
<path d="M42.8358 70.1158V64.5312C41.4452 64.6977 40.1581 65.3493 39.2019 66.3711C38.2457 67.393 37.6818 68.7192 37.6098 70.1158H42.8358Z" fill="#FAFAFA"/>
<path d="M42.8356 77.8613H37.5902V83.4893H42.8356V77.8613Z" fill="#FAFAFA"/>
<path d="M70.7228 70.1158H75.9537C75.8796 68.7191 75.3144 67.3933 74.3576 66.3717C73.4007 65.3502 72.1136 64.6985 70.7228 64.5312V70.1158Z" fill="#FAFAFA"/>
<path d="M75.9682 71.5293H70.7228V76.4532H75.9682V71.5293Z" fill="#FAFAFA"/>
<path d="M69.3135 71.5293H64.0681V76.4532H69.3135V71.5293Z" fill="#FAFAFA"/>
<path d="M75.9682 77.8613H70.7228V83.4893H75.9682V77.8613Z" fill="#FAFAFA"/>
<path d="M69.3079 70.1158V64.5312C67.9173 64.6977 66.6302 65.3493 65.674 66.3711C64.7178 67.393 64.1539 68.7192 64.0818 70.1158H69.3079Z" fill="#FAFAFA"/>
<path d="M69.3137 77.8612H64.0683V83.4892H69.3137V77.8612Z" fill="#FAFAFA"/>
<path d="M97.2016 70.1158H102.413C102.341 68.7192 101.777 67.393 100.821 66.3711C99.8648 65.3493 98.5777 64.6977 97.1871 64.5312L97.2016 70.1158Z" fill="#FAFAFA"/>
<path d="M102.446 71.5293H97.2008V76.4532H102.446V71.5293Z" fill="#FAFAFA"/>
<path d="M95.7856 71.5293H90.5402V76.4532H95.7856V71.5293Z" fill="#FAFAFA"/>
<path d="M102.446 77.8613H97.2008V83.4893H102.446V77.8613Z" fill="#FAFAFA"/>
<path d="M95.7867 70.1158V64.5312C94.396 64.6985 93.1089 65.3502 92.152 66.3717C91.1952 67.3933 90.6299 68.7191 90.5558 70.1158H95.7867Z" fill="#FAFAFA"/>
<path d="M95.7856 77.8613H90.5402V83.4893H95.7856V77.8613Z" fill="#FAFAFA"/>
<path d="M123.665 70.1158H128.891C128.819 68.7192 128.255 67.393 127.299 66.3711C126.343 65.3493 125.056 64.6977 123.665 64.5312V70.1158Z" fill="#FAFAFA"/>
<path d="M128.92 71.5293H123.675V76.4532H128.92V71.5293Z" fill="#FAFAFA"/>
<path d="M122.26 71.5293H117.014V76.4532H122.26V71.5293Z" fill="#FAFAFA"/>
<path d="M128.92 77.8613H123.675V83.4893H128.92V77.8613Z" fill="#FAFAFA"/>
<path d="M122.259 70.1158V64.5312C120.868 64.6985 119.581 65.3502 118.624 66.3717C117.667 67.3933 117.102 68.7191 117.028 70.1158H122.259Z" fill="#FAFAFA"/>
<path d="M122.26 77.8613H117.014V83.4893H122.26V77.8613Z" fill="#FAFAFA"/>
<path d="M60.7685 62.1298H53.3448V65.6503H60.7685V62.1298Z" fill="#EBEBEB"/>
<path d="M60.7685 66.5908H53.3448V70.1113H60.7685V66.5908Z" fill="#EBEBEB"/>
<path d="M60.7685 71.0519H53.3448V74.5724H60.7685V71.0519Z" fill="#EBEBEB"/>
<path d="M60.7684 75.5127H53.3447V79.0332H60.7684V75.5127Z" fill="#EBEBEB"/>
<path d="M60.7685 79.9734H53.3448V83.4939H60.7685V79.9734Z" fill="#EBEBEB"/>
<path d="M86.9666 62.1299H79.5429V65.6504H86.9666V62.1299Z" fill="#EBEBEB"/>
<path d="M86.9666 66.5908H79.5429V70.1113H86.9666V66.5908Z" fill="#EBEBEB"/>
<path d="M86.9666 71.0518H79.5429V74.5723H86.9666V71.0518Z" fill="#EBEBEB"/>
<path d="M86.9666 75.5127H79.5429V79.0332H86.9666V75.5127Z" fill="#EBEBEB"/>
<path d="M86.9666 79.9736H79.5429V83.4941H86.9666V79.9736Z" fill="#EBEBEB"/>
<path d="M113.599 62.1298H106.176V65.6503H113.599V62.1298Z" fill="#EBEBEB"/>
<path d="M113.599 66.5908H106.176V70.1113H113.599V66.5908Z" fill="#EBEBEB"/>
<path d="M113.599 71.0519H106.176V74.5724H113.599V71.0519Z" fill="#EBEBEB"/>
<path d="M113.599 75.5127H106.175V79.0332H113.599V75.5127Z" fill="#EBEBEB"/>
<path d="M113.599 79.9734H106.176V83.4939H113.599V79.9734Z" fill="#EBEBEB"/>
<path d="M131.499 38.7783H35.0101V61.0443H131.499V38.7783Z" fill="#F0F0F0"/>
<path d="M131.876 60.1436H34.643C34.2403 60.1448 33.8545 60.3054 33.5703 60.5902C33.286 60.8749 33.1263 61.2606 33.1263 61.6627C33.1276 62.0639 33.2878 62.4483 33.572 62.732C33.8561 63.0158 34.2411 63.1757 34.643 63.177H131.876C132.278 63.1757 132.664 63.0151 132.948 62.7303C133.233 62.4456 133.392 62.0599 133.392 61.6579C133.391 61.2566 133.231 60.8722 132.947 60.5885C132.662 60.3048 132.277 60.1448 131.876 60.1436Z" fill="#E0E0E0"/>
<path d="M44.2508 46.7788H49.4768C49.407 45.3805 48.8441 44.0519 47.8877 43.0281C46.9312 42.0043 45.643 41.3513 44.2508 41.1846V46.7788Z" fill="#FAFAFA"/>
<path d="M49.4961 48.1826H44.2508V53.1065H49.4961V48.1826Z" fill="#FAFAFA"/>
<path d="M42.8356 48.1826H37.5902V53.1065H42.8356V48.1826Z" fill="#FAFAFA"/>
<path d="M49.4963 54.5148H44.251V60.1428H49.4963V54.5148Z" fill="#FAFAFA"/>
<path d="M42.8358 46.7788V41.1846C41.4436 41.3513 40.1553 42.0043 39.1989 43.0281C38.2425 44.0519 37.6796 45.3805 37.6098 46.7788H42.8358Z" fill="#FAFAFA"/>
<path d="M42.8356 54.5146H37.5902V60.1426H42.8356V54.5146Z" fill="#FAFAFA"/>
<path d="M70.7228 46.7789H75.9537C75.8796 45.3822 75.3144 44.0564 74.3576 43.0348C73.4007 42.0133 72.1136 41.3615 70.7228 41.1943V46.7789Z" fill="#FAFAFA"/>
<path d="M75.9682 48.1826H70.7228V53.1065H75.9682V48.1826Z" fill="#FAFAFA"/>
<path d="M69.3135 48.1826H64.0681V53.1065H69.3135V48.1826Z" fill="#FAFAFA"/>
<path d="M75.9682 54.5146H70.7228V60.1426H75.9682V54.5146Z" fill="#FAFAFA"/>
<path d="M69.3079 46.7788V41.1846C67.9157 41.3513 66.6274 42.0043 65.671 43.0281C64.7146 44.0519 64.1517 45.3805 64.0818 46.7788H69.3079Z" fill="#FAFAFA"/>
<path d="M69.3137 54.5148H64.0683V60.1428H69.3137V54.5148Z" fill="#FAFAFA"/>
<path d="M97.2016 46.7789H102.413C102.341 45.3823 101.777 44.056 100.821 43.0342C99.8648 42.0124 98.5777 41.3608 97.1871 41.1943L97.2016 46.7789Z" fill="#FAFAFA"/>
<path d="M102.446 48.1826H97.2008V53.1065H102.446V48.1826Z" fill="#FAFAFA"/>
<path d="M95.7856 48.1826H90.5402V53.1065H95.7856V48.1826Z" fill="#FAFAFA"/>
<path d="M102.446 54.5146H97.2008V60.1426H102.446V54.5146Z" fill="#FAFAFA"/>
<path d="M95.7867 46.7788V41.1846C94.3944 41.3521 93.1061 42.0052 92.149 43.0287C91.192 44.0523 90.6277 45.3804 90.5558 46.7788H95.7867Z" fill="#FAFAFA"/>
<path d="M95.7856 54.5146H90.5402V60.1426H95.7856V54.5146Z" fill="#FAFAFA"/>
<path d="M123.665 46.7788H128.891C128.821 45.3805 128.258 44.0519 127.302 43.0281C126.345 42.0043 125.057 41.3513 123.665 41.1846V46.7788Z" fill="#FAFAFA"/>
<path d="M128.92 48.1826H123.675V53.1065H128.92V48.1826Z" fill="#FAFAFA"/>
<path d="M122.26 48.1826H117.014V53.1065H122.26V48.1826Z" fill="#FAFAFA"/>
<path d="M128.92 54.5146H123.675V60.1426H128.92V54.5146Z" fill="#FAFAFA"/>
<path d="M122.259 46.7788V41.1846C120.866 41.3521 119.578 42.0052 118.621 43.0287C117.664 44.0523 117.1 45.3804 117.028 46.7788H122.259Z" fill="#FAFAFA"/>
<path d="M122.26 54.5146H117.014V60.1426H122.26V54.5146Z" fill="#FAFAFA"/>
<path d="M60.7684 38.7783H53.3447V42.2988H60.7684V38.7783Z" fill="#EBEBEB"/>
<path d="M60.7684 43.2402H53.3447V46.7607H60.7684V43.2402Z" fill="#EBEBEB"/>
<path d="M60.7685 47.7003H53.3448V51.2208H60.7685V47.7003Z" fill="#EBEBEB"/>
<path d="M60.7685 52.1613H53.3448V55.6818H60.7685V52.1613Z" fill="#EBEBEB"/>
<path d="M60.7684 56.6221H53.3447V60.1426H60.7684V56.6221Z" fill="#EBEBEB"/>
<path d="M86.9666 38.7783H79.5429V42.2988H86.9666V38.7783Z" fill="#EBEBEB"/>
<path d="M86.9666 43.2402H79.5429V46.7607H86.9666V43.2402Z" fill="#EBEBEB"/>
<path d="M86.9666 47.7002H79.5429V51.2207H86.9666V47.7002Z" fill="#EBEBEB"/>
<path d="M86.9666 52.1611H79.5429V55.6816H86.9666V52.1611Z" fill="#EBEBEB"/>
<path d="M86.9666 56.6221H79.5429V60.1426H86.9666V56.6221Z" fill="#EBEBEB"/>
<path d="M113.599 38.7783H106.175V42.2988H113.599V38.7783Z" fill="#EBEBEB"/>
<path d="M113.599 43.2402H106.175V46.7607H113.599V43.2402Z" fill="#EBEBEB"/>
<path d="M113.599 47.7003H106.176V51.2208H113.599V47.7003Z" fill="#EBEBEB"/>
<path d="M113.599 52.1613H106.176V55.6818H113.599V52.1613Z" fill="#EBEBEB"/>
<path d="M113.599 56.6221H106.175V60.1426H113.599V56.6221Z" fill="#EBEBEB"/>
<path d="M133.382 40.3553H33.1263L34.5367 30.4834H131.967L133.382 40.3553Z" fill="#E0E0E0"/>
<path d="M131.967 30.484H34.2511L36.3184 16.4453H129.904L131.967 30.484Z" fill="#E0E0E0"/>
<path d="M76.7653 25.3576V30.9229H91.3422V25.3576H76.7653Z" fill="white"/>
<path d="M81.2674 35.418H86.8412V20.8633H81.2674V35.418Z" fill="white"/>
<path d="M176.269 74.4029C166.58 74.2437 156.243 72.8403 157.2 72.1989C159.958 70.347 161.745 72.1459 164.445 70.0866C165.006 69.6318 165.718 69.4031 166.439 69.4452C167.249 69.515 168.064 69.4079 168.828 69.1314C169.592 68.8549 170.287 68.4156 170.864 67.8441C171.105 67.5859 171.372 67.3532 171.661 67.1496C175.187 64.6467 179.91 66.2478 180.876 67.1496L181.055 67.3233C182.502 68.6629 184.395 69.419 186.368 69.4452H186.426C186.636 69.463 186.839 69.5322 187.016 69.6469C187.194 69.7616 187.34 69.9181 187.442 70.1027C187.544 70.2872 187.599 70.4941 187.602 70.7049C187.605 70.9158 187.556 71.1241 187.46 71.3116C187.46 71.3116 186.455 74.5668 176.269 74.4029Z" fill="#F5F5F5"/>
<path d="M207.851 59.974C198.167 59.8196 187.831 58.4163 188.783 57.7748C191.541 55.923 193.328 57.7218 196.028 55.6625C196.59 55.2102 197.301 54.9818 198.022 55.0211C198.833 55.0916 199.648 54.9844 200.413 54.7069C201.177 54.4295 201.871 53.9887 202.447 53.4152C202.689 53.1599 202.956 52.9289 203.244 52.7256C206.77 50.2226 211.498 51.8237 212.459 52.7256L212.638 52.8944C214.083 54.2373 215.977 54.9955 217.951 55.0211H218.004C218.215 55.037 218.42 55.105 218.598 55.2191C218.777 55.3332 218.924 55.4899 219.027 55.6749C219.13 55.8599 219.185 56.0676 219.188 56.2792C219.191 56.4909 219.141 56.6999 219.043 56.8875C219.043 56.8875 218.062 60.1428 207.851 59.974Z" fill="#F5F5F5"/>
<path d="M201.046 37.0812C193.101 32.0416 196.39 25.3864 185.214 25.3623C173.791 25.3333 177.761 34.424 170.033 34.8194C162.305 35.2149 163.715 31.2748 156.992 37.1825C150.269 43.0902 151.428 37.5779 145.883 40.3365C140.338 43.095 214.184 45.4195 201.046 37.0812Z" fill="#F5F5F5"/>
<path d="M122.705 177.815C175.229 177.815 217.807 175.092 217.807 171.734C217.807 168.375 175.229 165.652 122.705 165.652C70.1812 165.652 27.6023 168.375 27.6023 171.734C27.6023 175.092 70.1812 177.815 122.705 177.815Z" fill="#F5F5F5"/>
<path opacity="0.1" d="M77.9204 114.932C93.064 114.932 105.34 106.727 105.34 96.6062C105.34 86.4851 93.064 78.2803 77.9204 78.2803C62.7768 78.2803 50.5005 86.4851 50.5005 96.6062C50.5005 106.727 62.7768 114.932 77.9204 114.932Z" fill="#7676D9"/>
<path opacity="0.1" d="M77.9193 109.073C88.2213 109.073 96.5728 103.491 96.5728 96.6061C96.5728 89.7211 88.2213 84.1396 77.9193 84.1396C67.6173 84.1396 59.2659 89.7211 59.2659 96.6061C59.2659 103.491 67.6173 109.073 77.9193 109.073Z" fill="#7676D9"/>
<path opacity="0.1" d="M190.469 106.209C205.613 106.209 217.889 98.0037 217.889 87.8826C217.889 77.7614 205.613 69.5566 190.469 69.5566C175.326 69.5566 163.049 77.7614 163.049 87.8826C163.049 98.0037 175.326 106.209 190.469 106.209Z" fill="#7676D9"/>
<path opacity="0.1" d="M190.468 100.349C200.77 100.349 209.122 94.7675 209.122 87.8825C209.122 80.9974 200.77 75.416 190.468 75.416C180.166 75.416 171.815 80.9974 171.815 87.8825C171.815 94.7675 180.166 100.349 190.468 100.349Z" fill="#7676D9"/>
<path d="M77.9205 103.184H72.6944V103.884H77.9205V103.184Z" fill="#263238"/>
<path d="M72.7568 96.0813C72.9025 96.0818 73.048 96.0947 73.1915 96.1199C73.2465 96.0967 73.3057 96.0852 73.3654 96.0862H114.367C115.008 96.0862 115.622 96.3402 116.075 96.7924C116.528 97.2446 116.782 97.8579 116.782 98.4975V100.311C116.782 100.95 116.528 101.564 116.075 102.016C115.622 102.468 115.008 102.722 114.367 102.722H73.3702C73.307 102.722 73.2444 102.709 73.1867 102.683C73.0447 102.709 72.9009 102.721 72.7568 102.722H68.6803C68.3729 102.722 68.0685 102.662 67.7846 102.544C67.5006 102.426 67.2427 102.254 67.0256 102.037C66.8084 101.819 66.6363 101.562 66.5191 101.278C66.4019 100.994 66.3419 100.69 66.3426 100.383V98.4058C66.3426 97.7868 66.5889 97.1931 67.0273 96.7553C67.4657 96.3176 68.0603 96.0717 68.6803 96.0717H72.7568M72.7568 95.5557H68.6803C67.9241 95.5569 67.1992 95.8578 66.665 96.3922C66.1307 96.9265 65.8306 97.6507 65.8306 98.4058V100.383C65.8306 101.139 66.1305 101.863 66.6647 102.398C67.1988 102.934 67.9236 103.236 68.6803 103.238H72.7568C72.8861 103.238 73.0153 103.228 73.1432 103.209C73.2173 103.229 73.2936 103.238 73.3702 103.238H114.372C115.141 103.238 115.878 102.933 116.421 102.391C116.965 101.848 117.27 101.112 117.27 100.345V98.4975C117.27 97.73 116.965 96.994 116.421 96.4514C115.878 95.9087 115.141 95.6039 114.372 95.6039H73.3702C73.2987 95.6045 73.2275 95.6126 73.1577 95.628C73.0249 95.6088 72.891 95.5991 72.7568 95.5991V95.5557Z" fill="#7676D9"/>
<path opacity="0.4" d="M116.73 98.4778V100.31C116.73 100.95 116.475 101.563 116.023 102.015C115.57 102.468 114.955 102.722 114.315 102.722H73.3275C73.2077 102.716 73.0944 102.666 73.0096 102.581C72.9248 102.496 72.8745 102.383 72.8687 102.264V96.5246C72.8757 96.4058 72.9264 96.2939 73.0111 96.2102C73.0958 96.1265 73.2085 96.077 73.3275 96.0713H114.329C114.966 96.0751 115.576 96.3302 116.026 96.7809C116.476 97.2317 116.729 97.8416 116.73 98.4778Z" fill="#7676D9"/>
<path opacity="0.6" d="M110.421 96.0811H114.488C115.108 96.0811 115.703 96.327 116.141 96.7647C116.579 97.2025 116.826 97.7962 116.826 98.4152V100.393C116.824 101.011 116.577 101.603 116.139 102.04C115.701 102.477 115.107 102.722 114.488 102.722H110.411C109.79 102.722 109.194 102.475 108.755 102.037C108.316 101.598 108.069 101.003 108.069 100.383V98.4056C108.073 97.7861 108.322 97.1934 108.763 96.7576C109.204 96.3218 109.801 96.0785 110.421 96.0811Z" fill="white"/>
<g opacity="0.6">
<path d="M116.829 98.4206V100.393C116.849 100.692 116.808 100.992 116.707 101.275C116.606 101.557 116.448 101.815 116.243 102.034C116.038 102.253 115.79 102.428 115.514 102.547C115.239 102.666 114.942 102.728 114.641 102.728C114.341 102.728 114.044 102.666 113.769 102.547C113.493 102.428 113.245 102.253 113.04 102.034C112.835 101.815 112.677 101.557 112.576 101.275C112.475 100.992 112.434 100.692 112.453 100.393V98.4206C112.434 98.1215 112.475 97.8216 112.576 97.5392C112.677 97.2569 112.835 96.9983 113.04 96.7795C113.245 96.5606 113.493 96.3861 113.769 96.2668C114.044 96.1475 114.341 96.0859 114.641 96.0859C114.942 96.0859 115.239 96.1475 115.514 96.2668C115.79 96.3861 116.038 96.5606 116.243 96.7795C116.448 96.9983 116.606 97.2569 116.707 97.5392C116.808 97.8216 116.849 98.1215 116.829 98.4206Z" fill="#7676D9"/>
</g>
<g opacity="0.4">
<g opacity="0.6">
<path d="M116.829 98.4197V100.392C116.849 100.691 116.808 100.991 116.707 101.274C116.606 101.556 116.448 101.814 116.243 102.033C116.038 102.252 115.79 102.427 115.514 102.546C115.239 102.665 114.942 102.727 114.641 102.727C114.341 102.727 114.044 102.665 113.769 102.546C113.493 102.427 113.245 102.252 113.04 102.033C112.835 101.814 112.677 101.556 112.576 101.274C112.475 100.991 112.434 100.691 112.453 100.392V98.4197C112.434 98.1206 112.475 97.8206 112.576 97.5383C112.677 97.256 112.835 96.9974 113.04 96.7785C113.245 96.5596 113.493 96.3851 113.769 96.2658C114.044 96.1465 114.341 96.085 114.641 96.085C114.942 96.085 115.239 96.1465 115.514 96.2658C115.79 96.3851 116.038 96.5596 116.243 96.7785C116.448 96.9974 116.606 97.256 116.707 97.5383C116.808 97.8206 116.849 98.1206 116.829 98.4197Z" fill="#7676D9"/>
</g>
</g>
<g opacity="0.6">
<path d="M79.4278 98.4201V100.393C79.4284 100.7 79.3684 101.004 79.2513 101.287C79.1341 101.571 78.962 101.829 78.7448 102.046C78.5277 102.263 78.2698 102.436 77.9858 102.553C77.7019 102.671 77.3975 102.732 77.0901 102.732H72.8687C73.4611 102.691 74.0161 102.428 74.4214 101.994C74.8266 101.561 75.052 100.99 75.0518 100.397V98.425C75.0531 97.8317 74.8282 97.2603 74.4227 96.8267C74.0171 96.3932 73.4615 96.13 72.8687 96.0908H77.0901C77.3969 96.0902 77.7007 96.15 77.9843 96.2668C78.2679 96.3835 78.5257 96.555 78.7428 96.7714C78.96 96.9877 79.1322 97.2447 79.2498 97.5276C79.3673 97.8106 79.4278 98.1138 79.4278 98.4201Z" fill="white"/>
</g>
<path d="M75.0509 98.4206V100.393C75.0708 100.692 75.029 100.992 74.928 101.275C74.8271 101.557 74.6692 101.815 74.464 102.034C74.2589 102.253 74.0109 102.428 73.7355 102.547C73.4601 102.666 73.1631 102.728 72.8629 102.728C72.5626 102.728 72.2656 102.666 71.9902 102.547C71.7148 102.428 71.4668 102.253 71.2617 102.034C71.0566 101.815 70.8987 101.557 70.7977 101.275C70.6968 100.992 70.655 100.692 70.6749 100.393V98.4206C70.655 98.1215 70.6968 97.8216 70.7977 97.5392C70.8987 97.2569 71.0566 96.9983 71.2617 96.7795C71.4668 96.5606 71.7148 96.3861 71.9902 96.2668C72.2656 96.1475 72.5626 96.0859 72.8629 96.0859C73.1631 96.0859 73.4601 96.1475 73.7355 96.2668C74.0109 96.3861 74.2589 96.5606 74.464 96.7795C74.6692 96.9983 74.8271 97.2569 74.928 97.5392C75.029 97.8216 75.0708 98.1215 75.0509 98.4206Z" fill="#7676D9"/>
<g opacity="0.3">
<path d="M75.0509 98.4206V100.393C75.0708 100.692 75.029 100.992 74.928 101.275C74.8271 101.557 74.6692 101.815 74.464 102.034C74.2589 102.253 74.0109 102.428 73.7355 102.547C73.4601 102.666 73.1631 102.728 72.8629 102.728C72.5626 102.728 72.2656 102.666 71.9902 102.547C71.7148 102.428 71.4668 102.253 71.2617 102.034C71.0566 101.815 70.8987 101.557 70.7977 101.275C70.6968 100.992 70.655 100.692 70.6749 100.393V98.4206C70.655 98.1215 70.6968 97.8216 70.7977 97.5392C70.8987 97.2569 71.0566 96.9983 71.2617 96.7795C71.4668 96.5606 71.7148 96.3861 71.9902 96.2668C72.2656 96.1475 72.5626 96.0859 72.8629 96.0859C73.1631 96.0859 73.4601 96.1475 73.7355 96.2668C74.0109 96.3861 74.2589 96.5606 74.464 96.7795C74.6692 96.9983 74.8271 97.2569 74.928 97.5392C75.029 97.8216 75.0708 98.1215 75.0509 98.4206Z" fill="white"/>
</g>
<path d="M68.6378 96.0811H72.7143C73.3356 96.0811 73.9314 96.3275 74.3707 96.7661C74.8101 97.2048 75.0569 97.7997 75.0569 98.42V100.397C75.0569 101.016 74.8106 101.61 74.3722 102.048C73.9338 102.486 73.3391 102.731 72.7191 102.731H68.6426C68.0213 102.731 67.4255 102.485 66.9862 102.046C66.5469 101.608 66.3001 101.013 66.3001 100.392V98.4152C66.3001 97.7962 66.5464 97.2024 66.9848 96.7647C67.4232 96.327 68.0178 96.0811 68.6378 96.0811Z" fill="#7676D9"/>
<g opacity="0.4">
<path d="M68.6358 96.0811H72.7124C73.3336 96.0811 73.9295 96.3275 74.3688 96.7661C74.8081 97.2048 75.0549 97.7997 75.0549 98.42V100.397C75.0549 101.016 74.8086 101.61 74.3702 102.048C73.9318 102.486 73.3372 102.731 72.7172 102.731H68.6407C68.0194 102.731 67.4236 102.485 66.9842 102.046C66.5449 101.608 66.2981 101.013 66.2981 100.392V98.4152C66.2981 97.7962 66.5444 97.2024 66.9828 96.7647C67.4212 96.327 68.0158 96.0811 68.6358 96.0811Z" fill="white"/>
</g>
<path d="M90.4212 98.4201V100.393C90.4218 100.7 90.3618 101.004 90.2446 101.287C90.1274 101.571 89.9553 101.829 89.7382 102.046C89.5211 102.263 89.2631 102.436 88.9792 102.553C88.6953 102.671 88.3909 102.732 88.0835 102.732H83.8621C84.4545 102.691 85.0094 102.428 85.4147 101.994C85.82 101.561 86.0454 100.99 86.0452 100.397V98.425C86.0465 97.8317 85.8216 97.2603 85.416 96.8267C85.0105 96.3932 84.4549 96.13 83.8621 96.0908H88.0835C88.3902 96.0902 88.6941 96.15 88.9777 96.2668C89.2613 96.3835 89.5191 96.555 89.7362 96.7714C89.9533 96.9877 90.1256 97.2447 90.2431 97.5276C90.3607 97.8106 90.4212 98.1138 90.4212 98.4201Z" fill="#7676D9"/>
<g opacity="0.5">
<path d="M97.2598 98.4201V100.393C97.2604 100.7 97.2002 101.004 97.0827 101.288C96.9652 101.573 96.7927 101.831 96.5751 102.048C96.3574 102.265 96.0989 102.438 95.8144 102.555C95.5299 102.672 95.225 102.732 94.9172 102.732H90.7006C91.293 102.691 91.848 102.428 92.2533 101.994C92.6586 101.561 92.8839 100.99 92.8838 100.397V98.425C92.8851 97.8317 92.6601 97.2603 92.2546 96.8267C91.8491 96.3932 91.2935 96.13 90.7006 96.0908H94.9172C95.2242 96.0902 95.5283 96.1499 95.8122 96.2667C96.096 96.3834 96.3541 96.5548 96.5716 96.7711C96.7892 96.9874 96.9619 97.2443 97.08 97.5273C97.198 97.8102 97.2591 98.1136 97.2598 98.4201Z" fill="white"/>
</g>
<path d="M86.0438 98.4199V100.392C86.0684 100.694 86.0302 100.997 85.9315 101.283C85.8328 101.569 85.6759 101.832 85.4705 102.054C85.2652 102.277 85.0159 102.454 84.7384 102.576C84.4609 102.697 84.1612 102.76 83.8582 102.76C83.5553 102.76 83.2556 102.697 82.9781 102.576C82.7006 102.454 82.4513 102.277 82.2459 102.054C82.0406 101.832 81.8836 101.569 81.7849 101.283C81.6863 100.997 81.648 100.694 81.6727 100.392V98.4199C81.648 98.1184 81.6863 97.8151 81.7849 97.529C81.8836 97.243 82.0406 96.9805 82.2459 96.7581C82.4513 96.5357 82.7006 96.3582 82.9781 96.2367C83.2556 96.1153 83.5553 96.0526 83.8582 96.0526C84.1612 96.0526 84.4609 96.1153 84.7384 96.2367C85.0159 96.3582 85.2652 96.5357 85.4705 96.7581C85.6759 96.9805 85.8328 97.243 85.9315 97.529C86.0302 97.8151 86.0684 98.1184 86.0438 98.4199Z" fill="#7676D9"/>
<g opacity="0.3">
<path d="M86.0437 98.42V100.392C86.0683 100.694 86.0301 100.997 85.9314 101.283C85.8328 101.569 85.6758 101.832 85.4705 102.054C85.2651 102.277 85.0158 102.454 84.7383 102.576C84.4608 102.697 84.1611 102.76 83.8582 102.76C83.5552 102.76 83.2555 102.697 82.978 102.576C82.7005 102.454 82.4512 102.277 82.2459 102.054C82.0405 101.832 81.8836 101.569 81.7849 101.283C81.6862 100.997 81.648 100.694 81.6726 100.392V98.42C81.648 98.1185 81.6862 97.8152 81.7849 97.5292C81.8836 97.2431 82.0405 96.9806 82.2459 96.7582C82.4512 96.5358 82.7005 96.3583 82.978 96.2368C83.2555 96.1154 83.5552 96.0527 83.8582 96.0527C84.1611 96.0527 84.4608 96.1154 84.7383 96.2368C85.0158 96.3583 85.2651 96.5358 85.4705 96.7582C85.6758 96.9806 85.8328 97.2431 85.9314 97.5292C86.0301 97.8152 86.0683 98.1185 86.0437 98.42Z" fill="white"/>
</g>
<path d="M106.175 98.42V100.392C106.174 101.007 105.93 101.595 105.497 102.031C105.064 102.467 104.476 102.715 103.861 102.722H99.64C100.233 102.682 100.788 102.418 101.194 101.985C101.601 101.552 101.827 100.981 101.828 100.388V98.4152C101.828 97.8215 101.602 97.2501 101.196 96.8166C100.789 96.3832 100.233 96.1202 99.64 96.0811H103.861C104.479 96.0862 105.068 96.3351 105.502 96.7735C105.936 97.2119 106.178 97.8039 106.175 98.42Z" fill="#7676D9"/>
<path d="M101.805 98.4206V100.393C101.824 100.692 101.783 100.992 101.682 101.275C101.581 101.557 101.423 101.815 101.218 102.034C101.013 102.253 100.765 102.428 100.489 102.547C100.214 102.666 99.9168 102.728 99.6166 102.728C99.3164 102.728 99.0193 102.666 98.7439 102.547C98.4685 102.428 98.2206 102.253 98.0154 102.034C97.8103 101.815 97.6524 101.557 97.5514 101.275C97.4505 100.992 97.4087 100.692 97.4286 100.393V98.4206C97.4087 98.1215 97.4505 97.8216 97.5514 97.5392C97.6524 97.2569 97.8103 96.9983 98.0154 96.7795C98.2206 96.5606 98.4685 96.3861 98.7439 96.2668C99.0193 96.1475 99.3164 96.0859 99.6166 96.0859C99.9168 96.0859 100.214 96.1475 100.489 96.2668C100.765 96.3861 101.013 96.5606 101.218 96.7795C101.423 96.9983 101.581 97.2569 101.682 97.5392C101.783 97.8216 101.824 98.1215 101.805 98.4206Z" fill="#7676D9"/>
<g opacity="0.3">
<path d="M101.805 98.4206V100.393C101.824 100.692 101.783 100.992 101.682 101.275C101.581 101.557 101.423 101.815 101.218 102.034C101.013 102.253 100.765 102.428 100.489 102.547C100.214 102.666 99.9168 102.728 99.6166 102.728C99.3164 102.728 99.0193 102.666 98.7439 102.547C98.4685 102.428 98.2206 102.253 98.0154 102.034C97.8103 101.815 97.6524 101.557 97.5514 101.275C97.4505 100.992 97.4087 100.692 97.4286 100.393V98.4206C97.4087 98.1215 97.4505 97.8216 97.5514 97.5392C97.6524 97.2569 97.8103 96.9983 98.0154 96.7795C98.2206 96.5606 98.4685 96.3861 98.7439 96.2668C99.0193 96.1475 99.3164 96.0859 99.6166 96.0859C99.9168 96.0859 100.214 96.1475 100.489 96.2668C100.765 96.3861 101.013 96.5606 101.218 96.7795C101.423 96.9983 101.581 97.2569 101.682 97.5392C101.783 97.8216 101.824 98.1215 101.805 98.4206Z" fill="white"/>
</g>
<path d="M171.811 86.3921C171.956 86.3926 172.102 86.4055 172.245 86.4307C172.3 86.4071 172.359 86.3956 172.419 86.3969H213.416C214.057 86.3969 214.671 86.651 215.124 87.1032C215.577 87.5554 215.831 88.1687 215.831 88.8082V90.665C215.831 91.3045 215.577 91.9178 215.124 92.37C214.671 92.8222 214.057 93.0763 213.416 93.0763H172.448C172.383 93.0768 172.318 93.0619 172.26 93.0329C172.12 93.0621 171.978 93.0766 171.835 93.0763H167.758C167.451 93.0763 167.146 93.0157 166.863 92.8981C166.579 92.7805 166.321 92.6082 166.104 92.3909C165.886 92.1736 165.714 91.9158 165.597 91.632C165.48 91.3483 165.42 91.0442 165.421 90.7373V88.7359C165.421 88.1169 165.667 87.5232 166.105 87.0854C166.544 86.6477 167.138 86.4018 167.758 86.4018H171.835M171.835 85.8857H167.758C167.002 85.887 166.276 86.1877 165.741 86.7219C165.206 87.2562 164.905 87.9804 164.904 88.7359V90.7132C164.905 91.4687 165.206 92.1929 165.741 92.7271C166.276 93.2614 167.002 93.5621 167.758 93.5633H171.835C171.964 93.5648 172.093 93.5567 172.221 93.5392C172.295 93.557 172.372 93.5651 172.448 93.5633H213.445C214.214 93.5633 214.951 93.2585 215.494 92.7158C216.038 92.1732 216.343 91.4372 216.343 90.6698V88.8227C216.343 88.0553 216.038 87.3193 215.494 86.7767C214.951 86.234 214.214 85.9291 213.445 85.9291H172.448C172.376 85.9218 172.303 85.9218 172.231 85.9291C172.1 85.9101 171.967 85.9004 171.835 85.9002V85.8857Z" fill="#7676D9"/>
<path opacity="0.4" d="M215.782 88.7895V90.6366C215.782 91.2761 215.527 91.8894 215.074 92.3417C214.621 92.7939 214.007 93.0479 213.367 93.0479H172.379C172.26 93.0422 172.147 92.9927 172.063 92.909C171.978 92.8253 171.927 92.7134 171.92 92.5946V86.8557C171.927 86.7369 171.978 86.6249 172.063 86.5412C172.147 86.4576 172.26 86.4081 172.379 86.4023H213.376C214.011 86.4048 214.619 86.6567 215.069 87.1034C215.519 87.5502 215.775 88.1559 215.782 88.7895Z" fill="#7676D9"/>
<path opacity="0.6" d="M209.469 86.3926H213.546C214.167 86.3926 214.763 86.639 215.202 87.0777C215.641 87.5163 215.888 88.1112 215.888 88.7316V90.7088C215.888 91.3292 215.641 91.9241 215.202 92.3627C214.763 92.8014 214.167 93.0478 213.546 93.0478H209.469C208.848 93.0478 208.252 92.8014 207.813 92.3627C207.373 91.9241 207.126 91.3292 207.126 90.7088V88.7364C207.125 88.4286 207.185 88.1237 207.302 87.8391C207.419 87.5544 207.592 87.2958 207.809 87.0779C208.027 86.8601 208.286 86.6874 208.571 86.5698C208.856 86.4522 209.161 86.3919 209.469 86.3926Z" fill="white"/>
<g opacity="0.6">
<path d="M215.883 88.7371V90.7143C215.903 91.0134 215.861 91.3134 215.76 91.5957C215.659 91.878 215.501 92.1366 215.296 92.3555C215.091 92.5744 214.843 92.7489 214.568 92.8682C214.292 92.9875 213.995 93.049 213.695 93.049C213.395 93.049 213.098 92.9875 212.822 92.8682C212.547 92.7489 212.299 92.5744 212.094 92.3555C211.889 92.1366 211.731 91.878 211.63 91.5957C211.529 91.3134 211.487 91.0134 211.507 90.7143V88.7371C211.487 88.438 211.529 88.138 211.63 87.8556C211.731 87.5733 211.889 87.3147 212.094 87.0959C212.299 86.877 212.547 86.7025 212.822 86.5832C213.098 86.4639 213.395 86.4023 213.695 86.4023C213.995 86.4023 214.292 86.4639 214.568 86.5832C214.843 86.7025 215.091 86.877 215.296 87.0959C215.501 87.3147 215.659 87.5733 215.76 87.8556C215.861 88.138 215.903 88.438 215.883 88.7371Z" fill="#7676D9"/>
</g>
<g opacity="0.4">
<g opacity="0.6">
<path d="M215.883 88.7371V90.7143C215.903 91.0134 215.861 91.3134 215.76 91.5957C215.659 91.878 215.501 92.1366 215.296 92.3555C215.091 92.5744 214.843 92.7489 214.568 92.8682C214.292 92.9875 213.995 93.049 213.695 93.049C213.395 93.049 213.098 92.9875 212.822 92.8682C212.547 92.7489 212.299 92.5744 212.094 92.3555C211.889 92.1366 211.731 91.878 211.63 91.5957C211.529 91.3134 211.487 91.0134 211.507 90.7143V88.7371C211.487 88.438 211.529 88.138 211.63 87.8556C211.731 87.5733 211.889 87.3147 212.094 87.0959C212.299 86.877 212.547 86.7025 212.822 86.5832C213.098 86.4639 213.395 86.4023 213.695 86.4023C213.995 86.4023 214.292 86.4639 214.568 86.5832C214.843 86.7025 215.091 86.877 215.296 87.0959C215.501 87.3147 215.659 87.5733 215.76 87.8556C215.861 88.138 215.903 88.438 215.883 88.7371Z" fill="#7676D9"/>
</g>
</g>
<g opacity="0.6">
<path d="M178.479 88.7356V90.7129C178.479 91.0198 178.419 91.3237 178.301 91.6072C178.183 91.8907 178.011 92.1483 177.793 92.3651C177.575 92.5819 177.317 92.7537 177.033 92.8707C176.749 92.9877 176.444 93.0477 176.137 93.047H171.92C172.512 93.0079 173.067 92.7454 173.473 92.3129C173.878 91.8803 174.104 91.3101 174.103 90.7177V88.7356C174.104 88.1432 173.878 87.573 173.473 87.1404C173.067 86.7079 172.512 86.4454 171.92 86.4063H176.137C176.444 86.405 176.748 86.4643 177.033 86.5808C177.317 86.6973 177.575 86.8687 177.793 87.0851C178.01 87.3015 178.183 87.5587 178.301 87.842C178.419 88.1252 178.479 88.4289 178.479 88.7356Z" fill="white"/>
</g>
<path d="M174.104 88.7361V90.7134C174.124 91.0125 174.083 91.3124 173.982 91.5948C173.881 91.8771 173.723 92.1357 173.518 92.3546C173.312 92.5734 173.065 92.7479 172.789 92.8672C172.514 92.9865 172.217 93.0481 171.916 93.0481C171.616 93.0481 171.319 92.9865 171.044 92.8672C170.768 92.7479 170.52 92.5734 170.315 92.3546C170.11 92.1357 169.952 91.8771 169.851 91.5948C169.75 91.3124 169.709 91.0125 169.728 90.7134V88.7361C169.709 88.437 169.75 88.137 169.851 87.8547C169.952 87.5724 170.11 87.3138 170.315 87.0949C170.52 86.876 170.768 86.7015 171.044 86.5822C171.319 86.4629 171.616 86.4014 171.916 86.4014C172.217 86.4014 172.514 86.4629 172.789 86.5822C173.065 86.7015 173.312 86.876 173.518 87.0949C173.723 87.3138 173.881 87.5724 173.982 87.8547C174.083 88.137 174.124 88.437 174.104 88.7361Z" fill="#7676D9"/>
<g opacity="0.3">
<path d="M174.104 88.7371V90.7143C174.124 91.0134 174.083 91.3134 173.982 91.5957C173.881 91.878 173.723 92.1366 173.518 92.3555C173.312 92.5744 173.065 92.7489 172.789 92.8682C172.514 92.9875 172.217 93.049 171.916 93.049C171.616 93.049 171.319 92.9875 171.044 92.8682C170.768 92.7489 170.52 92.5744 170.315 92.3555C170.11 92.1366 169.952 91.878 169.851 91.5957C169.75 91.3134 169.709 91.0134 169.728 90.7143V88.7371C169.709 88.438 169.75 88.138 169.851 87.8556C169.952 87.5733 170.11 87.3147 170.315 87.0959C170.52 86.877 170.768 86.7025 171.044 86.5832C171.319 86.4639 171.616 86.4023 171.916 86.4023C172.217 86.4023 172.514 86.4639 172.789 86.5832C173.065 86.7025 173.312 86.877 173.518 87.0959C173.723 87.3147 173.881 87.5733 173.982 87.8556C174.083 88.138 174.124 88.438 174.104 88.7371Z" fill="white"/>
</g>
<path d="M167.689 86.3926H171.766C172.387 86.3926 172.983 86.639 173.422 87.0776C173.862 87.5163 174.108 88.1112 174.108 88.7316V90.7088C174.108 91.3279 173.862 91.9216 173.424 92.3593C172.985 92.797 172.391 93.043 171.771 93.043H167.694C167.387 93.043 167.082 92.9825 166.798 92.8649C166.514 92.7474 166.255 92.5751 166.038 92.3579C165.82 92.1407 165.648 91.8829 165.53 91.5991C165.412 91.3153 165.352 91.0112 165.352 90.704V88.7364C165.35 88.429 165.41 88.1245 165.527 87.8402C165.644 87.5559 165.816 87.2974 166.033 87.0796C166.25 86.8619 166.508 86.6891 166.793 86.5712C167.077 86.4533 167.382 86.3926 167.689 86.3926Z" fill="#7676D9"/>
<g opacity="0.4">
<path d="M167.691 86.3926H171.768C172.389 86.3926 172.985 86.639 173.424 87.0776C173.864 87.5163 174.11 88.1112 174.11 88.7316V90.7088C174.11 91.3279 173.864 91.9216 173.426 92.3593C172.987 92.797 172.393 93.043 171.773 93.043H167.696C167.389 93.043 167.084 92.9825 166.8 92.8649C166.516 92.7474 166.257 92.5751 166.04 92.3579C165.822 92.1407 165.65 91.8829 165.532 91.5991C165.414 91.3153 165.354 91.0112 165.354 90.704V88.7364C165.352 88.429 165.412 88.1245 165.529 87.8402C165.646 87.5559 165.818 87.2974 166.035 87.0796C166.252 86.8619 166.51 86.6891 166.795 86.5712C167.079 86.4533 167.384 86.3926 167.691 86.3926Z" fill="white"/>
</g>
<path d="M189.473 88.7356V90.7129C189.473 91.3319 189.227 91.9256 188.788 92.3633C188.35 92.8011 187.755 93.047 187.135 93.047H182.914C183.506 93.0078 184.061 92.7454 184.466 92.3129C184.871 91.8803 185.097 91.3101 185.097 90.7177V88.7356C185.097 88.1432 184.871 87.5729 184.466 87.1404C184.061 86.7079 183.506 86.4454 182.914 86.4063H187.135C187.442 86.4056 187.746 86.4654 188.029 86.5822C188.313 86.699 188.571 86.8704 188.788 87.0868C189.005 87.3032 189.177 87.5601 189.295 87.8431C189.412 88.126 189.473 88.4293 189.473 88.7356Z" fill="#7676D9"/>
<g opacity="0.5">
<path d="M196.307 88.7356V90.7129C196.307 91.3319 196.061 91.9256 195.623 92.3633C195.184 92.8011 194.59 93.047 193.97 93.047H189.748C190.341 93.0079 190.896 92.7456 191.302 92.3132C191.709 91.8808 191.935 91.3105 191.936 90.7177V88.7356C191.935 88.1427 191.709 87.5725 191.302 87.1401C190.896 86.7076 190.341 86.4454 189.748 86.4063H193.97C194.277 86.4056 194.58 86.4654 194.864 86.5822C195.148 86.699 195.405 86.8704 195.622 87.0868C195.84 87.3032 196.012 87.5601 196.129 87.8431C196.247 88.126 196.307 88.4293 196.307 88.7356Z" fill="white"/>
</g>
<path d="M185.098 88.7362V90.7135C185.118 91.0126 185.076 91.3126 184.975 91.5949C184.874 91.8772 184.716 92.1358 184.511 92.3547C184.306 92.5736 184.058 92.748 183.782 92.8673C183.507 92.9866 183.21 93.0482 182.91 93.0482C182.61 93.0482 182.313 92.9866 182.037 92.8673C181.762 92.748 181.514 92.5736 181.309 92.3547C181.104 92.1358 180.946 91.8772 180.845 91.5949C180.744 91.3126 180.702 91.0126 180.722 90.7135V88.7362C180.702 88.4371 180.744 88.1371 180.845 87.8548C180.946 87.5725 181.104 87.3139 181.309 87.095C181.514 86.8761 181.762 86.7016 182.037 86.5823C182.313 86.463 182.61 86.4015 182.91 86.4015C183.21 86.4015 183.507 86.463 183.782 86.5823C184.058 86.7016 184.306 86.8761 184.511 87.095C184.716 87.3139 184.874 87.5725 184.975 87.8548C185.076 88.1371 185.118 88.4371 185.098 88.7362Z" fill="#7676D9"/>
<g opacity="0.3">
<path d="M185.098 88.7371V90.7143C185.118 91.0134 185.076 91.3134 184.975 91.5957C184.874 91.878 184.716 92.1366 184.511 92.3555C184.306 92.5744 184.058 92.7489 183.782 92.8682C183.507 92.9875 183.21 93.049 182.91 93.049C182.61 93.049 182.313 92.9875 182.037 92.8682C181.762 92.7489 181.514 92.5744 181.309 92.3555C181.104 92.1366 180.946 91.878 180.845 91.5957C180.744 91.3134 180.702 91.0134 180.722 90.7143V88.7371C180.702 88.438 180.744 88.138 180.845 87.8556C180.946 87.5733 181.104 87.3147 181.309 87.0959C181.514 86.877 181.762 86.7025 182.037 86.5832C182.313 86.4639 182.61 86.4023 182.91 86.4023C183.21 86.4023 183.507 86.4639 183.782 86.5832C184.058 86.7025 184.306 86.877 184.511 87.0959C184.716 87.3147 184.874 87.5733 184.975 87.8556C185.076 88.138 185.118 88.438 185.098 88.7371Z" fill="white"/>
</g>
<path d="M205.229 88.7357V90.7129C205.229 91.332 204.983 91.9257 204.545 92.3634C204.106 92.8012 203.512 93.0471 202.892 93.0471H198.67C199.262 93.0079 199.817 92.7455 200.222 92.3129C200.628 91.8804 200.853 91.3101 200.853 90.7178V88.7357C200.853 88.1433 200.628 87.573 200.222 87.1405C199.817 86.7079 199.262 86.4455 198.67 86.4063H202.877C203.185 86.4038 203.491 86.4622 203.776 86.5781C204.061 86.694 204.321 86.8652 204.539 87.0817C204.758 87.2983 204.931 87.5559 205.05 87.8398C205.168 88.1237 205.229 88.4281 205.229 88.7357Z" fill="#7676D9"/>
<path d="M200.852 88.7361V90.7134C200.872 91.0125 200.83 91.3124 200.729 91.5948C200.629 91.8771 200.471 92.1357 200.265 92.3546C200.06 92.5734 199.812 92.7479 199.537 92.8672C199.262 92.9865 198.965 93.0481 198.664 93.0481C198.364 93.0481 198.067 92.9865 197.792 92.8672C197.516 92.7479 197.268 92.5734 197.063 92.3546C196.858 92.1357 196.7 91.8771 196.599 91.5948C196.498 91.3124 196.456 91.0125 196.476 90.7134V88.7361C196.456 88.437 196.498 88.137 196.599 87.8547C196.7 87.5724 196.858 87.3138 197.063 87.0949C197.268 86.876 197.516 86.7015 197.792 86.5822C198.067 86.4629 198.364 86.4014 198.664 86.4014C198.965 86.4014 199.262 86.4629 199.537 86.5822C199.812 86.7015 200.06 86.876 200.265 87.0949C200.471 87.3138 200.629 87.5724 200.729 87.8547C200.83 88.137 200.872 88.437 200.852 88.7361Z" fill="#7676D9"/>
<g opacity="0.3">
<path d="M200.854 88.7371V90.7143C200.874 91.0134 200.832 91.3134 200.731 91.5957C200.63 91.878 200.473 92.1366 200.267 92.3555C200.062 92.5744 199.814 92.7489 199.539 92.8682C199.264 92.9875 198.966 93.049 198.666 93.049C198.366 93.049 198.069 92.9875 197.794 92.8682C197.518 92.7489 197.27 92.5744 197.065 92.3555C196.86 92.1366 196.702 91.878 196.601 91.5957C196.5 91.3134 196.458 91.0134 196.478 90.7143V88.7371C196.458 88.438 196.5 88.138 196.601 87.8556C196.702 87.5733 196.86 87.3147 197.065 87.0959C197.27 86.877 197.518 86.7025 197.794 86.5832C198.069 86.4639 198.366 86.4023 198.666 86.4023C198.966 86.4023 199.264 86.4639 199.539 86.5832C199.814 86.7025 200.062 86.877 200.267 87.0959C200.473 87.3147 200.63 87.5733 200.731 87.8556C200.832 88.138 200.874 88.438 200.854 88.7371Z" fill="white"/>
</g>
<path d="M168.005 168.749C172.892 168.749 176.854 164.361 176.854 158.949C176.854 153.537 172.892 149.149 168.005 149.149C163.118 149.149 159.157 153.537 159.157 158.949C159.157 164.361 163.118 168.749 168.005 168.749Z" fill="#263238"/>
<path opacity="0.2" d="M168.005 168.749C172.892 168.749 176.854 164.361 176.854 158.949C176.854 153.537 172.892 149.149 168.005 149.149C163.118 149.149 159.157 153.537 159.157 158.949C159.157 164.361 163.118 168.749 168.005 168.749Z" fill="black"/>
<path d="M164.744 168.749C169.631 168.749 173.593 164.361 173.593 158.949C173.593 153.537 169.631 149.149 164.744 149.149C159.857 149.149 155.896 153.537 155.896 158.949C155.896 164.361 159.857 168.749 164.744 168.749Z" fill="#263238"/>
<path d="M170.743 158.948C170.743 162.131 168.719 164.793 166.019 165.44C165.601 165.538 165.173 165.589 164.744 165.589C161.435 165.589 158.75 162.613 158.75 158.948C158.75 155.283 161.435 152.303 164.744 152.303C165.173 152.303 165.601 152.353 166.019 152.452C168.719 153.098 170.743 155.77 170.743 158.948Z" fill="white"/>
<path opacity="0.2" d="M170.743 158.948C170.743 162.131 168.719 164.793 166.019 165.439C163.315 164.793 161.291 162.131 161.291 158.948C161.291 155.765 163.315 153.098 166.019 152.452C168.719 153.098 170.743 155.77 170.743 158.948Z" fill="black"/>
<path opacity="0.5" d="M168.01 149.145C167.461 149.148 166.914 149.206 166.377 149.318C165.842 149.206 165.296 149.148 164.749 149.145C159.866 149.145 155.906 153.533 155.906 158.949C155.906 164.365 159.866 168.748 164.749 168.748C165.297 168.747 165.842 168.689 166.377 168.575C166.914 168.689 167.461 168.747 168.01 168.748C172.893 168.748 176.853 164.36 176.853 158.949C176.853 153.538 172.893 149.145 168.01 149.145Z" fill="black"/>
<path d="M85.1267 168.749C90.0137 168.749 93.9753 164.361 93.9753 158.949C93.9753 153.537 90.0137 149.149 85.1267 149.149C80.2398 149.149 76.2782 153.537 76.2782 158.949C76.2782 164.361 80.2398 168.749 85.1267 168.749Z" fill="#263238"/>
<path opacity="0.2" d="M85.1267 168.749C90.0137 168.749 93.9753 164.361 93.9753 158.949C93.9753 153.537 90.0137 149.149 85.1267 149.149C80.2398 149.149 76.2782 153.537 76.2782 158.949C76.2782 164.361 80.2398 168.749 85.1267 168.749Z" fill="black"/>
<path d="M81.8718 168.749C86.7587 168.749 90.7203 164.361 90.7203 158.949C90.7203 153.537 86.7587 149.149 81.8718 149.149C76.9849 149.149 73.0232 153.537 73.0232 158.949C73.0232 164.361 76.9849 168.749 81.8718 168.749Z" fill="#263238"/>
<path d="M87.8701 158.948C87.8701 162.131 85.8463 164.793 83.1463 165.44C82.7285 165.538 82.3006 165.588 81.8712 165.589C78.5627 165.589 75.8772 162.613 75.8772 158.948C75.8772 155.283 78.5627 152.303 81.8712 152.303C82.3006 152.303 82.7285 152.354 83.1463 152.452C85.8463 153.098 87.8701 155.77 87.8701 158.948Z" fill="white"/>
<path opacity="0.2" d="M87.8705 158.948C87.8705 162.131 85.8467 164.793 83.1467 165.439C80.4419 164.793 78.4182 162.131 78.4182 158.948C78.4182 155.765 80.4419 153.098 83.1467 152.452C85.8467 153.098 87.8705 155.77 87.8705 158.948Z" fill="black"/>
<path opacity="0.5" d="M85.1263 149.145C84.5793 149.149 84.034 149.207 83.4986 149.318C82.9631 149.206 82.4179 149.148 81.8708 149.145C76.9877 149.145 73.0271 153.533 73.0271 158.949C73.0271 164.365 76.9877 168.748 81.8708 168.748C82.418 168.747 82.9635 168.689 83.4986 168.575C84.0337 168.689 84.5791 168.747 85.1263 168.748C90.0142 168.748 93.9748 164.36 93.9748 158.949C93.9748 153.538 90.0142 149.145 85.1263 149.145Z" fill="black"/>
<path d="M116.734 161.568L120.98 158.949H139.025V144.939H118.126L116.734 161.568Z" fill="black"/>
<path d="M33.8853 161.568L38.1309 158.949H56.1758V144.939H35.2764L33.8853 161.568Z" fill="black"/>
<path d="M129.509 168.749C134.396 168.749 138.358 164.361 138.358 158.949C138.358 153.537 134.396 149.149 129.509 149.149C124.622 149.149 120.66 153.537 120.66 158.949C120.66 164.361 124.622 168.749 129.509 168.749Z" fill="#263238"/>
<path opacity="0.2" d="M129.509 168.749C134.396 168.749 138.358 164.361 138.358 158.949C138.358 153.537 134.396 149.149 129.509 149.149C124.622 149.149 120.66 153.537 120.66 158.949C120.66 164.361 124.622 168.749 129.509 168.749Z" fill="black"/>
<path d="M126.248 168.749C131.135 168.749 135.097 164.361 135.097 158.949C135.097 153.537 131.135 149.149 126.248 149.149C121.361 149.149 117.4 153.537 117.4 158.949C117.4 164.361 121.361 168.749 126.248 168.749Z" fill="#263238"/>
<path d="M132.244 158.944C132.264 160.078 132 161.2 131.475 162.206C130.951 163.213 130.182 164.073 129.239 164.707C128.711 165.044 128.13 165.292 127.52 165.44L127.216 165.507C126.896 165.559 126.573 165.587 126.25 165.589C122.941 165.589 120.256 162.614 120.256 158.944C120.256 155.274 122.941 152.303 126.25 152.303C126.556 152.301 126.861 152.327 127.162 152.38C127.283 152.38 127.404 152.423 127.52 152.452C128.107 152.593 128.667 152.829 129.177 153.152C130.136 153.78 130.921 154.64 131.457 155.653C131.994 156.666 132.264 157.798 132.244 158.944Z" fill="white"/>
<path opacity="0.3" d="M132.244 158.943C132.264 160.078 132 161.2 131.476 162.206C130.951 163.213 130.182 164.072 129.24 164.706C128.711 165.044 128.13 165.292 127.52 165.44L127.216 165.507C124.192 165.169 121.84 162.353 121.84 158.939C121.84 155.524 124.168 152.742 127.153 152.38C127.274 152.38 127.394 152.423 127.51 152.452C128.097 152.592 128.657 152.829 129.167 153.152C130.129 153.778 130.915 154.639 131.453 155.652C131.991 156.664 132.263 157.797 132.244 158.943Z" fill="black"/>
<path opacity="0.2" d="M132.242 158.944C132.262 160.078 131.998 161.2 131.474 162.207C130.949 163.213 130.18 164.073 129.237 164.707C129.039 164.76 128.846 164.808 128.643 164.842C128.366 164.893 128.085 164.917 127.803 164.914C127.559 164.915 127.315 164.899 127.074 164.866C126.167 164.728 125.314 164.348 124.606 163.766C124.161 163.416 123.775 162.998 123.461 162.527C122.908 161.718 122.557 160.789 122.437 159.817C122.394 159.524 122.373 159.229 122.374 158.934C122.373 158.636 122.394 158.337 122.437 158.042C122.563 157.071 122.915 156.142 123.466 155.332C123.781 154.865 124.165 154.448 124.606 154.097C125.317 153.519 126.171 153.143 127.078 153.007C127.318 152.968 127.56 152.949 127.803 152.949C128.083 152.952 128.362 152.976 128.639 153.022C128.82 153.052 128.999 153.096 129.175 153.152C130.134 153.78 130.919 154.64 131.455 155.653C131.992 156.666 132.262 157.798 132.242 158.944Z" fill="black"/>
<path opacity="0.2" d="M127.794 163.67C130.142 163.67 132.045 161.574 132.045 158.987C132.045 156.401 130.142 154.305 127.794 154.305C125.447 154.305 123.544 156.401 123.544 158.987C123.544 161.574 125.447 163.67 127.794 163.67Z" fill="black"/>
<path opacity="0.2" d="M130.514 159.04C130.463 159.566 130.26 160.066 129.929 160.479C129.598 160.892 129.155 161.2 128.652 161.366C128.15 161.532 127.61 161.549 127.098 161.414C126.586 161.28 126.124 161 125.768 160.608C125.413 160.216 125.179 159.73 125.094 159.208C125.01 158.686 125.08 158.151 125.295 157.668C125.509 157.185 125.86 156.774 126.304 156.486C126.747 156.198 127.266 156.045 127.795 156.045C128.553 156.084 129.264 156.42 129.774 156.982C130.284 157.543 130.55 158.283 130.514 159.04Z" fill="black"/>
<path d="M129.09 158.997C129.068 159.254 128.971 159.499 128.811 159.702C128.651 159.906 128.436 160.058 128.191 160.141C127.946 160.224 127.682 160.234 127.431 160.17C127.181 160.106 126.954 159.971 126.779 159.78C126.605 159.59 126.489 159.353 126.447 159.098C126.405 158.843 126.438 158.581 126.542 158.345C126.646 158.109 126.817 157.907 127.033 157.766C127.25 157.625 127.503 157.55 127.762 157.55C128.129 157.569 128.474 157.731 128.723 158.001C128.971 158.272 129.103 158.63 129.09 158.997Z" fill="black"/>
<path d="M128.64 153.022C128.582 153.181 128.476 153.319 128.337 153.417C128.198 153.515 128.033 153.569 127.863 153.571C127.691 153.567 127.524 153.511 127.384 153.41C127.245 153.309 127.139 153.169 127.08 153.007C127.32 152.968 127.562 152.949 127.805 152.949C128.085 152.949 128.365 152.973 128.64 153.022Z" fill="#263238"/>
<path d="M128.644 164.842C128.367 164.894 128.086 164.92 127.804 164.919C127.56 164.919 127.316 164.9 127.075 164.861C127.129 164.696 127.234 164.552 127.375 164.45C127.516 164.348 127.685 164.293 127.859 164.293C128.033 164.293 128.203 164.348 128.344 164.45C128.485 164.552 128.59 164.696 128.644 164.861V164.842Z" fill="#263238"/>
<path d="M124.423 155.144C124.307 155.28 124.149 155.373 123.974 155.407C123.799 155.442 123.617 155.418 123.458 155.337C123.775 154.871 124.159 154.453 124.597 154.098C124.667 154.271 124.689 154.461 124.658 154.645C124.627 154.83 124.546 155.003 124.423 155.144Z" fill="#263238"/>
<path d="M123.002 158.929C123.004 159.117 122.951 159.3 122.85 159.458C122.748 159.615 122.604 159.74 122.433 159.817C122.392 159.524 122.371 159.229 122.37 158.934C122.371 158.636 122.392 158.338 122.433 158.042C122.604 158.119 122.748 158.243 122.85 158.401C122.951 158.559 123.004 158.742 123.002 158.929Z" fill="#263238"/>
<path d="M124.601 163.767C124.16 163.414 123.776 162.996 123.462 162.528C123.621 162.446 123.803 162.421 123.978 162.456C124.153 162.491 124.311 162.584 124.427 162.72C124.551 162.861 124.633 163.034 124.663 163.219C124.694 163.404 124.672 163.594 124.601 163.767Z" fill="#263238"/>
<path d="M215.782 93.0381H171.92V161.567H215.782V93.0381Z" fill="#7676D9"/>
<path opacity="0.3" d="M215.782 93.0381H171.92V161.567H215.782V93.0381Z" fill="white"/>
<path d="M171.921 93.0381V161.558H137.903L137.058 153.359C136.695 149.824 133.392 147.148 129.653 147.148H124.988C121.249 147.148 117.945 149.824 117.583 153.359L116.738 161.558H76.8905V93.0381H171.921Z" fill="#7676D9"/>
<path opacity="0.5" d="M171.921 93.0381V161.558H137.903L137.058 153.359C136.695 149.824 133.392 147.148 129.653 147.148H124.988C121.249 147.148 117.945 149.824 117.583 153.359L116.738 161.558H76.8905V93.0381H171.921Z" fill="white"/>
<path d="M46.7087 168.749C51.5956 168.749 55.5573 164.361 55.5573 158.949C55.5573 153.537 51.5956 149.149 46.7087 149.149C41.8218 149.149 37.8602 153.537 37.8602 158.949C37.8602 164.361 41.8218 168.749 46.7087 168.749Z" fill="#263238"/>
<path opacity="0.2" d="M46.7087 168.749C51.5956 168.749 55.5573 164.361 55.5573 158.949C55.5573 153.537 51.5956 149.149 46.7087 149.149C41.8218 149.149 37.8602 153.537 37.8602 158.949C37.8602 164.361 41.8218 168.749 46.7087 168.749Z" fill="black"/>
<path d="M43.4537 168.749C48.3407 168.749 52.3023 164.361 52.3023 158.949C52.3023 153.537 48.3407 149.149 43.4537 149.149C38.5668 149.149 34.6052 153.537 34.6052 158.949C34.6052 164.361 38.5668 168.749 43.4537 168.749Z" fill="#263238"/>
<path d="M49.4461 158.944C49.4658 160.078 49.2008 161.2 48.6752 162.207C48.1497 163.213 47.3802 164.073 46.4371 164.707C45.9086 165.044 45.3275 165.292 44.7176 165.44L44.4181 165.507C44.0987 165.559 43.7758 165.587 43.4521 165.589C40.1388 165.589 37.4533 162.614 37.4533 158.944C37.4533 155.273 40.1388 152.303 43.4521 152.303C43.7565 152.302 44.0604 152.328 44.3602 152.38C44.4809 152.38 44.6017 152.423 44.7176 152.452C45.308 152.592 45.8711 152.828 46.3839 153.152C47.3424 153.781 48.1258 154.641 48.6613 155.654C49.1967 156.667 49.4667 157.799 49.4461 158.944Z" fill="white"/>
<path opacity="0.3" d="M49.4464 158.943C49.466 160.078 49.201 161.2 48.6755 162.207C48.1499 163.213 47.3805 164.073 46.4373 164.706C45.9088 165.044 45.3277 165.292 44.7178 165.44L44.4184 165.507C41.3948 165.169 39.0378 162.353 39.0378 158.939C39.0378 155.524 41.3658 152.742 44.3507 152.38C44.4715 152.38 44.5922 152.423 44.7082 152.452C45.3019 152.59 45.8684 152.827 46.3842 153.152C47.3426 153.78 48.1261 154.641 48.6615 155.654C49.1969 156.667 49.4669 157.798 49.4464 158.943Z" fill="black"/>
<path opacity="0.2" d="M49.4471 158.944C49.4667 160.079 49.2017 161.201 48.6761 162.207C48.1506 163.214 47.3812 164.073 46.438 164.707C46.24 164.76 46.0468 164.808 45.8487 164.842C45.5699 164.893 45.2869 164.917 45.0035 164.914C44.7595 164.915 44.5158 164.899 44.2742 164.866C43.3674 164.728 42.5147 164.348 41.806 163.766C41.3628 163.414 40.9781 162.994 40.6661 162.522C40.1057 161.717 39.7478 160.789 39.6229 159.817C39.5798 159.524 39.5588 159.229 39.5601 158.934C39.5592 158.636 39.5802 158.337 39.6229 158.042C39.7475 157.069 40.1018 156.141 40.6565 155.332C40.9699 154.865 41.3526 154.449 41.7915 154.097C42.5033 153.519 43.3573 153.143 44.2645 153.007C44.504 152.968 44.7463 152.949 44.989 152.949C45.269 152.951 45.5484 152.975 45.8246 153.022C46.0061 153.052 46.1853 153.096 46.3607 153.152C47.3236 153.778 48.1118 154.638 48.6516 155.651C49.1913 156.663 49.465 157.797 49.4471 158.944Z" fill="black"/>
<path opacity="0.2" d="M44.9937 163.67C47.3411 163.67 49.244 161.573 49.244 158.987C49.244 156.401 47.3411 154.304 44.9937 154.304C42.6462 154.304 40.7433 156.401 40.7433 158.987C40.7433 161.573 42.6462 163.67 44.9937 163.67Z" fill="black"/>
<path opacity="0.2" d="M47.7141 159.04C47.6626 159.566 47.4593 160.066 47.1287 160.479C46.7982 160.892 46.3547 161.2 45.8521 161.366C45.3494 161.532 44.8093 161.549 44.2973 161.414C43.7853 161.28 43.3235 161 42.9679 160.608C42.6123 160.216 42.3782 159.73 42.2942 159.208C42.2101 158.686 42.2796 158.151 42.4942 157.668C42.7089 157.185 43.0594 156.774 43.5033 156.486C43.9472 156.198 44.4654 156.045 44.9948 156.045C45.7526 156.084 46.4641 156.42 46.9737 156.982C47.4834 157.543 47.7496 158.283 47.7141 159.04Z" fill="black"/>
<path d="M46.2879 158.997C46.2654 159.254 46.1682 159.5 46.0083 159.703C45.8484 159.906 45.6327 160.059 45.3874 160.142C45.1422 160.224 44.8781 160.234 44.6274 160.17C44.3766 160.105 44.1501 159.969 43.9755 159.778C43.8009 159.588 43.6858 159.35 43.6441 159.095C43.6025 158.84 43.6362 158.578 43.741 158.342C43.8459 158.105 44.0175 157.905 44.2347 157.764C44.452 157.623 44.7055 157.549 44.9645 157.55C45.3309 157.57 45.6748 157.733 45.9223 158.003C46.1698 158.274 46.3011 158.63 46.2879 158.997Z" fill="black"/>
<path d="M45.8383 153.022C45.7799 153.18 45.6749 153.318 45.537 153.416C45.3991 153.514 45.2347 153.568 45.0655 153.571C44.8925 153.568 44.7246 153.512 44.584 153.411C44.4434 153.311 44.3368 153.17 44.2782 153.007C44.5177 152.968 44.76 152.949 45.0027 152.949C45.2828 152.949 45.5624 152.973 45.8383 153.022Z" fill="#263238"/>
<path d="M45.844 164.842C45.567 164.894 45.2856 164.92 45.0036 164.919C44.7593 164.919 44.5154 164.9 44.2743 164.861C44.3322 164.696 44.439 164.553 44.5806 164.451C44.7221 164.348 44.8916 164.291 45.0664 164.287C45.2367 164.291 45.402 164.346 45.5406 164.445C45.6793 164.544 45.785 164.682 45.844 164.842Z" fill="#263238"/>
<path d="M41.6265 155.144C41.5096 155.278 41.3514 155.37 41.1768 155.405C41.0022 155.44 40.8209 155.416 40.6613 155.337C40.9789 154.871 41.3625 154.453 41.8003 154.098C41.8699 154.271 41.8905 154.461 41.8598 154.645C41.8292 154.83 41.7485 155.002 41.6265 155.144Z" fill="#263238"/>
<path d="M40.2029 158.929C40.2036 159.118 40.1491 159.302 40.0462 159.46C39.9433 159.617 39.7965 159.741 39.6238 159.817C39.585 159.524 39.5656 159.229 39.5659 158.934C39.5656 158.636 39.585 158.338 39.6238 158.042C39.7965 158.117 39.9433 158.241 40.0462 158.399C40.1491 158.557 40.2036 158.741 40.2029 158.929Z" fill="#263238"/>
<path d="M41.8051 163.766C41.3619 163.413 40.9761 162.993 40.6614 162.522C40.8208 162.442 41.0023 162.418 41.1771 162.453C41.352 162.488 41.5101 162.58 41.6266 162.715C41.7503 162.857 41.8324 163.03 41.8639 163.216C41.8954 163.401 41.8751 163.592 41.8051 163.766Z" fill="#263238"/>
<path d="M76.8911 103.884V161.557H54.9629L54.6876 158.934L54.1418 153.629L54.108 153.306C53.7506 149.766 50.442 147.094 46.7036 147.094H42.0379C38.3043 147.094 35.0006 149.766 34.6335 153.306L34.3388 156.142L33.7786 161.557H31.2138C30.2525 161.558 29.3004 161.37 28.4121 161.003C27.5237 160.636 26.7165 160.098 26.0365 159.419C25.3565 158.741 24.8171 157.935 24.449 157.048C24.081 156.162 23.8916 155.211 23.8916 154.251V142.552C23.8916 136.827 35.2759 135.168 40.3135 132.781C40.886 132.419 41.413 131.99 41.8833 131.503C42.0813 131.32 42.2987 131.107 42.5305 130.886C43.3903 130.046 44.4239 128.957 45.5493 127.78L46.0033 127.298C51.7993 121.154 59.6818 112.073 59.6818 112.073H64.5746L68.8636 103.908L76.8911 103.884Z" fill="#7676D9"/>
<path opacity="0.2" d="M64.5651 112.068H76.8912V103.884L68.8493 103.903L64.5651 112.068Z" fill="white"/>
<g opacity="0.3">
<path d="M76.893 103.884V161.557H54.9649L54.6896 158.934L54.1438 153.629L54.11 153.306C53.7525 149.766 50.444 147.094 46.7056 147.094H42.0398C38.3062 147.094 35.0025 149.766 34.6354 153.306L34.3408 156.142L33.7805 161.557H31.2158C30.2544 161.558 29.3024 161.37 28.414 161.003C27.5257 160.636 26.7185 160.098 26.0385 159.419C25.3585 158.741 24.819 157.935 24.451 157.048C24.083 156.162 23.8935 155.211 23.8935 154.251V142.552C23.8935 136.827 35.2778 135.168 40.3155 132.781C40.8879 132.419 41.4149 131.99 41.8852 131.503C42.0833 131.32 42.3006 131.107 42.5325 130.886C43.3922 130.046 44.4258 128.957 45.5512 127.78L46.0052 127.298C51.8012 121.154 59.6838 112.073 59.6838 112.073H64.5766L68.8656 103.908L76.893 103.884Z" fill="white"/>
<path d="M76.8942 132.622V142.316H23.9091C24.2038 136.774 35.3466 135.135 40.307 132.776C40.3962 132.735 40.4805 132.683 40.5581 132.622H76.8942Z" fill="#7676D9"/>
<path opacity="0.1" d="M76.8942 132.622V142.316H23.9091C24.2038 136.774 35.3466 135.135 40.307 132.776C40.3962 132.735 40.4805 132.683 40.5581 132.622H76.8942Z" fill="black"/>
<path opacity="0.2" d="M64.567 112.068H76.8931V103.884L68.8512 103.903L64.567 112.068Z" fill="white"/>
</g>
<path d="M25.534 143.101V149.134C25.534 149.573 24.9882 149.92 24.3217 149.92H24.1671C24.0806 149.911 23.995 149.895 23.9111 149.872V142.363C23.9956 142.344 24.0811 142.329 24.1671 142.32H24.341C24.9882 142.31 25.534 142.662 25.534 143.101Z" fill="#263238"/>
<path opacity="0.5" d="M25.186 143.102V149.135C25.186 149.53 24.732 149.858 24.1476 149.916C24.0611 149.907 23.9754 149.891 23.8916 149.868V142.364C23.976 142.345 24.0615 142.33 24.1476 142.32C24.732 142.373 25.186 142.706 25.186 143.102Z" fill="white"/>
<path d="M75.6025 159.189H57.0602L55.9396 153.687C55.2924 148.57 51.8728 145.16 47.434 145.16H44.1158V130.794L59.9437 112.95H75.6025V159.189ZM57.4563 158.707H75.1195V113.418H60.1466L44.5988 130.972V144.678H47.434C52.1288 144.678 55.7416 148.271 56.4178 153.624L57.4563 158.707Z" fill="#263238"/>
<path d="M45.3123 132.241L60.7683 114.585L73.4905 114.383V128.368L45.5152 132.598C45.4698 132.61 45.4218 132.606 45.3785 132.588C45.3353 132.57 45.2992 132.538 45.2761 132.497C45.2529 132.457 45.2439 132.409 45.2505 132.363C45.257 132.317 45.2788 132.274 45.3123 132.241Z" fill="#263238"/>
<path d="M43.6268 131.908L44.926 132.357C44.926 132.357 45.892 132.863 46.4088 132.135C46.9257 131.407 45.7423 131.426 45.7423 131.426C45.0651 131.691 44.352 131.853 43.6268 131.908Z" fill="#263238"/>
<path d="M44.9409 122.466H42.6756C42.0914 122.466 41.6179 122.939 41.6179 123.522V130.852C41.6179 131.436 42.0914 131.908 42.6756 131.908H44.9409C45.5251 131.908 45.9987 131.436 45.9987 130.852V123.522C45.9987 122.939 45.5251 122.466 44.9409 122.466Z" fill="#263238"/>
<path d="M44.921 123.18H42.8924C42.5537 123.18 42.279 123.454 42.279 123.792V130.394C42.279 130.733 42.5537 131.007 42.8924 131.007H44.921C45.2598 131.007 45.5344 130.733 45.5344 130.394V123.792C45.5344 123.454 45.2598 123.18 44.921 123.18Z" fill="white"/>
<path opacity="0.2" d="M71.6646 134.165C71.6646 134.53 71.5564 134.886 71.3537 135.189C71.1509 135.492 70.8628 135.728 70.5256 135.867C70.1885 136.007 69.8175 136.043 69.4596 135.972C69.1017 135.901 68.7729 135.726 68.5149 135.468C68.2569 135.211 68.0811 134.882 68.0099 134.525C67.9387 134.168 67.9753 133.797 68.1149 133.46C68.2546 133.124 68.4911 132.836 68.7945 132.634C69.0979 132.431 69.4546 132.323 69.8195 132.323C70.062 132.323 70.3022 132.37 70.5264 132.462C70.7505 132.555 70.9542 132.69 71.1256 132.861C71.2971 133.033 71.433 133.236 71.5255 133.46C71.6179 133.684 71.6652 133.923 71.6646 134.165Z" fill="black"/>
<path d="M71.8336 133.413H67.786C67.4526 133.413 67.1823 133.683 67.1823 134.016V134.093C67.1823 134.426 67.4526 134.696 67.786 134.696H71.8336C72.167 134.696 72.4373 134.426 72.4373 134.093V134.016C72.4373 133.683 72.167 133.413 71.8336 133.413Z" fill="#263238"/>
<path d="M215.777 132.627H171.92V142.32H215.777V132.627Z" fill="#7676D9"/>
<path opacity="0.2" d="M215.777 132.627H171.92V142.32H215.777V132.627Z" fill="black"/>
<path d="M171.921 132.627H76.8905V142.32H171.921V132.627Z" fill="#7676D9"/>
<path d="M157.378 106.464H129.871C127.894 106.464 126.292 108.064 126.292 110.037V117.131C126.292 119.105 127.894 120.705 129.871 120.705H157.378C159.355 120.705 160.957 119.105 160.957 117.131V110.037C160.957 108.064 159.355 106.464 157.378 106.464Z" fill="#263238"/>
<path d="M99.284 110.061V125.802C99.284 127.776 100.886 129.376 102.863 129.376H109.968C111.945 129.376 113.547 127.776 113.547 125.802V110.061C113.547 108.088 111.945 106.488 109.968 106.488H102.863C100.886 106.488 99.284 108.088 99.284 110.061Z" fill="#263238"/>
<path d="M178.665 107.578V123.319C178.665 125.293 180.267 126.893 182.244 126.893H189.349C191.326 126.893 192.928 125.293 192.928 123.319V107.578C192.928 105.604 191.326 104.004 189.349 104.004H182.244C180.267 104.004 178.665 105.604 178.665 107.578Z" fill="#263238"/>
<path d="M116.067 159.189H78.5864V97.0693H116.067V159.189ZM79.0694 158.707H115.584V97.5516H79.0694V158.707Z" fill="#263238"/>
<path d="M196.309 159.19H175.115V97.0695H196.309V159.19ZM175.598 158.707H195.826V97.5517H175.598V158.707Z" fill="#263238"/>
<path d="M97.4858 97.1514H97.0032V158.948H97.4858V97.1514Z" fill="#263238"/>
<path d="M112.725 133.452H108.233V136.486H112.725V133.452Z" fill="#263238"/>
<path d="M192.714 133.452H188.223V136.486H192.714V133.452Z" fill="#263238"/>
<path d="M93.9758 133.452H89.4839V136.486H93.9758V133.452Z" fill="#263238"/>
<path d="M116.067 159.189H78.5864V151.825H116.067V159.189ZM79.0694 158.707H115.584V152.307H79.0694V158.707Z" fill="#263238"/>
<path d="M219.666 125.961V140.82C219.666 141.64 218.821 142.305 217.768 142.305H201.501C201.43 142.312 201.359 142.291 201.303 142.247C201.248 142.203 201.211 142.139 201.201 142.069V124.707C201.212 124.638 201.249 124.575 201.305 124.532C201.361 124.489 201.431 124.469 201.501 124.476H217.768C218.816 124.481 219.666 125.146 219.666 125.961Z" fill="#7676D9"/>
<g opacity="0.4">
<path d="M219.666 125.961V140.82C219.666 141.64 218.821 142.305 217.768 142.305H201.501C201.43 142.312 201.359 142.291 201.303 142.247C201.248 142.203 201.211 142.139 201.201 142.069V124.707C201.212 124.638 201.249 124.575 201.305 124.532C201.361 124.489 201.431 124.469 201.501 124.476H217.768C218.816 124.481 219.666 125.146 219.666 125.961Z" fill="white"/>
</g>
<path d="M219.666 125.962V140.82C219.666 141.64 218.821 142.306 217.768 142.306H207.277C206.234 142.306 205.384 141.64 205.384 140.82V125.962C205.384 125.147 206.234 124.481 207.277 124.481H217.768C218.816 124.481 219.666 125.147 219.666 125.962Z" fill="#7676D9"/>
<path opacity="0.5" d="M219.666 125.962V140.82C219.666 141.64 218.821 142.306 217.768 142.306H207.277C206.234 142.306 205.384 141.64 205.384 140.82V125.962C205.384 125.147 206.234 124.481 207.277 124.481H217.768C218.816 124.481 219.666 125.147 219.666 125.962Z" fill="white"/>
<path opacity="0.4" d="M175.346 150.012V159.985C175.346 160.641 174.598 161.181 173.632 161.273H173.342C172.236 161.273 171.337 160.689 171.337 159.971V150.012C171.337 149.298 172.236 148.715 173.342 148.715H173.632C174.607 148.821 175.346 149.361 175.346 150.012Z" fill="white"/>
<path opacity="0.1" d="M175.347 150.012V159.985C175.347 160.641 174.598 161.181 173.632 161.273C172.666 161.181 171.913 160.641 171.913 159.985V150.012C171.913 149.361 172.661 148.821 173.632 148.729C174.608 148.821 175.347 149.361 175.347 150.012Z" fill="black"/>
<path d="M175.355 152.066H171.042V158.046H175.355V152.066Z" fill="#7676D9"/>
<path opacity="0.5" d="M215.783 150.012V159.985C215.783 160.641 215.034 161.181 214.068 161.273H213.779C212.673 161.273 211.774 160.689 211.774 159.971V150.012C211.774 149.298 212.673 148.715 213.779 148.715H214.068C215.034 148.821 215.783 149.361 215.783 150.012Z" fill="white"/>
<path opacity="0.1" d="M215.783 150.012V159.985C215.783 160.641 215.035 161.181 214.069 161.273C213.103 161.181 212.349 160.641 212.349 159.985V150.012C212.349 149.361 213.098 148.821 214.069 148.729C215.035 148.821 215.783 149.361 215.783 150.012Z" fill="black"/>
<path d="M215.937 152.066H211.624V158.046H215.937V152.066Z" fill="#7676D9"/>
<path d="M34.6483 152.452H21.8005V154.863C21.8147 156.587 22.4886 158.24 23.6842 159.484C24.3084 160.135 25.0579 160.655 25.8877 161.011C26.7176 161.368 27.6109 161.553 28.5142 161.557H33.7837L34.6483 152.452Z" fill="#263238"/>
<path d="M124.964 102.722H123.139L122.801 103.557H121.554L123.486 99.2451H124.689L126.621 103.557H125.307L124.964 102.722ZM124.607 101.82L124.051 100.441L123.496 101.82H124.607Z" fill="#7676D9"/>
<path d="M131.069 103.532V101.251L129.944 103.108H129.403L128.297 101.309V103.532H127.166V99.2208H128.176L129.692 101.709L131.17 99.2208H132.175V103.532H131.069Z" fill="#7676D9"/>
<path d="M137.41 102.351C137.41 103.098 136.792 103.532 135.633 103.532H133.324V99.2207H135.532C136.667 99.2207 137.222 99.703 137.222 100.349C137.227 100.544 137.174 100.737 137.071 100.903C136.969 101.069 136.819 101.202 136.642 101.285C136.869 101.356 137.066 101.498 137.204 101.69C137.343 101.882 137.415 102.114 137.41 102.351ZM134.512 100.103V100.933H135.353C135.759 100.933 135.971 100.793 135.971 100.518C135.971 100.243 135.759 100.103 135.353 100.103H134.512ZM136.174 102.24C136.174 101.945 135.952 101.801 135.532 101.801H134.508V102.679H135.532C135.952 102.654 136.174 102.51 136.174 102.24Z" fill="#7676D9"/>
<path d="M138.256 101.612V99.2012H139.478V101.555C139.478 102.297 139.782 102.591 140.294 102.591C140.806 102.591 141.11 102.297 141.11 101.555V99.2012H142.313V101.612C142.313 102.9 141.559 103.619 140.284 103.619C139.009 103.619 138.256 102.9 138.256 101.612Z" fill="#7676D9"/>
<path d="M143.386 99.2208H144.608V102.568H146.671V103.532H143.386V99.2208Z" fill="#7676D9"/>
<path d="M150.341 102.722H148.515L148.177 103.557H146.931L148.834 99.2451H150.037L151.969 103.557H150.698L150.341 102.722ZM149.984 101.82L149.428 100.441L148.873 101.82H149.984Z" fill="#7676D9"/>
<path d="M156.649 99.2207V103.532H155.644L153.741 101.237V103.532H152.543V99.2207H153.548L155.456 101.521V99.2207H156.649Z" fill="#7676D9"/>
<path d="M157.538 101.377C157.536 101.071 157.597 100.767 157.718 100.486C157.838 100.204 158.015 99.9503 158.238 99.74C158.461 99.5297 158.725 99.3674 159.013 99.2632C159.301 99.159 159.608 99.1151 159.914 99.1343C160.266 99.1189 160.617 99.1844 160.939 99.3257C161.261 99.467 161.547 99.6803 161.774 99.9493L160.996 100.653C160.874 100.501 160.719 100.378 160.542 100.295C160.366 100.211 160.172 100.169 159.977 100.171C159.663 100.191 159.368 100.329 159.153 100.558C158.938 100.787 158.818 101.089 158.818 101.403C158.818 101.717 158.938 102.02 159.153 102.249C159.368 102.478 159.663 102.616 159.977 102.635C160.172 102.638 160.366 102.596 160.542 102.512C160.719 102.428 160.874 102.306 160.996 102.153L161.774 102.857C161.547 103.126 161.261 103.338 160.939 103.479C160.616 103.619 160.266 103.684 159.914 103.668C159.604 103.687 159.293 103.642 159.002 103.535C158.71 103.428 158.444 103.261 158.22 103.045C157.996 102.83 157.82 102.57 157.703 102.283C157.585 101.996 157.529 101.687 157.538 101.377Z" fill="#7676D9"/>
<path d="M166.028 102.592V103.532H162.56V99.2207H165.941V100.185H163.753V100.909H165.685V101.82H163.753V102.611L166.028 102.592Z" fill="#7676D9"/>
<path d="M178.292 147.76H176.843L176.578 148.416H175.612L177.104 145.04H178.046L179.538 148.416H178.544L178.292 147.76ZM178.012 147.056L177.578 145.976L177.143 147.056H178.012Z" fill="#7676D9"/>
<path d="M183.208 148.416V146.627L182.339 148.073H181.914L181.049 146.665V148.406H180.175V145.03H180.958L182.146 146.959L183.305 145.03H184.092V148.406L183.208 148.416Z" fill="#7676D9"/>
<path d="M188.314 147.49C188.314 148.073 187.831 148.416 186.928 148.416H185.102V145.04H186.832C187.72 145.04 188.155 145.402 188.155 145.923C188.158 146.075 188.116 146.226 188.036 146.356C187.955 146.486 187.839 146.59 187.701 146.656C187.881 146.708 188.038 146.819 188.149 146.969C188.26 147.12 188.318 147.303 188.314 147.49ZM186.049 145.73V146.381H186.706C187.025 146.381 187.189 146.27 187.189 146.053C187.189 145.836 187.025 145.73 186.706 145.73H186.049ZM187.353 147.384C187.353 147.152 187.179 147.041 186.87 147.041H186.068V147.726H186.87C187.179 147.726 187.353 147.615 187.353 147.384Z" fill="#7676D9"/>
<path d="M189.126 146.911V145.04H190.092V146.882C190.092 147.461 190.334 147.692 190.73 147.692C191.126 147.692 191.367 147.461 191.367 146.882V145.04H192.333V146.911C192.311 147.316 192.134 147.697 191.839 147.976C191.544 148.255 191.153 148.41 190.747 148.41C190.34 148.41 189.949 148.255 189.654 147.976C189.359 147.697 189.182 147.316 189.16 146.911H189.126Z" fill="#7676D9"/>
<path d="M193.285 145.04H194.251V147.659H195.864V148.416H193.295L193.285 145.04Z" fill="#7676D9"/>
<path d="M198.872 147.76H197.423L197.158 148.416H196.192L197.684 145.04H198.65L200.143 148.416H199.153L198.872 147.76ZM198.592 147.056L198.158 145.976L197.723 147.056H198.592Z" fill="#7676D9"/>
<path d="M203.954 145.04V148.416H203.166L201.674 146.607V148.406H200.742V145.03H201.524L203.017 146.829V145.03L203.954 145.04Z" fill="#7676D9"/>
<path d="M204.809 146.728C204.807 146.488 204.854 146.25 204.949 146.03C205.043 145.809 205.181 145.611 205.356 145.446C205.53 145.281 205.737 145.154 205.963 145.073C206.188 144.991 206.428 144.957 206.668 144.972C206.942 144.96 207.216 145.011 207.467 145.122C207.718 145.232 207.941 145.399 208.117 145.609L207.508 146.159C207.415 146.036 207.295 145.936 207.157 145.868C207.018 145.799 206.866 145.763 206.712 145.763C206.455 145.763 206.21 145.865 206.028 146.046C205.847 146.227 205.746 146.472 205.746 146.728C205.746 146.984 205.847 147.229 206.028 147.41C206.21 147.591 206.455 147.692 206.712 147.692C206.866 147.692 207.018 147.657 207.157 147.588C207.295 147.519 207.415 147.42 207.508 147.297L208.117 147.847C207.941 148.057 207.718 148.223 207.467 148.334C207.216 148.444 206.942 148.495 206.668 148.483C206.428 148.498 206.188 148.464 205.963 148.383C205.737 148.301 205.53 148.174 205.356 148.009C205.181 147.845 205.043 147.646 204.949 147.425C204.854 147.205 204.807 146.967 204.809 146.728Z" fill="#7676D9"/>
<path d="M211.571 147.678V148.416H208.862V145.04H211.508V145.778H209.808V146.347H211.306V147.061H209.808V147.678H211.571Z" fill="#7676D9"/>
<path d="M82.4302 115.579V119.731H93.3025V115.579H82.4302Z" fill="white"/>
<path d="M85.7889 123.088H89.9475V112.232H85.7889V123.088Z" fill="white"/>
<path d="M201.403 111.412V115.564H212.275V111.412H201.403Z" fill="white"/>
<path d="M204.762 118.916H208.92V108.06H204.762V118.916Z" fill="white"/>
</svg>
