<svg width="222" height="164" viewBox="0 0 222 164" fill="none" xmlns="http://www.w3.org/2000/svg">
<path d="M152.979 151H148.23V151.136H152.979V151Z" fill="#C9C9C9"/>
<path d="M90.5538 35.5625H64.3932V140.394H90.5538V35.5625Z" fill="#C9C9C9"/>
<path d="M91.4015 41.1865H63.9786V45.0443H91.4015V41.1865Z" fill="white"/>
<path d="M91.4015 49.5244H63.9786V53.3822H91.4015V49.5244Z" fill="white"/>
<path d="M91.4015 57.8584H63.9786V61.7162H91.4015V57.8584Z" fill="white"/>
<path d="M91.4015 66.1885H63.9786V70.0463H91.4015V66.1885Z" fill="white"/>
<path d="M91.4015 74.5283H63.9786V78.3861H91.4015V74.5283Z" fill="white"/>
<path d="M91.4015 82.8594H63.9786V86.7172H91.4015V82.8594Z" fill="white"/>
<path d="M91.4015 91.1953H63.9786V95.0531H91.4015V91.1953Z" fill="white"/>
<path d="M91.4015 99.5293H63.9786V103.387H91.4015V99.5293Z" fill="white"/>
<path d="M91.4015 107.863H63.9786V111.721H91.4015V107.863Z" fill="white"/>
<path d="M91.4015 116.199H63.9786V120.057H91.4015V116.199Z" fill="white"/>
<path d="M91.4015 124.531H63.9786V128.389H91.4015V124.531Z" fill="white"/>
<path d="M91.4015 132.867H63.9786V136.725H91.4015V132.867Z" fill="white"/>
<path d="M50.2055 140.392H19.1758V0L50.2055 12.5937V140.392Z" fill="#C9C9C9"/>
<path d="M29.3298 14.7988H20.8483V23.2674H29.3298V14.7988Z" fill="#C9C9C9"/>
<path d="M38.9323 14.7988H30.4508V23.2674H38.9323V14.7988Z" fill="#C9C9C9"/>
<path d="M48.5349 14.7988H40.0533V23.2674H48.5349V14.7988Z" fill="#C9C9C9"/>
<path d="M29.3298 24.2607H20.8483V32.7293H29.3298V24.2607Z" fill="#C9C9C9"/>
<path d="M38.9323 24.2607H30.4508V32.7293H38.9323V24.2607Z" fill="#C9C9C9"/>
<path d="M48.5349 24.2607H40.0533V32.7293H48.5349V24.2607Z" fill="#C9C9C9"/>
<path d="M29.3298 33.7168H20.8483V42.1854H29.3298V33.7168Z" fill="#C9C9C9"/>
<path d="M38.9323 33.7168H30.4508V42.1854H38.9323V33.7168Z" fill="#C9C9C9"/>
<path d="M48.5349 33.7168H40.0533V42.1854H48.5349V33.7168Z" fill="#C9C9C9"/>
<path d="M29.3298 43.1748H20.8483V51.6434H29.3298V43.1748Z" fill="#C9C9C9"/>
<path d="M38.9323 43.1748H30.4508V51.6434H38.9323V43.1748Z" fill="#C9C9C9"/>
<path d="M48.5349 43.1748H40.0533V51.6434H48.5349V43.1748Z" fill="#C9C9C9"/>
<path d="M29.3298 52.6367H20.8483V61.1053H29.3298V52.6367Z" fill="#C9C9C9"/>
<path d="M38.9323 52.6367H30.4508V61.1053H38.9323V52.6367Z" fill="#C9C9C9"/>
<path d="M48.5349 52.6367H40.0533V61.1053H48.5349V52.6367Z" fill="#C9C9C9"/>
<path d="M29.3298 62.0898H20.8483V70.5584H29.3298V62.0898Z" fill="#C9C9C9"/>
<path d="M38.9323 62.0898H30.4508V70.5584H38.9323V62.0898Z" fill="#C9C9C9"/>
<path d="M48.5349 62.0898H40.0533V70.5584H48.5349V62.0898Z" fill="#C9C9C9"/>
<path d="M29.3298 71.5459H20.8483V80.0145H29.3298V71.5459Z" fill="#C9C9C9"/>
<path d="M38.9323 71.5459H30.4508V80.0145H38.9323V71.5459Z" fill="#C9C9C9"/>
<path d="M48.5349 71.5459H40.0533V80.0145H48.5349V71.5459Z" fill="#C9C9C9"/>
<path d="M29.3298 81.0078H20.8483V89.4764H29.3298V81.0078Z" fill="#C9C9C9"/>
<path d="M38.9323 81.0078H30.4508V89.4764H38.9323V81.0078Z" fill="#C9C9C9"/>
<path d="M48.5349 81.0078H40.0533V89.4764H48.5349V81.0078Z" fill="#C9C9C9"/>
<path d="M29.3298 90.4658H20.8483V98.9344H29.3298V90.4658Z" fill="#C9C9C9"/>
<path d="M38.9323 90.4658H30.4508V98.9344H38.9323V90.4658Z" fill="#C9C9C9"/>
<path d="M48.5349 90.4658H40.0533V98.9344H48.5349V90.4658Z" fill="#C9C9C9"/>
<path d="M29.3298 99.9199H20.8483V108.389H29.3298V99.9199Z" fill="#C9C9C9"/>
<path d="M38.9323 99.9199H30.4508V108.389H38.9323V99.9199Z" fill="#C9C9C9"/>
<path d="M48.5349 99.9199H40.0533V108.389H48.5349V99.9199Z" fill="#C9C9C9"/>
<path d="M29.3298 109.384H20.8483V117.852H29.3298V109.384Z" fill="#C9C9C9"/>
<path d="M38.9323 109.384H30.4508V117.852H38.9323V109.384Z" fill="#C9C9C9"/>
<path d="M48.5349 109.384H40.0533V117.852H48.5349V109.384Z" fill="#C9C9C9"/>
<path d="M29.3298 118.84H20.8483V127.308H29.3298V118.84Z" fill="#C9C9C9"/>
<path d="M38.9323 118.84H30.4508V127.308H38.9323V118.84Z" fill="#C9C9C9"/>
<path d="M48.5349 118.84H40.0533V127.308H48.5349V118.84Z" fill="#C9C9C9"/>
<path d="M197.47 140.392H170.643V19.0331L197.47 29.9189V140.392Z" fill="#C9C9C9"/>
<path d="M183.255 28.5077H179.211V32.5455H183.255V28.5077Z" fill="#C9C9C9"/>
<path d="M177.604 34.5977H173.56V38.6355H177.604V34.5977Z" fill="#C9C9C9"/>
<path d="M177.604 40.6855H173.56V44.7234H177.604V40.6855Z" fill="#C9C9C9"/>
<path d="M183.255 40.6854H179.211V44.7233H183.255V40.6854Z" fill="#C9C9C9"/>
<path d="M188.901 40.6855H184.857V44.7234H188.901V40.6855Z" fill="#C9C9C9"/>
<path d="M177.604 52.8564H173.56V56.8943H177.604V52.8564Z" fill="#C9C9C9"/>
<path d="M188.901 52.8564H184.857V56.8943H188.901V52.8564Z" fill="#C9C9C9"/>
<path d="M183.255 58.9473H179.211V62.9851H183.255V58.9473Z" fill="#C9C9C9"/>
<path d="M177.604 65.0371H173.56V69.075H177.604V65.0371Z" fill="#C9C9C9"/>
<path d="M188.901 65.0371H184.857V69.075H188.901V65.0371Z" fill="#C9C9C9"/>
<path d="M194.55 65.0371H190.506V69.075H194.55V65.0371Z" fill="#C9C9C9"/>
<path d="M183.255 71.1288H179.211V75.1666H183.255V71.1288Z" fill="#C9C9C9"/>
<path d="M177.604 77.2148H173.56V81.2527H177.604V77.2148Z" fill="#C9C9C9"/>
<path d="M183.255 77.2148H179.211V81.2527H183.255V77.2148Z" fill="#C9C9C9"/>
<path d="M194.55 77.2148H190.506V81.2527H194.55V77.2148Z" fill="#C9C9C9"/>
<path d="M177.637 83.2111L173.593 83.1533L173.535 87.1908L177.579 87.2485L177.637 83.2111Z" fill="#C9C9C9"/>
<path d="M188.929 83.381L184.886 83.3232L184.828 87.3607L188.872 87.4185L188.929 83.381Z" fill="#C9C9C9"/>
<path d="M194.577 83.4543L190.533 83.3965L190.475 87.4339L194.519 87.4917L194.577 83.4543Z" fill="#C9C9C9"/>
<path d="M183.255 89.3964H179.211V93.4342H183.255V89.3964Z" fill="#C9C9C9"/>
<path d="M190.501 98.9658H194.545V94.928H190.501V98.9658Z" fill="#C9C9C9"/>
<path d="M179.205 98.9658H183.249V94.928H179.205V98.9658Z" fill="#C9C9C9"/>
<path d="M173.561 98.9658H177.605V94.928H173.561V98.9658Z" fill="#C9C9C9"/>
<path d="M184.856 105.056H188.9V101.018H184.856V105.056Z" fill="#C9C9C9"/>
<path d="M190.501 111.147H194.545V107.11H190.501V111.147Z" fill="#C9C9C9"/>
<path d="M184.856 111.147H188.9V107.109H184.856V111.147Z" fill="#C9C9C9"/>
<path d="M173.561 111.147H177.605V107.11H173.561V111.147Z" fill="#C9C9C9"/>
<path d="M190.537 117.14L194.58 117.082L194.522 113.045L190.479 113.102L190.537 117.14Z" fill="#C9C9C9"/>
<path d="M179.242 117.299L183.286 117.241L183.228 113.204L179.184 113.262L179.242 117.299Z" fill="#C9C9C9"/>
<path d="M173.597 117.383L177.64 117.325L177.582 113.288L173.539 113.346L173.597 117.383Z" fill="#C9C9C9"/>
<path d="M184.856 123.329H188.9V119.291H184.856V123.329Z" fill="#C9C9C9"/>
<path d="M162.756 15.8314V10.5439H152.039V15.8314H134.262V140.394H165.346V15.8314H162.756Z" fill="#C9C9C9"/>
<path d="M148.891 22.5205H144.3V27.104H148.891V22.5205Z" fill="#C9C9C9"/>
<path d="M155.301 22.5205H150.711V27.104H155.301V22.5205Z" fill="#C9C9C9"/>
<path d="M142.481 29.4346H137.89V34.0181H142.481V29.4346Z" fill="#C9C9C9"/>
<path d="M148.891 29.4346H144.3V34.0181H148.891V29.4346Z" fill="#C9C9C9"/>
<path d="M161.717 29.4346H157.127V34.0181H161.717V29.4346Z" fill="#C9C9C9"/>
<path d="M142.481 36.3466H137.89V40.9301H142.481V36.3466Z" fill="#C9C9C9"/>
<path d="M155.301 36.3467H150.711V40.9302H155.301V36.3467Z" fill="#C9C9C9"/>
<path d="M161.717 36.3466H157.127V40.9301H161.717V36.3466Z" fill="#C9C9C9"/>
<path d="M142.481 50.1747H137.89V54.7582H142.481V50.1747Z" fill="#C9C9C9"/>
<path d="M155.301 50.1748H150.711V54.7583H155.301V50.1748Z" fill="#C9C9C9"/>
<path d="M142.481 57.0887H137.89V61.6723H142.481V57.0887Z" fill="#C9C9C9"/>
<path d="M148.891 57.0887H144.3V61.6723H148.891V57.0887Z" fill="#C9C9C9"/>
<path d="M161.717 57.0887H157.127V61.6723H161.717V57.0887Z" fill="#C9C9C9"/>
<path d="M142.481 91.6046H137.89V96.1881H142.481V91.6046Z" fill="#C9C9C9"/>
<path d="M148.891 91.6046H144.3V96.1881H148.891V91.6046Z" fill="#C9C9C9"/>
<path d="M161.717 91.6046H157.127V96.1881H161.717V91.6046Z" fill="#C9C9C9"/>
<path d="M142.481 98.5145H137.89V103.098H142.481V98.5145Z" fill="#C9C9C9"/>
<path d="M155.301 98.5146H150.711V103.098H155.301V98.5146Z" fill="#C9C9C9"/>
<path d="M161.717 98.5145H157.127V103.098H161.717V98.5145Z" fill="#C9C9C9"/>
<path d="M142.481 112.339H137.89V116.922H142.481V112.339Z" fill="#C9C9C9"/>
<path d="M155.301 112.339H150.711V116.922H155.301V112.339Z" fill="#C9C9C9"/>
<path d="M142.481 119.253H137.89V123.836H142.481V119.253Z" fill="#C9C9C9"/>
<path d="M148.891 119.253H144.3V123.836H148.891V119.253Z" fill="#C9C9C9"/>
<path d="M161.717 119.253H157.127V123.836H161.717V119.253Z" fill="#C9C9C9"/>
<path d="M161.717 63.9941H157.127V68.5777H161.717V63.9941Z" fill="#C9C9C9"/>
<path d="M142.481 70.9082H137.89V75.4917H142.481V70.9082Z" fill="#C9C9C9"/>
<path d="M148.891 70.9082H144.3V75.4917H148.891V70.9082Z" fill="#C9C9C9"/>
<path d="M155.336 77.9006L150.746 77.835L150.68 82.418L155.27 82.4836L155.336 77.9006Z" fill="#C9C9C9"/>
<path d="M161.744 77.9972L157.154 77.9316L157.088 82.5147L161.678 82.5803L161.744 77.9972Z" fill="#C9C9C9"/>
<path d="M142.481 84.7363H137.89V89.3199H142.481V84.7363Z" fill="#C9C9C9"/>
<path d="M124.459 35.5625H98.2986V140.394H124.459V35.5625Z" fill="#C9C9C9"/>
<path d="M125.299 41.1865H97.876V45.0443H125.299V41.1865Z" fill="white"/>
<path d="M125.299 49.5244H97.876V53.3822H125.299V49.5244Z" fill="white"/>
<path d="M125.299 57.8584H97.876V61.7162H125.299V57.8584Z" fill="white"/>
<path d="M125.299 66.1885H97.876V70.0463H125.299V66.1885Z" fill="white"/>
<path d="M125.299 74.5283H97.876V78.3861H125.299V74.5283Z" fill="white"/>
<path d="M125.299 82.8594H97.876V86.7172H125.299V82.8594Z" fill="white"/>
<path d="M125.299 91.1953H97.876V95.0531H125.299V91.1953Z" fill="white"/>
<path d="M125.299 99.5293H97.876V103.387H125.299V99.5293Z" fill="white"/>
<path d="M125.299 107.863H97.876V111.721H125.299V107.863Z" fill="white"/>
<path d="M125.299 116.199H97.876V120.057H125.299V116.199Z" fill="white"/>
<path d="M125.299 124.531H97.876V128.389H125.299V124.531Z" fill="white"/>
<path d="M125.299 132.867H97.876V136.725H125.299V132.867Z" fill="white"/>
<path d="M105.959 163.276C164.479 163.276 211.918 160.51 211.918 157.099C211.918 153.687 164.479 150.922 105.959 150.922C47.4395 150.922 0 153.687 0 157.099C0 160.51 47.4395 163.276 105.959 163.276Z" fill="#F5F5F5"/>
<path d="M98.3452 108.714L211.676 117.155C213.088 117.26 214.483 116.802 215.557 115.882C216.631 114.961 217.295 113.653 217.404 112.244L219.103 89.4574C219.203 88.1502 218.98 86.8385 218.453 85.6378L214.081 75.7177C213.369 74.0957 212.228 72.6976 210.781 71.673C209.335 70.6484 207.636 70.0359 205.867 69.901L156.137 66.2015C148.738 65.6456 141.364 67.5654 135.179 71.658L122.527 80.0393L100.209 82.5657C98.698 82.7383 97.2551 83.2882 96.0135 84.1647C94.7718 85.0411 93.7713 86.2158 93.1044 87.5803L90.8856 92.0983C90.2833 93.3305 89.9694 94.6832 89.9675 96.0543V99.6611C89.9596 101.948 90.8193 104.153 92.3736 105.832C93.9279 107.512 96.0615 108.541 98.3452 108.714Z" fill="#263238"/>
<path d="M217.381 112.409L214.742 112.262C213.906 108.604 211.901 105.317 209.031 102.897C206.16 100.477 202.578 99.054 198.827 98.8439C195.076 98.6339 191.357 99.6477 188.234 101.733C185.11 103.817 182.75 106.86 181.51 110.401L128.658 107.449C128.136 103.45 126.23 99.7595 123.27 97.015C120.311 94.2704 116.484 92.6447 112.451 92.4188C108.418 92.1929 104.433 93.381 101.185 95.7779C97.9364 98.1747 95.6289 101.629 94.6613 105.545L91.9999 105.398C92.6535 106.189 93.4348 106.866 94.3115 107.4C94.399 107.455 94.4919 107.493 94.5848 107.542C94.6777 107.591 94.8526 107.695 94.9946 107.76C95.1367 107.826 95.2897 107.902 95.4373 107.968C95.5849 108.033 95.7707 108.104 95.9401 108.164C96.1095 108.224 96.2133 108.268 96.3554 108.311C96.4975 108.355 96.7707 108.426 96.9784 108.475C97.0986 108.475 97.2134 108.535 97.3282 108.557C97.6615 108.617 98.0058 108.666 98.3501 108.693L128.762 110.958L180.586 114.816L211.681 117.135C211.851 117.135 212.02 117.135 212.19 117.135H212.359H212.692L212.889 117.107L213.179 117.053C213.25 117.053 213.315 117.02 213.381 117.004L213.654 116.933L213.851 116.867L214.113 116.764L214.299 116.687L214.561 116.551L214.725 116.469L215.004 116.294L215.124 116.213L215.184 116.174C215.794 115.736 216.305 115.174 216.684 114.525C217.062 113.876 217.3 113.156 217.381 112.409Z" fill="#263238"/>
<path opacity="0.4" d="M217.381 112.409L214.742 112.262C213.906 108.604 211.901 105.317 209.031 102.897C206.16 100.477 202.578 99.054 198.827 98.8439C195.076 98.6339 191.357 99.6477 188.234 101.733C185.11 103.817 182.75 106.86 181.51 110.401L128.658 107.449C128.136 103.45 126.23 99.7595 123.27 97.015C120.311 94.2704 116.484 92.6447 112.451 92.4188C108.418 92.1929 104.433 93.381 101.185 95.7779C97.9364 98.1747 95.6289 101.629 94.6613 105.545L91.9999 105.398C92.6535 106.189 93.4348 106.866 94.3115 107.4C94.399 107.455 94.4919 107.493 94.5848 107.542C94.6777 107.591 94.8526 107.695 94.9946 107.76C95.1367 107.826 95.2897 107.902 95.4373 107.968C95.5849 108.033 95.7707 108.104 95.9401 108.164C96.1095 108.224 96.2133 108.268 96.3554 108.311C96.4975 108.355 96.7707 108.426 96.9784 108.475C97.0986 108.475 97.2134 108.535 97.3282 108.557C97.6615 108.617 98.0058 108.666 98.3501 108.693L128.762 110.958L180.586 114.816L211.681 117.135C211.851 117.135 212.02 117.135 212.19 117.135H212.359H212.692L212.889 117.107L213.179 117.053C213.25 117.053 213.315 117.02 213.381 117.004L213.654 116.933L213.851 116.867L214.113 116.764L214.299 116.687L214.561 116.551L214.725 116.469L215.004 116.294L215.124 116.213L215.184 116.174C215.794 115.736 216.305 115.174 216.684 114.525C217.062 113.876 217.3 113.156 217.381 112.409Z" fill="white"/>
<path opacity="0.7" d="M106.658 83.8424L107.128 83.335L100.395 84.0934C99.1374 84.2365 97.936 84.6934 96.9017 85.422C95.8674 86.1505 95.0334 87.1273 94.4765 88.2622L93.154 90.9905L96.5258 90.0465C100.415 88.96 103.924 86.8114 106.658 83.8424Z" fill="white"/>
<path opacity="0.7" d="M93.6024 100.744C93.4985 102.173 92.8537 103.286 92.1651 103.232C91.4765 103.177 91.0065 101.988 91.1158 100.558C91.2251 99.1285 91.8645 98.0208 92.5531 98.0699C93.2417 98.119 93.7117 99.3195 93.6024 100.744Z" fill="white"/>
<path opacity="0.1" d="M206.255 89.5718L203.323 89.3532C202.594 89.2989 201.96 89.8444 201.905 90.5717L201.686 93.5046C201.632 94.2319 202.178 94.8655 202.906 94.9198L205.838 95.1383C206.567 95.1926 207.201 94.6471 207.256 93.9198L207.475 90.9869C207.529 90.2597 206.983 89.6261 206.255 89.5718Z" fill="white"/>
<path d="M190.975 74.7009C190.468 73.7027 189.712 72.8519 188.78 72.2306C187.847 71.6093 186.77 71.2386 185.652 71.1542L155.945 68.9715C149.732 68.5077 147.201 70.1993 141.6 73.8825L132.124 80.163C131.824 80.3611 131.595 80.6488 131.47 80.9849C131.344 81.321 131.329 81.6881 131.425 82.0336C131.522 82.3791 131.725 82.6852 132.007 82.9079C132.289 83.1306 132.634 83.2585 132.993 83.2732L196.664 85.9524L190.975 74.7009Z" fill="#263238"/>
<path opacity="0.3" d="M190.975 74.7009C190.468 73.7027 189.712 72.8519 188.78 72.2306C187.847 71.6093 186.77 71.2386 185.652 71.1542L155.945 68.9715C149.732 68.5077 147.201 70.1993 141.6 73.8825L132.124 80.163C131.824 80.3611 131.595 80.6488 131.47 80.9849C131.344 81.321 131.329 81.6881 131.425 82.0336C131.522 82.3791 131.725 82.6852 132.007 82.9079C132.289 83.1306 132.634 83.2585 132.993 83.2732L196.664 85.9524L190.975 74.7009Z" fill="white"/>
<path d="M218.435 85.635L214.063 75.715C213.654 74.7819 213.101 73.9185 212.424 73.1558H212.358L194.723 71.8408L204.352 84.1072C204.903 84.8074 205.599 85.3803 206.392 85.7863C207.185 86.1923 208.058 86.4218 208.948 86.4589L218.884 87.0046C218.774 86.5361 218.624 86.0778 218.435 85.635Z" fill="#263238"/>
<path opacity="0.3" d="M218.435 85.635L214.063 75.715C213.654 74.7819 213.101 73.9185 212.424 73.1558H212.358L194.723 71.8408L204.352 84.1072C204.903 84.8074 205.599 85.3803 206.392 85.7863C207.185 86.1923 208.058 86.4218 208.948 86.4589L218.884 87.0046C218.774 86.5361 218.624 86.0778 218.435 85.635Z" fill="white"/>
<path d="M126.785 79.4471L145.054 67.2354C141.557 68.1716 138.235 69.6679 135.217 71.6661L122.566 80.0474L124.205 80.151C125.119 80.2063 126.026 79.9589 126.785 79.4471Z" fill="#263238"/>
<path opacity="0.3" d="M126.785 79.4471L145.054 67.2354C141.557 68.1716 138.235 69.6679 135.217 71.6661L122.566 80.0474L124.205 80.151C125.119 80.2063 126.026 79.9589 126.785 79.4471Z" fill="white"/>
<path opacity="0.7" d="M160.589 87.324L154.992 86.9067C154.598 86.8773 154.255 87.1727 154.225 87.5664L154.213 87.735C154.183 88.1287 154.479 88.4717 154.873 88.5011L160.47 88.9183C160.864 88.9477 161.208 88.6524 161.237 88.2587L161.25 88.09C161.279 87.6964 160.984 87.3534 160.589 87.324Z" fill="white"/>
<path opacity="0.7" d="M196.273 88.8279L190.676 88.4106C190.282 88.3813 189.938 88.6766 189.909 89.0703L189.896 89.2389C189.867 89.6326 190.162 89.9756 190.557 90.005L196.154 90.4222C196.548 90.4516 196.891 90.1563 196.921 89.7626L196.933 89.594C196.963 89.2003 196.667 88.8573 196.273 88.8279Z" fill="white"/>
<path opacity="0.7" d="M215.306 90.7774L218.498 97.5654L219.104 89.446C219.104 89.2168 219.104 88.9876 219.104 88.7585L216.803 88.5893C216.536 88.5716 216.269 88.6239 216.028 88.7409C215.787 88.8579 215.58 89.0357 215.429 89.2566C215.278 89.4775 215.187 89.734 215.166 90.0007C215.144 90.2674 215.192 90.5351 215.306 90.7774Z" fill="white"/>
<path d="M155.25 66.1505C157.533 65.1947 160.015 64.8107 162.48 65.0319L176.601 66.2869L176.339 67.7002L178.186 67.8366L178.443 66.4452L197.024 68.0821C198.961 68.2499 200.849 68.7832 202.587 69.6536L205.866 69.8992L206.412 69.9592C203.779 67.845 200.576 66.5593 197.209 66.2651L162.649 63.204C158.738 62.8598 154.827 63.8631 151.567 66.0468L151.342 66.1942C152.643 66.1009 153.948 66.0863 155.25 66.1505Z" fill="#263238"/>
<path opacity="0.5" d="M155.25 66.1505C157.533 65.1947 160.015 64.8107 162.48 65.0319L176.601 66.2869L176.339 67.7002L178.186 67.8366L178.443 66.4452L197.024 68.0821C198.961 68.2499 200.849 68.7832 202.587 69.6536L205.866 69.8992L206.412 69.9592C203.779 67.845 200.576 66.5593 197.209 66.2651L162.649 63.204C158.738 62.8598 154.827 63.8631 151.567 66.0468L151.342 66.1942C152.643 66.1009 153.948 66.0863 155.25 66.1505Z" fill="white"/>
<g opacity="0.3">
<path d="M129.243 84.8608C128.878 89.7899 128.514 94.7154 128.15 99.6372C128.143 99.7341 128.174 99.83 128.238 99.9037C128.301 99.9774 128.392 100.023 128.489 100.03C128.586 100.037 128.682 100.006 128.756 99.9423C128.829 99.8788 128.875 99.7887 128.882 99.6917C129.246 94.7663 129.611 89.8408 129.975 84.9154C129.982 84.8184 129.951 84.7226 129.887 84.6489C129.856 84.6124 129.817 84.5825 129.774 84.5608C129.731 84.5391 129.684 84.5261 129.636 84.5225C129.539 84.5153 129.443 84.5468 129.369 84.6103C129.296 84.6737 129.25 84.7638 129.243 84.8608Z" fill="white"/>
</g>
<g opacity="0.3">
<path d="M162.962 86.7339L159.617 106.863C159.535 107.327 160.273 107.382 160.35 106.918L163.694 86.7885C163.771 86.3246 163.038 86.2701 162.962 86.7339Z" fill="white"/>
</g>
<g opacity="0.3">
<path d="M198.512 88.7681C198.147 91.4709 197.794 94.1737 197.452 96.8766C197.391 97.3458 198.124 97.4222 198.184 96.9311L199.249 88.8227C199.31 88.3534 198.577 88.277 198.512 88.7681Z" fill="white"/>
</g>
<path opacity="0.1" d="M181.056 85.2807L187.286 71.4975C186.757 71.3115 186.206 71.196 185.646 71.1537L184.471 71.0664L178.088 85.1607L181.056 85.2807Z" fill="white"/>
<g opacity="0.1">
<path d="M162.313 84.4979L165.68 77.0606L166.226 69.7052L155.941 68.9413C155.602 68.914 155.274 68.8976 154.952 68.8867L148.148 83.9032L162.313 84.4979Z" fill="white"/>
<path d="M190.977 74.6969C190.513 73.7961 189.845 73.0153 189.026 72.416L183.163 85.3644L196.666 85.9101L190.977 74.6969Z" fill="white"/>
</g>
<path d="M161.481 84.4653L165.809 84.6454L168.531 69.8799L164.23 69.5635L161.481 84.4653Z" fill="#263238"/>
<path d="M119.548 119.068C124.726 114.616 125.31 106.816 120.851 101.645C116.392 96.4752 108.58 95.8928 103.402 100.345C98.2241 104.796 97.6408 112.597 102.099 117.767C106.558 122.937 114.37 123.519 119.548 119.068Z" fill="#263238"/>
<path opacity="0.5" d="M117.965 113.89C120.281 110.311 119.253 105.535 115.669 103.222C112.084 100.909 107.301 101.936 104.985 105.515C102.668 109.094 103.696 113.87 107.281 116.183C110.865 118.495 115.649 117.469 117.965 113.89Z" fill="white"/>
<g opacity="0.3">
<path d="M112.592 107.473C112.694 107.524 112.808 107.547 112.923 107.539C113.037 107.532 113.147 107.494 113.242 107.429L115.532 105.792C115.61 105.737 115.674 105.666 115.72 105.582C115.766 105.499 115.793 105.406 115.797 105.311C115.802 105.215 115.785 105.12 115.748 105.033C115.71 104.945 115.653 104.867 115.581 104.805C114.823 104.163 113.924 103.709 112.958 103.479C112.864 103.458 112.766 103.459 112.673 103.481C112.58 103.504 112.492 103.547 112.418 103.608C112.344 103.669 112.285 103.746 112.245 103.833C112.204 103.921 112.185 104.016 112.187 104.112L112.242 106.911C112.241 107.028 112.274 107.143 112.336 107.242C112.397 107.342 112.486 107.422 112.592 107.473Z" fill="black"/>
<path d="M110.699 107.337C110.808 107.301 110.905 107.237 110.98 107.15C111.055 107.064 111.105 106.958 111.125 106.846L111.595 104.085C111.611 103.99 111.606 103.894 111.579 103.802C111.552 103.711 111.505 103.626 111.441 103.555C111.376 103.484 111.297 103.429 111.208 103.393C111.12 103.357 111.024 103.342 110.929 103.348C109.937 103.43 108.978 103.744 108.131 104.265C108.051 104.317 107.983 104.386 107.934 104.468C107.884 104.549 107.854 104.641 107.845 104.736C107.836 104.831 107.849 104.927 107.882 105.016C107.916 105.106 107.969 105.186 108.038 105.252L110.06 107.195C110.143 107.275 110.247 107.331 110.36 107.356C110.472 107.381 110.59 107.374 110.699 107.337Z" fill="black"/>
<path d="M109.258 108.58C109.311 108.479 109.336 108.366 109.328 108.252C109.32 108.138 109.281 108.029 109.214 107.936L107.575 105.65C107.52 105.572 107.448 105.507 107.365 105.46C107.282 105.414 107.189 105.387 107.093 105.382C106.998 105.377 106.903 105.393 106.815 105.43C106.727 105.467 106.648 105.524 106.585 105.595C105.944 106.355 105.491 107.254 105.263 108.22C105.241 108.313 105.241 108.411 105.263 108.504C105.284 108.597 105.327 108.684 105.388 108.759C105.449 108.833 105.526 108.892 105.613 108.932C105.7 108.972 105.795 108.992 105.891 108.989L108.695 108.935C108.813 108.935 108.928 108.902 109.028 108.839C109.127 108.776 109.207 108.686 109.258 108.58Z" fill="black"/>
<path d="M115.925 106.257L113.974 108.282C113.895 108.365 113.841 108.467 113.817 108.579C113.792 108.691 113.8 108.807 113.837 108.915C113.873 109.023 113.938 109.119 114.025 109.193C114.111 109.267 114.217 109.316 114.329 109.335L117.094 109.804C117.189 109.821 117.286 109.816 117.378 109.79C117.471 109.763 117.556 109.716 117.627 109.652C117.698 109.588 117.754 109.508 117.789 109.419C117.825 109.33 117.839 109.234 117.832 109.138C117.747 108.15 117.431 107.194 116.909 106.35C116.857 106.27 116.788 106.203 116.707 106.154C116.625 106.104 116.534 106.074 116.439 106.065C116.345 106.056 116.249 106.069 116.16 106.102C116.071 106.135 115.99 106.189 115.925 106.257Z" fill="black"/>
<path d="M112.259 112.043C112.15 112.076 112.052 112.14 111.977 112.225C111.902 112.311 111.852 112.416 111.832 112.528L111.362 115.295C111.347 115.389 111.352 115.486 111.379 115.577C111.406 115.669 111.453 115.753 111.517 115.824C111.581 115.895 111.661 115.951 111.749 115.987C111.838 116.022 111.934 116.038 112.029 116.032C113.021 115.945 113.979 115.63 114.827 115.109C114.907 115.057 114.975 114.988 115.024 114.906C115.073 114.825 115.104 114.733 115.113 114.638C115.122 114.543 115.109 114.447 115.076 114.358C115.042 114.268 114.989 114.188 114.92 114.122L112.898 112.179C112.814 112.1 112.71 112.045 112.598 112.021C112.485 111.997 112.368 112.005 112.259 112.043Z" fill="black"/>
<path d="M109.138 110.468C109.101 110.36 109.036 110.264 108.95 110.19C108.863 110.116 108.758 110.067 108.646 110.048L105.881 109.578C105.786 109.561 105.689 109.566 105.597 109.593C105.504 109.619 105.419 109.666 105.348 109.73C105.277 109.795 105.221 109.874 105.186 109.963C105.15 110.052 105.136 110.148 105.143 110.244C105.227 111.235 105.544 112.191 106.066 113.038C106.118 113.118 106.187 113.185 106.268 113.234C106.35 113.283 106.441 113.314 106.536 113.323C106.63 113.332 106.726 113.319 106.815 113.286C106.904 113.252 106.985 113.199 107.05 113.13L108.996 111.112C109.078 111.029 109.135 110.924 109.16 110.81C109.185 110.696 109.177 110.577 109.138 110.468Z" fill="black"/>
<path d="M113.696 110.803C113.643 110.905 113.618 111.02 113.626 111.134C113.634 111.249 113.673 111.359 113.74 111.453L115.379 113.739C115.434 113.817 115.506 113.881 115.59 113.927C115.673 113.973 115.767 114 115.862 114.004C115.957 114.009 116.052 113.992 116.14 113.955C116.228 113.917 116.306 113.86 116.368 113.788C117.013 113.031 117.468 112.131 117.696 111.164C117.717 111.071 117.716 110.974 117.694 110.881C117.672 110.789 117.629 110.702 117.569 110.629C117.508 110.555 117.431 110.496 117.345 110.456C117.258 110.417 117.163 110.397 117.068 110.4L114.259 110.449C114.142 110.451 114.027 110.485 113.928 110.547C113.828 110.61 113.748 110.698 113.696 110.803Z" fill="black"/>
<path d="M110.367 111.905C110.265 111.854 110.15 111.831 110.035 111.84C109.921 111.848 109.811 111.888 109.717 111.954L107.427 113.591C107.349 113.646 107.284 113.717 107.237 113.8C107.191 113.884 107.164 113.976 107.159 114.072C107.153 114.167 107.17 114.262 107.207 114.35C107.244 114.438 107.301 114.516 107.373 114.579C108.133 115.219 109.034 115.674 110.001 115.905C110.097 115.927 110.196 115.926 110.292 115.904C110.387 115.881 110.476 115.836 110.551 115.773C110.627 115.71 110.686 115.631 110.725 115.541C110.765 115.451 110.782 115.353 110.777 115.255L110.723 112.451C110.719 112.336 110.684 112.224 110.621 112.128C110.559 112.032 110.471 111.955 110.367 111.905Z" fill="black"/>
</g>
<path d="M205.93 125.499C211.108 121.047 211.692 113.247 207.233 108.077C202.774 102.907 194.962 102.324 189.784 106.776C184.606 111.228 184.023 119.028 188.481 124.198C192.94 129.369 200.752 129.951 205.93 125.499Z" fill="#263238"/>
<path opacity="0.5" d="M200.327 123.419C204.372 122.062 206.549 117.687 205.19 113.648C203.83 109.609 199.448 107.435 195.403 108.793C191.358 110.15 189.181 114.525 190.54 118.564C191.9 122.604 196.282 124.777 200.327 123.419Z" fill="white"/>
<g opacity="0.3">
<path d="M198.971 113.91C199.074 113.962 199.188 113.986 199.303 113.978C199.417 113.971 199.527 113.932 199.622 113.867L201.911 112.23C201.99 112.175 202.055 112.104 202.101 112.02C202.148 111.937 202.175 111.844 202.18 111.749C202.185 111.654 202.169 111.559 202.132 111.471C202.095 111.383 202.038 111.305 201.966 111.242C201.205 110.603 200.305 110.151 199.337 109.921C199.244 109.9 199.147 109.9 199.053 109.921C198.96 109.943 198.872 109.986 198.798 110.046C198.724 110.107 198.664 110.184 198.624 110.271C198.584 110.358 198.564 110.453 198.567 110.549L198.622 113.348C198.621 113.465 198.654 113.58 198.715 113.679C198.777 113.779 198.866 113.859 198.971 113.91Z" fill="black"/>
<path d="M197.079 113.784C197.188 113.748 197.285 113.684 197.36 113.597C197.435 113.511 197.485 113.406 197.505 113.293L197.975 110.532C197.991 110.438 197.985 110.341 197.959 110.25C197.932 110.158 197.885 110.073 197.82 110.003C197.756 109.932 197.677 109.876 197.588 109.84C197.5 109.804 197.404 109.789 197.309 109.795C196.316 109.879 195.358 110.195 194.51 110.717C194.431 110.769 194.363 110.838 194.314 110.919C194.264 111 194.234 111.091 194.225 111.186C194.216 111.281 194.229 111.376 194.262 111.465C194.296 111.554 194.349 111.634 194.418 111.7L196.44 113.642C196.522 113.723 196.626 113.78 196.739 113.805C196.852 113.83 196.97 113.823 197.079 113.784Z" fill="black"/>
<path d="M195.644 115.015C195.697 114.914 195.721 114.801 195.714 114.687C195.706 114.573 195.667 114.464 195.6 114.371L193.96 112.085C193.906 112.006 193.834 111.942 193.751 111.895C193.667 111.849 193.574 111.822 193.479 111.817C193.384 111.811 193.288 111.828 193.2 111.865C193.112 111.902 193.034 111.958 192.971 112.03C192.327 112.788 191.872 113.688 191.643 114.655C191.623 114.748 191.623 114.845 191.646 114.938C191.668 115.031 191.711 115.117 191.771 115.191C191.831 115.265 191.908 115.325 191.995 115.365C192.081 115.405 192.176 115.426 192.272 115.424L195.081 115.37C195.198 115.368 195.313 115.335 195.412 115.272C195.512 115.209 195.592 115.12 195.644 115.015Z" fill="black"/>
<path d="M202.304 112.692L200.359 114.71C200.279 114.792 200.223 114.895 200.198 115.007C200.172 115.119 200.179 115.235 200.217 115.343C200.252 115.452 200.317 115.549 200.404 115.624C200.49 115.699 200.596 115.749 200.708 115.769L203.474 116.238C203.568 116.257 203.666 116.253 203.759 116.228C203.852 116.204 203.938 116.158 204.011 116.095C204.084 116.032 204.141 115.953 204.178 115.864C204.216 115.776 204.233 115.68 204.228 115.584C204.144 114.593 203.828 113.636 203.304 112.79C203.254 112.707 203.184 112.636 203.102 112.585C203.019 112.533 202.926 112.501 202.829 112.491C202.732 112.482 202.634 112.495 202.543 112.53C202.452 112.564 202.37 112.62 202.304 112.692Z" fill="black"/>
<path d="M198.639 118.481C198.529 118.516 198.431 118.58 198.356 118.667C198.281 118.754 198.231 118.859 198.212 118.973L197.742 121.734C197.727 121.828 197.732 121.924 197.759 122.016C197.786 122.108 197.833 122.192 197.897 122.263C197.961 122.334 198.041 122.389 198.129 122.425C198.218 122.461 198.314 122.477 198.409 122.47C199.401 122.387 200.36 122.071 201.207 121.548C201.287 121.497 201.354 121.428 201.404 121.347C201.453 121.265 201.484 121.174 201.493 121.08C201.501 120.985 201.489 120.89 201.455 120.801C201.422 120.712 201.369 120.631 201.3 120.566L199.278 118.618C199.194 118.539 199.09 118.484 198.978 118.46C198.865 118.436 198.747 118.443 198.639 118.481Z" fill="black"/>
<path d="M195.484 116.906C195.448 116.798 195.383 116.702 195.296 116.628C195.21 116.554 195.105 116.505 194.992 116.486L192.227 116.016C192.133 116 192.036 116.006 191.944 116.033C191.852 116.06 191.768 116.107 191.697 116.171C191.626 116.235 191.57 116.314 191.534 116.403C191.498 116.491 191.483 116.587 191.489 116.682C191.573 117.673 191.889 118.63 192.413 119.476C192.464 119.556 192.533 119.623 192.614 119.672C192.696 119.722 192.787 119.752 192.882 119.761C192.977 119.77 193.072 119.757 193.161 119.724C193.25 119.69 193.331 119.637 193.396 119.569L195.347 117.55C195.428 117.465 195.483 117.361 195.507 117.247C195.531 117.133 195.523 117.015 195.484 116.906Z" fill="black"/>
<path d="M200.074 117.238C200.021 117.34 199.996 117.454 200.004 117.569C200.012 117.684 200.051 117.794 200.118 117.887L201.757 120.174C201.812 120.252 201.884 120.316 201.968 120.362C202.051 120.408 202.144 120.434 202.24 120.439C202.335 120.444 202.43 120.427 202.518 120.389C202.606 120.352 202.684 120.295 202.746 120.223C203.389 119.465 203.842 118.565 204.069 117.598C204.091 117.505 204.091 117.408 204.069 117.315C204.048 117.222 204.005 117.135 203.944 117.061C203.883 116.987 203.806 116.928 203.719 116.889C203.631 116.85 203.536 116.831 203.44 116.834L200.637 116.889C200.52 116.889 200.405 116.922 200.306 116.983C200.206 117.045 200.126 117.133 200.074 117.238Z" fill="black"/>
<path d="M196.747 118.342C196.645 118.288 196.531 118.264 196.416 118.272C196.301 118.279 196.191 118.319 196.097 118.385L193.807 120.022C193.729 120.077 193.664 120.148 193.617 120.232C193.571 120.315 193.544 120.408 193.539 120.503C193.533 120.598 193.55 120.693 193.587 120.781C193.624 120.869 193.681 120.947 193.753 121.01C194.513 121.651 195.413 122.105 196.381 122.336C196.475 122.356 196.571 122.356 196.664 122.334C196.758 122.311 196.844 122.269 196.919 122.208C196.993 122.148 197.052 122.072 197.093 121.985C197.133 121.898 197.153 121.804 197.152 121.708L197.097 118.904C197.097 118.787 197.064 118.672 197.002 118.573C196.941 118.474 196.852 118.394 196.747 118.342Z" fill="black"/>
</g>
<path d="M108.788 115.097L109.225 115.293C109.283 115.319 109.334 115.357 109.376 115.405C109.417 115.453 109.448 115.509 109.466 115.57C109.483 115.63 109.487 115.694 109.478 115.757C109.469 115.819 109.446 115.879 109.411 115.932L105.154 122.3L103.602 121.492L108.258 115.233C108.318 115.155 108.403 115.098 108.499 115.074C108.595 115.049 108.697 115.057 108.788 115.097Z" fill="#9898F2"/>
<path d="M113.068 115.419L112.604 115.545C112.543 115.562 112.487 115.593 112.439 115.634C112.391 115.676 112.353 115.727 112.327 115.785C112.301 115.842 112.288 115.905 112.289 115.968C112.289 116.031 112.304 116.093 112.331 116.15L115.61 123.075L117.249 122.529L113.577 115.654C113.534 115.561 113.459 115.486 113.366 115.443C113.273 115.4 113.167 115.392 113.068 115.419Z" fill="#9898F2"/>
<g opacity="0.5">
<path d="M108.788 115.095L109.225 115.291C109.283 115.317 109.334 115.356 109.376 115.403C109.417 115.451 109.448 115.507 109.466 115.568C109.483 115.629 109.487 115.692 109.478 115.755C109.469 115.817 109.446 115.877 109.411 115.93L105.154 122.298L103.602 121.49L108.258 115.231C108.318 115.153 108.403 115.096 108.499 115.072C108.595 115.047 108.697 115.055 108.788 115.095Z" fill="white"/>
<path d="M113.066 115.415L112.602 115.541C112.541 115.558 112.485 115.589 112.437 115.63C112.389 115.672 112.351 115.723 112.325 115.781C112.299 115.838 112.286 115.901 112.287 115.964C112.287 116.027 112.302 116.089 112.329 116.146L115.608 123.071L117.247 122.525L113.575 115.65C113.532 115.557 113.457 115.482 113.364 115.439C113.271 115.396 113.165 115.388 113.066 115.415Z" fill="white"/>
</g>
<path d="M195.434 121.55L195.877 121.746C195.934 121.773 195.985 121.811 196.026 121.859C196.067 121.907 196.097 121.963 196.114 122.024C196.131 122.085 196.135 122.148 196.125 122.211C196.115 122.273 196.092 122.332 196.057 122.385L191.8 128.747L190.248 127.967L194.937 121.686C194.994 121.613 195.073 121.56 195.163 121.536C195.252 121.511 195.347 121.516 195.434 121.55Z" fill="#9898F2"/>
<path d="M199.714 121.866L199.255 121.997C199.193 122.014 199.137 122.044 199.088 122.085C199.04 122.126 199.001 122.177 198.975 122.235C198.948 122.293 198.934 122.355 198.935 122.419C198.935 122.482 198.949 122.545 198.976 122.602L202.255 129.527L203.894 128.981L200.216 122.106C200.173 122.014 200.099 121.94 200.008 121.897C199.916 121.853 199.812 121.842 199.714 121.866Z" fill="#9898F2"/>
<g opacity="0.5">
<path d="M195.436 121.551L195.878 121.747C195.936 121.774 195.987 121.812 196.028 121.86C196.068 121.908 196.099 121.965 196.116 122.025C196.133 122.086 196.137 122.149 196.127 122.212C196.117 122.274 196.094 122.333 196.059 122.386L191.802 128.748L190.25 127.968L194.938 121.687C194.996 121.614 195.075 121.561 195.164 121.537C195.254 121.512 195.349 121.517 195.436 121.551Z" fill="white"/>
<path d="M199.714 121.87L199.255 122.001C199.193 122.018 199.137 122.048 199.088 122.089C199.04 122.13 199.001 122.181 198.975 122.239C198.948 122.296 198.934 122.359 198.935 122.423C198.935 122.486 198.949 122.549 198.976 122.606L202.255 129.531L203.894 128.985L200.216 122.11C200.173 122.018 200.099 121.944 200.008 121.901C199.916 121.857 199.812 121.846 199.714 121.87Z" fill="white"/>
</g>
<path d="M180.714 122.019H127.038V140.653H180.714V122.019Z" fill="#263238"/>
<path opacity="0.3" d="M180.714 122.019H127.038V140.653H180.714V122.019Z" fill="white"/>
<path d="M66.5949 126.965V117.711H31.0457V140.65H79.8364V126.965H66.5949Z" fill="#263238"/>
<path opacity="0.3" d="M66.5949 126.965V117.711H31.0457V140.65H79.8364V126.965H66.5949Z" fill="white"/>
<path d="M159.739 158.807C168.851 158.807 176.237 151.432 176.237 142.334C176.237 133.236 168.851 125.86 159.739 125.86C150.627 125.86 143.24 133.236 143.24 142.334C143.24 151.432 150.627 158.807 159.739 158.807Z" fill="#263238"/>
<path opacity="0.5" d="M166.556 149.135C170.318 145.379 170.318 139.288 166.556 135.531C162.793 131.774 156.693 131.774 152.93 135.531C149.168 139.288 149.168 145.379 152.93 149.135C156.693 152.892 162.793 152.892 166.556 149.135Z" fill="white"/>
<g opacity="0.5">
<path d="M153.684 141.063C153.839 140.285 154.141 139.544 154.575 138.88C154.674 138.737 154.723 138.566 154.715 138.393C154.707 138.219 154.642 138.053 154.531 137.92C154.452 137.823 154.35 137.746 154.235 137.695C154.121 137.645 153.995 137.622 153.87 137.628C153.745 137.634 153.622 137.67 153.513 137.732C153.404 137.794 153.311 137.881 153.242 137.985C152.691 138.814 152.306 139.74 152.105 140.713C152.081 140.837 152.085 140.964 152.119 141.085C152.153 141.206 152.214 141.318 152.298 141.411C152.383 141.504 152.488 141.577 152.605 141.622C152.722 141.668 152.849 141.686 152.974 141.674C153.141 141.659 153.3 141.592 153.428 141.483C153.555 141.373 153.645 141.226 153.684 141.063Z" fill="white"/>
<path d="M156.34 137.174C156.995 136.74 157.728 136.436 158.499 136.279C158.668 136.246 158.823 136.159 158.939 136.031C159.055 135.904 159.127 135.742 159.143 135.57C159.155 135.445 159.138 135.319 159.092 135.202C159.046 135.085 158.974 134.981 158.88 134.897C158.787 134.813 158.675 134.752 158.553 134.719C158.432 134.686 158.305 134.683 158.182 134.708C157.206 134.905 156.279 135.289 155.449 135.837C155.345 135.907 155.258 136 155.196 136.109C155.133 136.218 155.098 136.34 155.091 136.465C155.085 136.59 155.108 136.715 155.159 136.83C155.21 136.944 155.287 137.046 155.384 137.125C155.517 137.233 155.682 137.296 155.854 137.305C156.026 137.314 156.196 137.268 156.34 137.174Z" fill="white"/>
<path d="M164.953 137.971C164.842 138.104 164.777 138.27 164.768 138.443C164.759 138.616 164.807 138.787 164.904 138.931C165.341 139.594 165.646 140.335 165.8 141.114C165.833 141.283 165.92 141.437 166.048 141.553C166.176 141.669 166.338 141.741 166.51 141.758C166.636 141.77 166.762 141.752 166.879 141.706C166.997 141.661 167.102 141.588 167.186 141.495C167.27 141.402 167.332 141.29 167.365 141.169C167.399 141.048 167.404 140.921 167.379 140.797C167.176 139.825 166.791 138.899 166.243 138.069C166.176 137.963 166.085 137.873 165.977 137.808C165.87 137.743 165.748 137.704 165.623 137.695C165.497 137.685 165.371 137.705 165.255 137.753C165.139 137.801 165.035 137.876 164.953 137.971Z" fill="white"/>
<path d="M160.986 136.278C161.756 136.435 162.489 136.739 163.144 137.173C163.288 137.269 163.459 137.316 163.632 137.308C163.805 137.3 163.971 137.238 164.106 137.129C164.203 137.049 164.28 136.948 164.331 136.834C164.381 136.719 164.405 136.594 164.398 136.469C164.392 136.344 164.356 136.222 164.294 136.113C164.232 136.004 164.145 135.911 164.04 135.841C163.21 135.294 162.283 134.91 161.308 134.712C161.185 134.686 161.057 134.69 160.936 134.723C160.815 134.756 160.703 134.817 160.609 134.901C160.516 134.984 160.443 135.089 160.397 135.206C160.352 135.323 160.334 135.449 160.346 135.574C160.364 135.744 160.435 135.904 160.55 136.031C160.665 136.157 160.818 136.244 160.986 136.278Z" fill="white"/>
<path d="M158.5 148.378C157.73 148.223 156.997 147.921 156.341 147.488C156.198 147.391 156.027 147.343 155.853 147.35C155.68 147.358 155.514 147.422 155.38 147.532C155.283 147.612 155.206 147.713 155.155 147.828C155.104 147.942 155.081 148.067 155.087 148.192C155.094 148.318 155.13 148.44 155.192 148.549C155.254 148.658 155.341 148.75 155.445 148.82C156.274 149.37 157.202 149.756 158.178 149.955C158.301 149.979 158.429 149.974 158.55 149.941C158.671 149.907 158.783 149.846 158.876 149.762C158.97 149.677 159.042 149.573 159.088 149.456C159.134 149.338 159.151 149.212 159.139 149.087C159.122 148.916 159.051 148.756 158.936 148.628C158.821 148.501 158.668 148.413 158.5 148.378Z" fill="white"/>
<path d="M165.8 143.572C165.647 144.351 165.342 145.092 164.904 145.754C164.807 145.898 164.759 146.07 164.768 146.243C164.777 146.416 164.842 146.581 164.953 146.715C165.033 146.812 165.134 146.888 165.249 146.939C165.364 146.99 165.489 147.013 165.614 147.006C165.74 147 165.862 146.964 165.971 146.902C166.08 146.84 166.173 146.754 166.243 146.649C166.791 145.82 167.177 144.894 167.379 143.921C167.404 143.797 167.399 143.67 167.365 143.549C167.332 143.427 167.27 143.315 167.186 143.222C167.102 143.128 166.997 143.055 166.88 143.009C166.762 142.963 166.636 142.944 166.51 142.955C166.342 142.97 166.183 143.038 166.055 143.149C165.928 143.259 165.838 143.407 165.8 143.572Z" fill="white"/>
<path d="M154.575 145.726C154.14 145.062 153.838 144.321 153.684 143.543C153.651 143.374 153.564 143.219 153.436 143.103C153.308 142.987 153.146 142.916 152.974 142.899C152.849 142.887 152.722 142.905 152.605 142.951C152.488 142.996 152.383 143.068 152.298 143.162C152.214 143.255 152.153 143.367 152.119 143.488C152.085 143.609 152.081 143.736 152.105 143.859C152.305 144.833 152.69 145.76 153.242 146.588C153.311 146.692 153.404 146.779 153.513 146.841C153.622 146.903 153.745 146.939 153.87 146.945C153.995 146.951 154.121 146.928 154.235 146.878C154.35 146.827 154.452 146.75 154.531 146.653C154.635 146.522 154.695 146.363 154.703 146.196C154.71 146.03 154.666 145.865 154.575 145.726Z" fill="white"/>
<path d="M163.144 147.486C162.488 147.918 161.755 148.22 160.985 148.376C160.816 148.41 160.662 148.497 160.546 148.625C160.43 148.752 160.358 148.914 160.34 149.085C160.328 149.21 160.346 149.336 160.392 149.454C160.437 149.571 160.51 149.675 160.603 149.76C160.697 149.844 160.808 149.905 160.93 149.939C161.051 149.972 161.179 149.977 161.302 149.953C162.277 149.752 163.205 149.367 164.034 148.818C164.139 148.748 164.226 148.656 164.288 148.547C164.35 148.438 164.386 148.316 164.392 148.19C164.399 148.065 164.375 147.94 164.325 147.826C164.274 147.711 164.197 147.61 164.1 147.53C163.966 147.421 163.801 147.358 163.629 147.35C163.457 147.343 163.287 147.39 163.144 147.486Z" fill="white"/>
</g>
<path d="M178.959 120.114H87.8258V96.1483L84.4103 72.0031H69.3107V121.996L76.4151 142.922H140.939C140.939 142.726 140.939 142.529 140.939 142.333C140.897 139.839 141.352 137.362 142.278 135.046C143.205 132.729 144.583 130.62 146.335 128.842C148.086 127.063 150.174 125.651 152.478 124.686C154.781 123.722 157.254 123.226 159.752 123.226C162.25 123.226 164.723 123.722 167.027 124.686C169.33 125.651 171.419 127.063 173.17 128.842C174.921 130.62 176.3 132.729 177.226 135.046C178.153 137.362 178.608 139.839 178.565 142.333C178.565 142.529 178.565 142.726 178.565 142.922H182.128L221.902 141.116V134.884L178.959 120.114Z" fill="#9898F2"/>
<g opacity="0.9">
<path d="M90.1043 122.656H87.6123V125.144H90.1043V122.656Z" fill="white"/>
<path d="M92.5964 125.065H90.1044V127.554H92.5964V125.065Z" fill="white"/>
<path d="M95.0885 122.656H92.5965V125.144H95.0885V122.656Z" fill="white"/>
<path d="M97.5806 125.065H95.0886V127.554H97.5806V125.065Z" fill="white"/>
<path d="M100.073 122.656H97.5806V125.144H100.073V122.656Z" fill="white"/>
<path d="M102.565 125.065H100.073V127.554H102.565V125.065Z" fill="white"/>
<path d="M105.057 122.656H102.565V125.144H105.057V122.656Z" fill="white"/>
<path d="M107.549 125.065H105.057V127.554H107.549V125.065Z" fill="white"/>
<path d="M110.039 122.656H107.547V125.144H110.039V122.656Z" fill="white"/>
<path d="M112.533 125.065H110.041V127.554H112.533V125.065Z" fill="white"/>
<path d="M115.025 122.656H112.533V125.144H115.025V122.656Z" fill="white"/>
<path d="M117.515 125.065H115.023V127.554H117.515V125.065Z" fill="white"/>
<path d="M120.009 122.656H117.517V125.144H120.009V122.656Z" fill="white"/>
<path d="M122.499 125.065H120.007V127.554H122.499V125.065Z" fill="white"/>
<path d="M124.992 122.656H122.5V125.144H124.992V122.656Z" fill="white"/>
<path d="M127.484 125.065H124.992V127.554H127.484V125.065Z" fill="white"/>
<path d="M129.978 122.656H127.486V125.144H129.978V122.656Z" fill="white"/>
<path d="M132.468 125.065H129.976V127.554H132.468V125.065Z" fill="white"/>
<path d="M134.96 122.656H132.468V125.144H134.96V122.656Z" fill="white"/>
<path d="M137.452 125.065H134.96V127.554H137.452V125.065Z" fill="white"/>
<path d="M139.946 122.656H137.454V125.144H139.946V122.656Z" fill="white"/>
<path d="M142.43 125.065H139.938V127.554H142.43V125.065Z" fill="white"/>
<path d="M144.922 122.656H142.43V125.144H144.922V122.656Z" fill="white"/>
<path d="M173.576 122.656H171.084V125.144H173.576V122.656Z" fill="white"/>
<path d="M176.068 125.065H173.576V127.554H176.068V125.065Z" fill="white"/>
<path d="M178.56 122.656H176.068V125.144H178.56V122.656Z" fill="white"/>
<path d="M181.052 125.065H178.56V127.554H181.052V125.065Z" fill="white"/>
<path d="M183.544 122.656H181.052V125.144H183.544V122.656Z" fill="white"/>
<path d="M186.036 125.065H183.544V127.554H186.036V125.065Z" fill="white"/>
</g>
<path opacity="0.5" d="M106.024 129.922H111.243C111.614 129.922 111.97 130.069 112.232 130.331C112.495 130.593 112.642 130.948 112.642 131.319V136.284C112.642 136.655 112.495 137.01 112.232 137.272C111.97 137.534 111.614 137.681 111.243 137.681H106.024C105.873 137.681 105.723 137.651 105.583 137.593C105.443 137.536 105.316 137.451 105.209 137.344C105.102 137.237 105.017 137.11 104.959 136.97C104.901 136.831 104.871 136.681 104.871 136.53V131.073C104.871 130.922 104.901 130.772 104.959 130.633C105.017 130.493 105.102 130.366 105.209 130.259C105.316 130.152 105.443 130.067 105.583 130.01C105.723 129.952 105.873 129.922 106.024 129.922Z" fill="white"/>
<path opacity="0.2" d="M111.324 133.803C111.324 133.635 111.274 133.47 111.18 133.33C111.086 133.19 110.953 133.081 110.797 133.017C110.642 132.953 110.47 132.936 110.305 132.969C110.139 133.001 109.988 133.082 109.868 133.201C109.749 133.321 109.668 133.472 109.635 133.637C109.602 133.802 109.619 133.974 109.683 134.129C109.748 134.285 109.857 134.418 109.997 134.511C110.138 134.605 110.303 134.655 110.471 134.655C110.697 134.655 110.914 134.565 111.074 134.405C111.234 134.246 111.324 134.029 111.324 133.803Z" fill="black"/>
<path d="M53.3809 158.807C62.4928 158.807 69.8794 151.432 69.8794 142.334C69.8794 133.236 62.4928 125.86 53.3809 125.86C44.269 125.86 36.8823 133.236 36.8823 142.334C36.8823 151.432 44.269 158.807 53.3809 158.807Z" fill="#263238"/>
<path opacity="0.5" d="M60.1942 149.137C63.9567 145.38 63.9567 139.289 60.1942 135.533C56.4316 131.776 50.3313 131.776 46.5688 135.533C42.8062 139.289 42.8062 145.38 46.5688 149.137C50.3313 152.894 56.4316 152.894 60.1942 149.137Z" fill="white"/>
<g opacity="0.5">
<path d="M47.3239 141.063C47.4762 140.284 47.7788 139.543 48.2147 138.88C48.3123 138.737 48.3608 138.566 48.3529 138.393C48.345 138.22 48.2812 138.054 48.171 137.92C48.0912 137.823 47.9899 137.746 47.875 137.695C47.7602 137.645 47.635 137.622 47.5096 137.628C47.3842 137.634 47.262 137.67 47.1529 137.732C47.0438 137.794 46.9507 137.881 46.8813 137.985C46.3311 138.814 45.9452 139.74 45.7446 140.713C45.7192 140.836 45.7231 140.964 45.7559 141.085C45.7887 141.206 45.8496 141.318 45.9336 141.411C46.0176 141.505 46.1224 141.577 46.2395 141.623C46.3566 141.668 46.4829 141.686 46.608 141.674C46.7763 141.659 46.9359 141.593 47.0643 141.483C47.1927 141.373 47.2835 141.226 47.3239 141.063Z" fill="white"/>
<path d="M49.9798 137.174C50.6347 136.739 51.3678 136.435 52.1385 136.279C52.3077 136.245 52.4616 136.158 52.5776 136.03C52.6937 135.903 52.7657 135.741 52.7833 135.57C52.7944 135.445 52.776 135.318 52.7296 135.202C52.6832 135.085 52.6102 134.98 52.5163 134.897C52.4223 134.813 52.3101 134.752 52.1885 134.719C52.067 134.687 51.9394 134.683 51.816 134.708C50.841 134.905 49.9133 135.289 49.0836 135.837C48.979 135.907 48.8922 135.999 48.83 136.108C48.7679 136.217 48.7322 136.339 48.7258 136.465C48.7195 136.59 48.7426 136.715 48.7933 136.829C48.844 136.944 48.921 137.045 49.018 137.125C49.1523 137.234 49.3179 137.298 49.4909 137.307C49.6638 137.316 49.8351 137.269 49.9798 137.174Z" fill="white"/>
<path d="M58.5918 137.972C58.4832 138.107 58.4204 138.273 58.4125 138.445C58.4047 138.618 58.4521 138.789 58.548 138.933C58.9857 139.595 59.2901 140.337 59.4443 141.115C59.4776 141.285 59.5647 141.439 59.6927 141.555C59.8207 141.671 59.9827 141.743 60.1547 141.759C60.2799 141.771 60.4061 141.754 60.5233 141.708C60.6404 141.663 60.7452 141.59 60.8292 141.497C60.9132 141.403 60.974 141.291 61.0069 141.17C61.0397 141.049 61.0436 140.922 61.0182 140.799C60.8195 139.826 60.4355 138.899 59.887 138.071C59.8204 137.963 59.7293 137.873 59.6211 137.807C59.5129 137.741 59.3907 137.702 59.2644 137.692C59.1381 137.683 59.0113 137.703 58.8945 137.752C58.7776 137.801 58.6738 137.876 58.5918 137.972Z" fill="white"/>
<path d="M54.6259 136.278C55.3963 136.435 56.1291 136.739 56.7845 137.173C56.9287 137.269 57.0997 137.316 57.2726 137.308C57.4456 137.3 57.6115 137.238 57.7464 137.129C57.8434 137.049 57.9203 136.948 57.9711 136.834C58.0218 136.719 58.0449 136.594 58.0385 136.469C58.0322 136.344 57.9965 136.222 57.9344 136.113C57.8722 136.004 57.7854 135.911 57.6808 135.841C56.8508 135.294 55.9232 134.91 54.9483 134.712C54.8252 134.686 54.6978 134.69 54.5764 134.723C54.4551 134.756 54.3431 134.817 54.2495 134.901C54.156 134.984 54.0834 135.089 54.0377 135.206C53.9921 135.323 53.9745 135.449 53.9865 135.574C54.0041 135.744 54.0756 135.904 54.1906 136.031C54.3056 136.157 54.4581 136.244 54.6259 136.278Z" fill="white"/>
<path d="M52.1385 148.378C51.3681 148.223 50.6351 147.921 49.9798 147.488C49.8363 147.391 49.665 147.343 49.4916 147.35C49.3183 147.358 49.1521 147.422 49.018 147.532C48.921 147.612 48.844 147.713 48.7933 147.828C48.7426 147.942 48.7195 148.067 48.7258 148.192C48.7322 148.318 48.7679 148.44 48.83 148.549C48.8922 148.658 48.979 148.75 49.0836 148.82C49.913 149.37 50.8407 149.755 51.816 149.955C51.9398 149.979 52.0674 149.974 52.1889 149.94C52.3104 149.907 52.4224 149.846 52.5162 149.762C52.61 149.678 52.6829 149.573 52.7293 149.456C52.7756 149.339 52.7941 149.213 52.7833 149.087C52.7649 148.916 52.6925 148.755 52.5766 148.628C52.4608 148.5 52.3073 148.413 52.1385 148.378Z" fill="white"/>
<path d="M59.4401 143.572C59.287 144.351 58.9825 145.092 58.5439 145.754C58.448 145.898 58.4005 146.069 58.4084 146.242C58.4162 146.415 58.479 146.58 58.5876 146.715C58.6674 146.812 58.7687 146.889 58.8836 146.939C58.9984 146.99 59.1236 147.013 59.249 147.007C59.3744 147 59.4966 146.965 59.6057 146.903C59.7148 146.841 59.8079 146.754 59.8773 146.649C60.4265 145.821 60.8105 144.895 61.0086 143.921C61.0337 143.798 61.0297 143.671 60.9969 143.549C60.9641 143.428 60.9033 143.316 60.8195 143.222C60.7356 143.128 60.631 143.055 60.5139 143.009C60.3968 142.963 60.2706 142.944 60.1451 142.955C59.9778 142.971 59.8197 143.04 59.6933 143.15C59.5668 143.261 59.4783 143.408 59.4401 143.572Z" fill="white"/>
<path d="M48.2153 145.725C47.7785 145.063 47.4759 144.321 47.3245 143.542C47.2902 143.373 47.202 143.218 47.0731 143.102C46.9442 142.986 46.7813 142.915 46.6086 142.899C46.4838 142.888 46.3581 142.906 46.2415 142.952C46.1249 142.998 46.0207 143.07 45.9369 143.164C45.8532 143.257 45.7923 143.368 45.759 143.489C45.7257 143.609 45.721 143.736 45.7452 143.859C45.9448 144.833 46.3307 145.759 46.8819 146.587C46.9514 146.692 47.0444 146.778 47.1535 146.84C47.2626 146.902 47.3848 146.938 47.5102 146.944C47.6356 146.951 47.7608 146.928 47.8756 146.877C47.9905 146.826 48.0919 146.749 48.1716 146.653C48.2743 146.522 48.3337 146.362 48.3416 146.196C48.3494 146.03 48.3053 145.865 48.2153 145.725Z" fill="white"/>
<path d="M56.782 147.486C56.1263 147.918 55.3934 148.22 54.6234 148.376C54.4541 148.41 54.3002 148.497 54.1842 148.625C54.0682 148.752 53.9961 148.914 53.9785 149.085C53.9668 149.21 53.9844 149.336 54.0301 149.454C54.0758 149.571 54.1482 149.675 54.2416 149.76C54.335 149.844 54.4468 149.905 54.5681 149.939C54.6894 149.972 54.8168 149.977 54.9403 149.953C55.9155 149.752 56.8431 149.367 57.6728 148.818C57.7774 148.748 57.8642 148.656 57.9263 148.547C57.9885 148.438 58.0242 148.316 58.0305 148.19C58.0369 148.065 58.0138 147.94 57.9631 147.826C57.9123 147.711 57.8354 147.61 57.7383 147.53C57.6047 147.421 57.4396 147.358 57.2674 147.35C57.0952 147.343 56.925 147.39 56.782 147.486Z" fill="white"/>
</g>
<path d="M12.4527 101.05H11.4589V106.332H12.4527V101.05Z" fill="#263238"/>
<path opacity="0.6" d="M12.4527 101.05H11.4589V106.332H12.4527V101.05Z" fill="black"/>
<path d="M37.719 128.727L43.9818 123.904L50.1899 122.66H67.7158V77.2282C67.7158 75.8456 67.1662 74.5196 66.1876 73.5415C65.209 72.5634 63.8815 72.0132 62.4969 72.0117H31.7294C29.8856 72.013 28.0877 72.5867 26.5848 73.6533C25.0819 74.7198 23.9482 76.2266 23.3408 77.9648L16.2965 98.0777C15.2973 100.939 14.7874 103.947 14.7882 106.977V140.655H29.4943L37.719 128.727Z" fill="#9898F2"/>
<path d="M14.8103 112.763H15.1437C15.6249 112.763 16.0864 112.954 16.4266 113.294C16.7669 113.633 16.958 114.094 16.958 114.575V120.844C16.958 121.325 16.7669 121.786 16.4266 122.125C16.0864 122.465 15.6249 122.656 15.1437 122.656H14.7994C14.3907 122.656 13.9987 122.494 13.7097 122.205C13.4207 121.917 13.2583 121.525 13.2583 121.117V114.296C13.2583 113.888 13.4207 113.497 13.7097 113.208C13.9987 112.92 14.3907 112.758 14.7994 112.758L14.8103 112.763Z" fill="#9898F2"/>
<path opacity="0.8" d="M14.8103 112.763H15.1437C15.6249 112.763 16.0864 112.954 16.4266 113.294C16.7669 113.633 16.958 114.094 16.958 114.575V120.844C16.958 121.325 16.7669 121.786 16.4266 122.125C16.0864 122.465 15.6249 122.656 15.1437 122.656H14.7994C14.3907 122.656 13.9987 122.494 13.7097 122.205C13.4207 121.917 13.2583 121.525 13.2583 121.117V114.296C13.2583 113.888 13.4207 113.497 13.7097 113.208C13.9987 112.92 14.3907 112.758 14.7994 112.758L14.8103 112.763Z" fill="white"/>
<path d="M56.3753 108.432H56.3043C55.7881 108.432 55.3698 108.849 55.3698 109.365V114.27C55.3698 114.785 55.7881 115.203 56.3043 115.203H56.3753C56.8914 115.203 57.3098 114.785 57.3098 114.27V109.365C57.3098 108.849 56.8914 108.432 56.3753 108.432Z" fill="#263238"/>
<path d="M14.7158 109.058L11.7101 107.721C11.5437 107.64 11.4039 107.514 11.3071 107.356C11.2103 107.199 11.1605 107.017 11.1637 106.832V106.068C11.1637 105.81 11.2661 105.563 11.4486 105.381C11.631 105.199 11.8784 105.097 12.1364 105.097H15.1421C15.432 105.097 15.71 105.212 15.915 105.416C16.1199 105.621 16.2351 105.899 16.2351 106.188V108.098C16.2279 108.274 16.178 108.446 16.0896 108.599C16.0013 108.752 15.877 108.881 15.7276 108.976C15.5783 109.07 15.4081 109.127 15.2319 109.141C15.0557 109.156 14.8786 109.127 14.7158 109.058Z" fill="#9898F2"/>
<path d="M54.7096 96.7148H55.9173C56.787 96.7148 57.621 96.3699 58.2359 95.7559C58.8508 95.1419 59.1963 94.3092 59.1963 93.4409V77.224C59.197 77.0616 59.1656 76.9006 59.1039 76.7504C59.0421 76.6001 58.9512 76.4636 58.8365 76.3485C58.7217 76.2334 58.5853 76.1421 58.4351 76.0797C58.2849 76.0174 58.1239 75.9854 57.9612 75.9854H31.7297C30.7121 75.9848 29.7195 76.2994 28.8885 76.8858C28.0575 77.4721 27.4291 78.3014 27.09 79.2593L20.0621 99.3831C19.9564 99.6799 19.867 99.9823 19.7943 100.289C19.6117 101.012 19.6285 101.771 19.8429 102.485C20.0573 103.199 20.4613 103.842 21.012 104.346C21.5628 104.849 22.2398 105.194 22.9712 105.345C23.7026 105.495 24.4611 105.445 25.1663 105.2L44.3919 98.4664C47.7076 97.3057 51.196 96.7135 54.7096 96.7148Z" fill="#263238"/>
<path opacity="0.5" d="M54.7096 96.7148H55.9173C56.787 96.7148 57.621 96.3699 58.2359 95.7559C58.8508 95.1419 59.1963 94.3092 59.1963 93.4409V77.224C59.197 77.0616 59.1656 76.9006 59.1039 76.7504C59.0421 76.6001 58.9512 76.4636 58.8365 76.3485C58.7217 76.2334 58.5853 76.1421 58.4351 76.0797C58.2849 76.0174 58.1239 75.9854 57.9612 75.9854H31.7297C30.7121 75.9848 29.7195 76.2994 28.8885 76.8858C28.0575 77.4721 27.4291 78.3014 27.09 79.2593L20.0621 99.3831C19.9564 99.6799 19.867 99.9823 19.7943 100.289C19.6117 101.012 19.6285 101.771 19.8429 102.485C20.0573 103.199 20.4613 103.842 21.012 104.346C21.5628 104.849 22.2398 105.194 22.9712 105.345C23.7026 105.495 24.4611 105.445 25.1663 105.2L44.3919 98.4664C47.7076 97.3057 51.196 96.7135 54.7096 96.7148Z" fill="white"/>
<path d="M67.0861 120.387H50.3908C47.2827 120.391 44.2307 121.215 41.5438 122.774C38.8568 124.334 36.6301 126.575 35.0891 129.27L28.5749 140.653H33.8157L39.0402 131.524C40.187 129.523 41.8425 127.86 43.8393 126.702C45.8362 125.545 48.1037 124.934 50.4127 124.932H67.108C67.4254 124.932 67.7298 124.806 67.9542 124.582C68.1787 124.358 68.3048 124.054 68.3048 123.737V121.582C68.3048 121.423 68.2731 121.266 68.2116 121.119C68.1501 120.973 68.06 120.84 67.9465 120.729C67.8331 120.618 67.6986 120.53 67.5508 120.472C67.4031 120.413 67.2451 120.384 67.0861 120.387Z" fill="#9898F2"/>
<path opacity="0.4" d="M67.0861 120.387H50.3908C47.2827 120.391 44.2307 121.215 41.5438 122.774C38.8568 124.334 36.6301 126.575 35.0891 129.27L28.5749 140.653H33.8157L39.0402 131.524C40.187 129.523 41.8425 127.86 43.8393 126.702C45.8362 125.545 48.1037 124.934 50.4127 124.932H67.108C67.4254 124.932 67.7298 124.806 67.9542 124.582C68.1787 124.358 68.3048 124.054 68.3048 123.737V121.582C68.3048 121.423 68.2731 121.266 68.2116 121.119C68.1501 120.973 68.06 120.84 67.9465 120.729C67.8331 120.618 67.6986 120.53 67.5508 120.472C67.4031 120.413 67.2451 120.384 67.0861 120.387Z" fill="white"/>
<path d="M17.8203 131.654H13.5084C12.9048 131.654 12.4155 132.143 12.4155 132.746V137.051C12.4155 137.654 12.9048 138.142 13.5084 138.142H17.8203C18.4239 138.142 18.9132 137.654 18.9132 137.051V132.746C18.9132 132.143 18.4239 131.654 17.8203 131.654Z" fill="#263238"/>
<path opacity="0.7" d="M17.8203 131.654H13.5084C12.9048 131.654 12.4155 132.143 12.4155 132.746V137.051C12.4155 137.654 12.9048 138.142 13.5084 138.142H17.8203C18.4239 138.142 18.9132 137.654 18.9132 137.051V132.746C18.9132 132.143 18.4239 131.654 17.8203 131.654Z" fill="white"/>
<path d="M31.3299 142.922H12.7492C12.4304 142.922 12.1245 142.795 11.8991 142.57C11.6736 142.345 11.5469 142.04 11.5469 141.721V138.513C11.5469 138.195 11.6736 137.889 11.8991 137.664C12.1245 137.439 12.4304 137.313 12.7492 137.313H34.5706C34.7145 137.312 34.8559 137.35 34.9803 137.422C35.1047 137.494 35.2076 137.598 35.2783 137.723C35.349 137.848 35.385 137.99 35.3826 138.134C35.3802 138.277 35.3395 138.418 35.2646 138.54L33.2645 141.814C33.0633 142.148 32.78 142.425 32.4414 142.619C32.1028 142.813 31.7202 142.917 31.3299 142.922Z" fill="#263238"/>
<path opacity="0.6" d="M31.3299 142.922H12.7492C12.4304 142.922 12.1245 142.795 11.8991 142.57C11.6736 142.345 11.5469 142.04 11.5469 141.721V138.513C11.5469 138.195 11.6736 137.889 11.8991 137.664C12.1245 137.439 12.4304 137.313 12.7492 137.313H34.5706C34.7145 137.312 34.8559 137.35 34.9803 137.422C35.1047 137.494 35.2076 137.598 35.2783 137.723C35.349 137.848 35.385 137.99 35.3826 138.134C35.3802 138.277 35.3395 138.418 35.2646 138.54L33.2645 141.814C33.0633 142.148 32.78 142.425 32.4414 142.619C32.1028 142.813 31.7202 142.917 31.3299 142.922Z" fill="white"/>
<path d="M11.831 91.0361H11.9567C12.221 91.0361 12.4746 91.1406 12.662 91.3267C12.8494 91.5128 12.9554 91.7653 12.9568 92.0292V101.398C12.9568 101.663 12.8514 101.917 12.6639 102.104C12.4763 102.291 12.222 102.397 11.9567 102.397H11.831C11.2991 102.397 10.789 102.186 10.4128 101.81C10.0367 101.435 9.82541 100.925 9.82541 100.394V93.0496C9.82397 92.7857 9.87478 92.5241 9.97493 92.2799C10.0751 92.0357 10.2226 91.8136 10.409 91.6265C10.5953 91.4394 10.8169 91.2909 11.061 91.1896C11.305 91.0883 11.5667 91.0361 11.831 91.0361Z" fill="#263238"/>
<g opacity="0.3">
<path d="M19.2364 106.562V130.92C19.2364 131.033 19.2813 131.142 19.3611 131.221C19.441 131.301 19.5493 131.346 19.6623 131.346C19.7753 131.346 19.8836 131.301 19.9635 131.221C20.0433 131.142 20.0882 131.033 20.0882 130.92V106.562C20.0882 106.449 20.0433 106.341 19.9635 106.261C19.8836 106.182 19.7753 106.137 19.6623 106.137C19.5493 106.137 19.441 106.182 19.3611 106.261C19.2813 106.341 19.2364 106.449 19.2364 106.562Z" fill="black"/>
</g>
<g opacity="0.3">
<path d="M58.7518 98.0907V118.28C58.7637 118.385 58.814 118.482 58.8931 118.553C58.9722 118.624 59.0745 118.663 59.1805 118.663C59.2865 118.663 59.3888 118.624 59.4679 118.553C59.5469 118.482 59.5972 118.385 59.6091 118.28V98.0907C59.5972 97.9854 59.5469 97.8882 59.4679 97.8176C59.3888 97.747 59.2865 97.708 59.1805 97.708C59.0745 97.708 58.9722 97.747 58.8931 97.8176C58.814 97.8882 58.7637 97.9854 58.7518 98.0907Z" fill="black"/>
</g>
<g opacity="0.2">
<path d="M38.687 75.9834H35.9655L25.2925 105.165L28.4075 104.074L38.687 75.9834Z" fill="white"/>
<path d="M49.0984 75.9834H40.83L30.8674 103.212L40.3545 99.8886L49.0984 75.9834Z" fill="white"/>
</g>
<path d="M91.5423 152.395L92.8812 157.23H95.0508L94.242 151.795L91.5423 152.395Z" fill="#FFC3BD"/>
<path d="M95.1042 156.781L92.6504 156.83C92.5986 156.832 92.549 156.852 92.5095 156.885C92.47 156.919 92.4426 156.965 92.4318 157.015L91.9564 159.329C91.937 159.427 91.957 159.529 92.0122 159.613C92.0674 159.697 92.1534 159.755 92.2515 159.776H92.3335C93.3554 159.738 94.2626 159.667 95.5359 159.645C97.0388 159.618 96.6617 159.804 98.4268 159.798C99.4925 159.798 99.6674 158.581 99.2138 158.527C97.8908 158.487 96.6374 157.926 95.7272 156.966C95.5503 156.828 95.3279 156.762 95.1042 156.781Z" fill="#263238"/>
<path opacity="0.2" d="M94.8486 155.866L94.242 151.795L91.5423 152.395L92.5424 156.019L94.8486 155.866Z" fill="black"/>
<path d="M89.1867 109.927L95.0506 154.251L91.7716 154.562C91.7716 154.562 87.8259 140.516 87.1046 135.72C86.968 134.858 86.7166 133.101 86.5581 132.244C86.3777 131.257 85.9132 129.385 85.6181 128.425C85.0716 126.591 83.4868 121.058 83.4868 121.058L81.126 111.493L89.1867 109.927Z" fill="#263238"/>
<path opacity="0.5" d="M82.5421 113.781L82.1432 115.62L83.4876 121.077C83.4876 121.077 84.1925 123.571 84.8265 125.764C85.1161 116.346 83.5586 113.787 83.5586 113.787L82.5421 113.781Z" fill="black"/>
<path d="M91.0376 153.624L91.4748 155.283L95.4642 154.841L95.3658 153.095L91.0376 153.624Z" fill="#9898F2"/>
<path d="M78.8726 152.167L79.4409 157.149L81.5886 157.171L81.6323 151.992L78.8726 152.167Z" fill="#FFC3BD"/>
<path opacity="0.2" d="M81.6323 151.992L78.8726 152.167L79.3152 156.058L81.5996 156.041L81.6323 151.992Z" fill="black"/>
<path d="M84.4691 110.417L82.0099 154.812L78.7037 154.845C78.7037 154.845 77.3702 140.33 77.4959 135.479C77.4959 134.606 77.5779 132.833 77.5779 131.96C77.5779 130.956 77.4522 129.03 77.332 128.031C77.1024 126.132 76.4521 120.124 76.2827 118.209C76.0586 115.759 75.9384 110.57 75.9384 110.57L84.4691 110.417Z" fill="#263238"/>
<path d="M78.0647 153.453L78.3489 155.144L82.3547 155.084L82.5295 153.338L78.0647 153.453Z" fill="#9898F2"/>
<path d="M81.6941 156.781L79.2349 156.83C79.1833 156.833 79.1342 156.853 79.0948 156.887C79.0555 156.92 79.0279 156.965 79.0163 157.015L78.5463 159.329C78.5359 159.378 78.5354 159.428 78.5446 159.477C78.5539 159.526 78.5728 159.573 78.6002 159.614C78.6277 159.656 78.6631 159.692 78.7045 159.719C78.7459 159.747 78.7925 159.767 78.8414 159.776H78.9179C79.9399 159.738 80.8525 159.667 82.1258 159.645C83.6287 159.618 83.2516 159.804 85.0168 159.798C86.0824 159.798 86.2518 158.581 85.8037 158.527C84.4795 158.485 83.2249 157.925 82.3116 156.966C82.137 156.828 81.9161 156.762 81.6941 156.781Z" fill="#263238"/>
<path d="M94.3826 92.2534L100.727 90.6437L102.017 89.667C102.125 89.5836 102.258 89.5376 102.394 89.536H103.345C103.41 89.5383 103.475 89.5291 103.536 89.5087L103.848 89.405C103.952 89.3719 104.062 89.3663 104.169 89.3887C104.275 89.4111 104.374 89.4608 104.456 89.5329C104.537 89.605 104.599 89.6969 104.634 89.7999C104.669 89.9028 104.677 90.013 104.657 90.1199L104.433 91.2985C104.408 91.4236 104.345 91.5381 104.253 91.6268C104.162 91.7155 104.045 91.7742 103.919 91.795L101.126 92.2534L94.7323 94.5833L94.3826 92.2534Z" fill="#FFC3BD"/>
<path d="M86.0709 90.3147L93.7928 91.8316L95.9406 91.5151L96.3067 94.2871L94.0552 94.8327L86.6229 94.8818C86.6229 94.8818 84.7921 92.099 86.0709 90.3147Z" fill="#9898F2"/>
<path opacity="0.5" d="M86.0709 90.3147L93.7928 91.8316L95.9406 91.5151L96.3067 94.2871L94.0552 94.8327L86.6229 94.8818C86.6229 94.8818 84.7921 92.099 86.0709 90.3147Z" fill="black"/>
<path d="M95.4154 91.219L96.0985 94.8203L97.1478 94.3129L96.5685 91.219H95.4154Z" fill="#9898F2"/>
<path opacity="0.5" d="M95.4154 91.219L96.0985 94.8203L97.1478 94.3129L96.5685 91.219H95.4154Z" fill="white"/>
<path opacity="0.2" d="M86.9169 91.6174L86.3704 91.9503L86.6873 93.0416L87.1573 94.8914H90.9827C87.8951 94.6295 86.9169 91.6174 86.9169 91.6174Z" fill="black"/>
<path d="M79.8357 98.3783L84.8962 97.7999L84.5136 90.5754L77.3546 91.7213L79.8357 98.3783Z" fill="#9898F2"/>
<path opacity="0.4" d="M79.8357 98.3783L84.8962 97.7999L84.5136 90.5754L77.3546 91.7213L79.8357 98.3783Z" fill="black"/>
<path d="M86.0716 90.3147L82.8309 90.8604C83.0875 92.4665 82.9886 94.1092 82.5413 95.673C81.9456 93.8287 79.5465 92.23 78.4207 91.5588L74.7647 92.1426L75.6719 111.824C75.6827 112.071 75.7801 112.305 75.947 112.487C76.114 112.669 76.3397 112.786 76.5845 112.818C78.7705 113.096 84.678 113.554 88.9516 111.224C89.1258 111.128 89.2695 110.985 89.3661 110.812C89.4628 110.638 89.5085 110.44 89.4981 110.242C89.3287 106.952 88.4488 92.1372 86.0716 90.3147Z" fill="#9898F2"/>
<path opacity="0.5" d="M86.0716 90.3147L82.8309 90.8604C83.0875 92.4665 82.9886 94.1092 82.5413 95.673C81.9456 93.8287 79.5465 92.23 78.4207 91.5588L74.7647 92.1426L75.6719 111.824C75.6827 112.071 75.7801 112.305 75.947 112.487C76.114 112.669 76.3397 112.786 76.5845 112.818C78.7705 113.096 84.678 113.554 88.9516 111.224C89.1258 111.128 89.2695 110.985 89.3661 110.812C89.4628 110.638 89.5085 110.44 89.4981 110.242C89.3287 106.952 88.4488 92.1372 86.0716 90.3147Z" fill="white"/>
<path opacity="0.8" d="M75.0151 97.5636L75.108 99.6425C79.6009 99.6664 84.0629 98.8999 88.2894 97.378C88.1637 96.565 88.0271 95.7793 87.8741 95.0481C83.7723 96.6454 79.4174 97.4973 75.0151 97.5636Z" fill="white"/>
<path opacity="0.2" d="M75.1804 101.122C77.6341 97.0517 76.1532 94.5745 76.1532 94.5745L75.7378 94.7272L74.929 95.6985L75.1804 101.122Z" fill="black"/>
<path d="M79.2512 91.8945C79.8797 92.3638 80.8579 92.9204 81.8197 92.7294C81.9785 92.7095 82.1314 92.6569 82.2687 92.5748C82.406 92.4927 82.5247 92.383 82.6172 92.2527C82.7097 92.1223 82.7741 91.9741 82.8061 91.8176C82.8382 91.6611 82.8373 91.4996 82.8034 91.3434C81.929 90.9014 81.7104 89.9192 81.7432 88.9916L78.3659 87.1418C78.8851 88.3805 79.5955 90.5358 79.2512 91.8945Z" fill="#FFC3BD"/>
<path opacity="0.2" d="M79.7435 87.9055L81.7436 88.9968C81.7353 89.2833 81.7518 89.5699 81.7928 89.8535C81.4065 89.8657 81.0231 89.7831 80.6762 89.6128C80.3294 89.4425 80.0297 89.1897 79.8036 88.8768C79.5522 88.4675 79.5905 87.9874 79.7435 87.9055Z" fill="black"/>
<path d="M81.3994 84.9214C79.8692 84.1302 78.9456 82.3623 79.044 81.9476C79.1424 81.5329 81.4213 80.6871 81.7492 80.8563C83.3886 81.5602 82.5252 83.8083 82.5252 83.8083L83.1208 84.4958L81.3994 84.9214Z" fill="#263238"/>
<path d="M77.3558 85.0945C78.0389 87.0588 78.3394 88.2429 79.6401 88.9795C81.5911 90.1036 83.8043 88.4885 83.7224 86.3659C83.6459 84.4397 82.5365 81.5586 80.356 81.3131C79.8749 81.2559 79.3872 81.3227 78.9393 81.5071C78.4915 81.6916 78.0984 81.9875 77.7975 82.3666C77.4967 82.7458 77.2982 83.1956 77.2208 83.6731C77.1435 84.1506 77.1899 84.64 77.3558 85.0945Z" fill="#FFC3BD"/>
<path d="M77.3278 86.5302C75.8851 85.5972 74.7046 84.0366 74.8631 83.6492C75.2839 82.6179 76.9452 81.783 78.071 82.2468C79.7105 82.918 78.5629 85.5208 78.5629 85.5208L79.1094 86.2738L77.3278 86.5302Z" fill="#263238"/>
<path d="M76.8955 87.2323C77.0875 87.4054 77.3118 87.5388 77.5557 87.625C77.7995 87.7111 78.058 87.7483 78.3163 87.7343C79.0104 87.6961 79.1306 87.025 78.7535 86.4848C78.3764 85.9446 77.6605 85.448 77.0321 85.7481C76.8999 85.8162 76.787 85.9165 76.7038 86.0396C76.6207 86.1628 76.5699 86.3049 76.5563 86.4528C76.5427 86.6007 76.5666 86.7497 76.6259 86.8859C76.6852 87.0222 76.7779 87.1413 76.8955 87.2323Z" fill="#FFC3BD"/>
<path d="M80.6439 84.7923C80.6931 84.956 80.8132 85.0651 80.9224 85.0324C81.0316 84.9996 81.0753 84.8469 81.0316 84.6832C80.9879 84.5195 80.8624 84.4158 80.7531 84.4431C80.6439 84.4704 80.6003 84.6286 80.6439 84.7923Z" fill="#263238"/>
<path d="M82.4846 84.2799C82.5338 84.4381 82.6539 84.5473 82.7631 84.5145C82.8723 84.4818 82.916 84.329 82.8723 84.1707C82.8286 84.0125 82.7031 83.8979 82.5938 83.9307C82.4846 83.9634 82.441 84.1162 82.4846 84.2799Z" fill="#263238"/>
<path d="M81.8146 84.5333C82.151 84.9741 82.546 85.367 82.9886 85.701C82.8989 85.8127 82.7861 85.9037 82.658 85.9678C82.5298 86.0318 82.3892 86.0674 82.246 86.0721L81.8146 84.5333Z" fill="#ED847E"/>
<path d="M79.797 84.2105H79.7479C79.7251 84.1998 79.7069 84.1812 79.6969 84.1581C79.6869 84.135 79.6856 84.109 79.6933 84.085C79.7481 83.9372 79.8369 83.8044 79.9527 83.6973C80.0684 83.5901 80.2077 83.5118 80.3594 83.4685C80.3855 83.4627 80.4128 83.4675 80.4353 83.4818C80.4579 83.4961 80.4738 83.5188 80.4796 83.5448C80.4854 83.5709 80.4806 83.5982 80.4662 83.6207C80.4519 83.6432 80.4292 83.6591 80.4031 83.6649C80.2786 83.6953 80.1635 83.756 80.0682 83.8417C79.9729 83.9274 79.9004 84.0354 79.8571 84.156C79.8444 84.1809 79.823 84.2003 79.797 84.2105Z" fill="#263238"/>
<path d="M82.9929 83.3341C82.9768 83.3359 82.9605 83.3338 82.9454 83.3281C82.9302 83.3224 82.9166 83.3133 82.9056 83.3014C82.8268 83.2054 82.7263 83.1296 82.6123 83.0803C82.4983 83.0309 82.3742 83.0094 82.2503 83.0176C82.2374 83.02 82.2241 83.0197 82.2113 83.0168C82.1985 83.0139 82.1864 83.0085 82.1757 83.0009C82.165 82.9933 82.1559 82.9836 82.1491 82.9724C82.1422 82.9612 82.1376 82.9488 82.1356 82.9358C82.1338 82.9093 82.1416 82.8831 82.1577 82.862C82.1738 82.841 82.197 82.8264 82.223 82.8212C82.3801 82.8077 82.5382 82.8325 82.6837 82.8933C82.8291 82.9541 82.9577 83.0492 83.0585 83.1704C83.0679 83.1791 83.0754 83.1897 83.0806 83.2014C83.0857 83.2131 83.0884 83.2258 83.0884 83.2386C83.0884 83.2514 83.0857 83.2641 83.0806 83.2759C83.0754 83.2876 83.0679 83.2981 83.0585 83.3068C83.0501 83.3157 83.0399 83.3227 83.0286 83.3274C83.0173 83.3321 83.0052 83.3344 82.9929 83.3341Z" fill="#263238"/>
<path d="M82.0759 87.0432C82.175 87.045 82.274 87.0358 82.371 87.0159C82.3778 87.0161 82.3846 87.0148 82.3907 87.0119C82.3969 87.0091 82.4023 87.0049 82.4066 86.9996C82.4108 86.9943 82.4137 86.9881 82.4152 86.9814C82.4166 86.9748 82.4164 86.9679 82.4147 86.9614C82.4135 86.9548 82.4109 86.9486 82.4071 86.9431C82.4033 86.9376 82.3985 86.933 82.3929 86.9294C82.3873 86.9258 82.381 86.9234 82.3744 86.9224C82.3678 86.9213 82.3611 86.9216 82.3546 86.9232C82.1396 86.9643 81.9179 86.9546 81.7072 86.8949C81.4966 86.8352 81.3028 86.7272 81.1414 86.5794C81.1307 86.5705 81.1171 86.5657 81.1032 86.5657C81.0892 86.5657 81.0757 86.5705 81.0649 86.5794C81.0601 86.584 81.0563 86.5895 81.0537 86.5956C81.0511 86.6017 81.0497 86.6082 81.0497 86.6149C81.0497 86.6215 81.0511 86.6281 81.0537 86.6341C81.0563 86.6402 81.0601 86.6457 81.0649 86.6503C81.3382 86.9071 81.7007 87.048 82.0759 87.0432Z" fill="#263238"/>
<path d="M76.4807 85.9525C76.4807 85.9525 74.8139 84.8612 74.71 83.7699C74.7059 83.0442 74.8689 82.3273 75.1863 81.6745C75.5037 81.0217 75.9671 80.4505 76.5408 80.0049C77.7868 79.1646 80.317 78.4607 82.5194 81.3254L78.9453 82.4167L77.5245 83.8845L76.4807 85.9525Z" fill="#9898F2"/>
<path opacity="0.3" d="M76.4807 85.9525C76.4807 85.9525 74.8139 84.8612 74.71 83.7699C74.7059 83.0442 74.8689 82.3273 75.1863 81.6745C75.5037 81.0217 75.9671 80.4505 76.5408 80.0049C77.7868 79.1646 80.317 78.4607 82.5194 81.3254L78.9453 82.4167L77.5245 83.8845L76.4807 85.9525Z" fill="black"/>
<path d="M76.5622 86.0821C76.5622 86.0821 78.2017 81.5968 82.6446 81.6514C82.6446 81.6514 83.8524 78.3502 81.497 78.683C79.1416 79.0159 77.7645 83.3211 77.7645 83.3211C77.7645 83.3211 75.6222 85.6347 76.5622 86.0821Z" fill="#9898F2"/>
<path opacity="0.5" d="M76.5622 86.0821C76.5622 86.0821 78.2017 81.5968 82.6446 81.6514C82.6446 81.6514 83.8524 78.3502 81.497 78.683C79.1416 79.0159 77.7645 83.3211 77.7645 83.3211C77.7645 83.3211 75.6222 85.6347 76.5622 86.0821Z" fill="white"/>
<path opacity="0.8" d="M89.4107 108.649C89.367 107.972 89.3123 107.17 89.2468 106.286C82.3446 108.191 77.224 107.847 75.4807 107.634L75.5736 109.74C82.5905 110.373 87.5198 109.211 89.4107 108.649Z" fill="white"/>
<path d="M77.1962 100.928L82.8086 101.594C82.8086 101.594 81.6719 106.936 83.5573 109.178L79.1034 109.227L77.1962 100.928Z" fill="#263238"/>
<path opacity="0.7" d="M77.1962 100.928L82.8086 101.594C82.8086 101.594 81.6719 106.936 83.5573 109.178L79.1034 109.227L77.1962 100.928Z" fill="white"/>
<path d="M82.2359 101.073L77.4003 100.503C76.9268 100.447 76.4975 100.785 76.4415 101.258L75.584 108.503C75.528 108.976 75.8666 109.404 76.3401 109.46L81.1757 110.031C81.6493 110.087 82.0786 109.749 82.1345 109.276L82.9921 102.031C83.048 101.558 82.7095 101.129 82.2359 101.073Z" fill="#263238"/>
<path opacity="0.5" d="M82.2359 101.073L77.4003 100.503C76.9268 100.447 76.4975 100.785 76.4415 101.258L75.584 108.503C75.528 108.976 75.8666 109.404 76.3401 109.46L81.1757 110.031C81.6493 110.087 82.0786 109.749 82.1345 109.276L82.9921 102.031C83.048 101.558 82.7095 101.129 82.2359 101.073Z" fill="white"/>
<path d="M80.0268 100.399L80.5241 99.853C80.5506 99.8238 80.5684 99.7878 80.5757 99.7491C80.5829 99.7104 80.5793 99.6704 80.5651 99.6337C80.5509 99.5969 80.5268 99.5648 80.4955 99.5409C80.4641 99.517 80.4267 99.5022 80.3874 99.4983L79.595 99.4055C79.5557 99.4003 79.5156 99.4062 79.4794 99.4225C79.4432 99.4388 79.4123 99.4648 79.3901 99.4977C79.368 99.5306 79.3554 99.5691 79.354 99.6087C79.3525 99.6483 79.3622 99.6876 79.3819 99.722L79.7371 100.377L78.3108 100.208L78.2288 100.912C78.2118 101.064 78.2556 101.217 78.3507 101.338C78.4458 101.458 78.5846 101.536 78.737 101.555L80.7208 101.774C80.8735 101.791 81.0268 101.747 81.1474 101.652C81.2681 101.557 81.3465 101.418 81.3657 101.266L81.4476 100.562L80.0268 100.399Z" fill="#263238"/>
<path d="M71.3329 102.556L75.4643 105.011L78.0219 104.346C78.1801 104.303 78.348 104.317 78.4973 104.384C78.6654 104.462 78.7964 104.603 78.8626 104.776C78.9289 104.949 78.9253 105.141 78.8526 105.311L78.3553 106.446C78.2921 106.589 78.1834 106.708 78.046 106.783C77.9087 106.858 77.7503 106.885 77.5956 106.861L75.049 106.452L70.0759 104.362L71.3329 102.556Z" fill="#FFC3BD"/>
<path d="M74.7642 92.1272C74.7642 92.1272 67.933 100.83 68.0369 102.451C68.1407 104.072 71.2339 105.065 71.2339 105.065L72.5946 103.133L71.4306 101.982C71.4306 101.982 74.163 99.1389 75.0702 98.1622C76.0703 97.0545 77.4092 95.4994 74.7642 92.1272Z" fill="#9898F2"/>
<path opacity="0.5" d="M74.7642 92.1272C74.7642 92.1272 67.933 100.83 68.0369 102.451C68.1407 104.072 71.2339 105.065 71.2339 105.065L72.5946 103.133L71.4306 101.982C71.4306 101.982 74.163 99.1389 75.0702 98.1622C76.0703 97.0545 77.4092 95.4994 74.7642 92.1272Z" fill="black"/>
<path d="M72.5166 102.529L70.6804 105.251L71.5985 105.562L73.1177 103.342L72.5166 102.529Z" fill="#9898F2"/>
<path opacity="0.5" d="M72.5166 102.529L70.6804 105.251L71.5985 105.562L73.1177 103.342L72.5166 102.529Z" fill="white"/>
<path d="M84.7875 112.634L83.1044 96.1659C83.0947 96.0279 83.0328 95.8987 82.9314 95.8045C82.8299 95.7103 82.6964 95.6581 82.5579 95.6584L84.3394 112.721L84.7875 112.634Z" fill="#9898F2"/>
</svg>
