<svg width="46" height="46" viewBox="0 0 46 46" fill="none" xmlns="http://www.w3.org/2000/svg">
<rect width="46" height="46" rx="4" fill="#EDEDFF"/>
<path d="M25 13C19.486 13 15 17.486 15 23V27.143C15 28.167 15.897 29 17 29H18C18.2652 29 18.5196 28.8946 18.7071 28.7071C18.8946 28.5196 19 28.2652 19 28V22.857C19 22.5918 18.8946 22.3374 18.7071 22.1499C18.5196 21.9624 18.2652 21.857 18 21.857H17.092C17.648 17.987 20.978 15 25 15C29.022 15 32.352 17.987 32.908 21.857H32C31.7348 21.857 31.4804 21.9624 31.2929 22.1499C31.1054 22.3374 31 22.5918 31 22.857V29C31 30.103 30.103 31 29 31H27V30H23V33H29C31.206 33 33 31.206 33 29C34.103 29 35 28.167 35 27.143V23C35 17.486 30.514 13 25 13Z" fill="#000080"/>
</svg>
