<svg width="23" height="16" viewBox="0 0 23 16" fill="none" xmlns="http://www.w3.org/2000/svg">
<path d="M14.6364 6H20.2714L16.79 2H14.6364V6ZM17.25 14.5C17.6577 14.5 18.0236 14.37 18.3373 14.07C18.6509 13.77 18.8182 13.42 18.8182 13C18.8182 12.61 18.6509 12.26 18.3373 11.96C18.0236 11.66 17.6577 11.5 17.25 11.5C16.8109 11.5 16.445 11.66 16.1314 11.96C15.8177 12.26 15.6818 12.61 15.6818 13C15.6818 13.42 15.8177 13.77 16.1314 14.07C16.445 14.37 16.8109 14.5 17.25 14.5ZM5.22727 14.5C5.68727 14.5 6.06364 14.37 6.35636 14.07C6.64909 13.77 6.79545 13.42 6.79545 13C6.79545 12.61 6.64909 12.26 6.35636 11.96C6.06364 11.66 5.68727 11.5 5.22727 11.5C4.76727 11.5 4.39091 11.66 4.09818 11.96C3.80545 12.26 3.65909 12.61 3.65909 13C3.65909 13.42 3.80545 13.77 4.09818 14.07C4.39091 14.37 4.76727 14.5 5.22727 14.5ZM17.7727 0L23 6V13H20.3864C20.3864 13.83 20.0623 14.53 19.435 15.13C18.8182 15.72 18.0864 16 17.25 16C16.3823 16 15.6505 15.72 15.0336 15.13C14.4064 14.53 14.1136 13.83 14.1136 13H8.36364C8.36364 13.83 8.05 14.53 7.43318 15.13C6.79545 15.72 6.07409 16 5.22727 16C4.38045 16 3.65909 15.72 3.02136 15.13C2.40455 14.53 2.09091 13.83 2.09091 13H0V9H8.56227L2.09091 4.11V7H0V1H1.04545L12.5455 7.06V0H17.7727Z" fill="#272727"/>
</svg>
