<svg width="20" height="18" viewBox="0 0 20 18" fill="none" xmlns="http://www.w3.org/2000/svg">
<path d="M0.45285 2.15802C0.45285 1.01893 1.43223 0.09552 2.64035 0.09552H12.3626C13.5707 0.09552 14.5501 1.01893 14.5501 2.15802V2.84552H16.0578C16.9031 2.84552 17.6728 3.30477 18.0347 4.0251L19.6867 7.31344C19.8253 7.58945 19.8973 7.89104 19.8973 8.19638V13.158C19.8973 14.2971 18.9179 15.2205 17.7098 15.2205H15.9681C15.7367 16.5212 14.5369 17.5122 13.0917 17.5122C11.6465 17.5122 10.4468 16.5212 10.2154 15.2205H8.1903C7.95887 16.5212 6.75917 17.5122 5.31396 17.5122C3.86547 17.5122 2.6636 16.5166 2.43606 15.2116C1.32373 15.1146 0.45285 14.2322 0.45285 13.158V2.15802ZM18.439 11.5539H17.2237C16.821 11.5539 16.4945 11.8617 16.4945 12.2414C16.4945 12.6211 16.821 12.9289 17.2237 12.9289H18.439V11.5539ZM18.1311 7.42885L16.7168 4.61371C16.5961 4.3736 16.3395 4.22052 16.0578 4.22052H14.5501V7.42885H18.1311ZM5.31396 16.1372C6.11938 16.1372 6.77229 15.5216 6.77229 14.7622C6.77229 14.0028 6.11938 13.3872 5.31396 13.3872C4.50854 13.3872 3.85563 14.0028 3.85563 14.7622C3.85563 15.5216 4.50854 16.1372 5.31396 16.1372ZM14.5501 14.7622C14.5501 14.0028 13.8971 13.3872 13.0917 13.3872C12.2864 13.3872 11.6334 14.0028 11.6334 14.7622C11.6334 15.5216 12.2864 16.1372 13.0917 16.1372C13.8971 16.1372 14.5501 15.5216 14.5501 14.7622Z" fill="#000080"/>
</svg>
