<svg width="21" height="16" viewBox="0 0 21 16" fill="none" xmlns="http://www.w3.org/2000/svg">
<path d="M16.1613 6.7082C16.7576 7.3046 17.2726 8.0261 17.6649 8.7931C17.9164 9.2848 17.7216 9.8873 17.2299 10.1388C16.7382 10.3903 16.1358 10.1956 15.8843 9.7039C15.5844 9.1176 15.1911 8.5665 14.747 8.1225C12.3539 5.72933 8.47387 5.72933 6.08075 8.1225C5.61569 8.5875 5.23824 9.1099 4.94753 9.6847C4.69825 10.1775 4.09666 10.3749 3.60383 10.1257C3.111 9.8764 2.91357 9.2748 3.16285 8.782C3.54882 8.0189 4.0511 7.3237 4.66654 6.7082C7.84071 3.53407 12.9871 3.53407 16.1613 6.7082ZM14.1123 9.6998C14.5729 10.1604 14.9506 10.7243 15.2136 11.3243C15.4352 11.8302 15.2048 12.4199 14.699 12.6416C14.1932 12.8633 13.6034 12.6329 13.3817 12.127C13.2164 11.7497 12.9781 11.3941 12.6981 11.114C11.4357 9.8516 9.38887 9.8516 8.12647 11.114C7.84822 11.3923 7.62116 11.7329 7.45429 12.1142C7.23289 12.6202 6.64325 12.8509 6.13728 12.6295C5.63132 12.4081 5.40062 11.8185 5.62201 11.3125C5.88604 10.7091 6.25215 10.1599 6.71225 9.6998C8.75567 7.6563 12.0688 7.6563 14.1123 9.6998ZM18.7964 4.29861C19.3044 4.80661 19.7833 5.38608 20.2002 5.99016C20.5139 6.4447 20.3997 7.0675 19.9452 7.3812C19.4907 7.6949 18.8679 7.5807 18.5542 7.1262C18.2045 6.6195 17.8026 6.1333 17.3822 5.71283C13.5099 1.84052 7.23157 1.84052 3.35926 5.71283C2.96009 6.112 2.56225 6.5985 2.1988 7.1224C1.884 7.5761 1.26094 7.6888 0.807164 7.374C0.353384 7.0592 0.240715 6.4361 0.555525 5.98235C0.983535 5.36539 1.45603 4.78763 1.94505 4.29861C6.59841 -0.354746 14.143 -0.354746 18.7964 4.29861ZM11.4386 12.4412C12.0248 13.0274 12.0248 13.9778 11.4386 14.564C10.8524 15.1502 9.90197 15.1502 9.31577 14.564C8.72957 13.9778 8.72957 13.0274 9.31577 12.4412C9.90197 11.855 10.8524 11.855 11.4386 12.4412Z" fill="#272727"/>
</svg>
